{
copyright = "Copyright (c) 2015, Cadson Demak (info@cadsondemak.com)";
customParameters = (
{
name = vendorID;
value = CDK;
},
{
name = description;
value = "Copyright (c) 2015, Cadson Demak (info@cadsondemak.com)";
},
{
name = license;

glyphs = (
{
glyphname = A;
lastChange = "2015-07-16 19:12:08 +0000";
layers = (
{
layerId = "A2C5D99E-4902-4090-BBD9-379E2297F70D";
name = Bold;
paths = (
{
closed = 1;
nodes = (
"248 0 LINE SMOOTH",
"258 0 OFFCURVE",
"263 7 OFFCURVE",
"263 19 CURVE SMOOTH",
"263 36 OFFCURVE",
"253 45 OFFCURVE",
"222 55 CURVE SMOOTH",
"167 72 LINE",
"217 209 LINE",
"496 209 LINE",
"547 72 LINE",
"515 72 LINE SMOOTH",
"482 72 OFFCURVE",
"460 58 OFFCURVE",
"460 30 CURVE SMOOTH",
"460 11 OFFCURVE",
"468 0 OFFCURVE",
"484 0 CURVE SMOOTH",
"734 0 LINE SMOOTH",
"746 0 OFFCURVE",
"749 10 OFFCURVE",
"749 22 CURVE SMOOTH",
"749 40 OFFCURVE",
"737 50 OFFCURVE",
"711 59 CURVE SMOOTH",
"673 72 LINE",
"441 695 LINE",
"305 695 LINE",
"73 72 LINE",
"56 72 LINE SMOOTH",
"23 72 OFFCURVE",
"1 58 OFFCURVE",
"1 30 CURVE SMOOTH",
"1 11 OFFCURVE",
"10 0 OFFCURVE",
"26 0 CURVE SMOOTH"
);
},
{
closed = 1;
nodes = (
"357 590 LINE",
"466 289 LINE",
"246 289 LINE"
);
}
);
width = 750;
}
);
note = A;
unicode = 0041;
},
{
glyphname = Aacute;
lastChange = "2015-07-16 19:12:08 +0000";
layers = (
{
components = (
{
name = A;
}
);
layerId = "A2C5D99E-4902-4090-BBD9-379E2297F70D";
name = Bold;
paths = (
{
closed = 1;
nodes = (
"512 912 LINE",
"424 970 LINE",
"321 797 LINE",
"389 753 LINE"
);
}
);
width = 750;
}
);
note = Aacute;
unicode = 00C1;
},
{
glyphname = Abreve;
lastChange = "2015-07-16 19:12:08 +0000";
layers = (
{
components = (
{
name = A;
}
);
layerId = "A2C5D99E-4902-4090-BBD9-379E2297F70D";
name = Bold;
paths = (
{
closed = 1;
nodes = (
"439 747 OFFCURVE",
"506 785 OFFCURVE",
"533 882 CURVE",
"469 905 LINE",
"452 856 OFFCURVE",
"416 827 OFFCURVE",
"369 827 CURVE SMOOTH",
"322 827 OFFCURVE",
"285 856 OFFCURVE",
"269 905 CURVE",
"204 882 LINE",
"231 785 OFFCURVE",
"298 747 OFFCURVE",
"369 747 CURVE SMOOTH"
);
}
);
width = 750;
}
);
note = Abreve;
unicode = 0102;
},
{
glyphname = Abreveacute;
lastChange = "2015-07-16 19:12:08 +0000";
layers = (
{
components = (
{
name = A;
}
);
layerId = "A2C5D99E-4902-4090-BBD9-379E2297F70D";
name = Bold;
paths = (
{
closed = 1;
nodes = (
"442 747 OFFCURVE",
"509 785 OFFCURVE",
"536 882 CURVE",
"472 905 LINE",
"455 856 OFFCURVE",
"419 827 OFFCURVE",
"372 827 CURVE SMOOTH",
"325 827 OFFCURVE",
"288 856 OFFCURVE",
"272 905 CURVE",
"207 882 LINE",
"234 785 OFFCURVE",
"301 747 OFFCURVE",
"372 747 CURVE SMOOTH"
);
},
{
closed = 1;
nodes = (
"497 1028 LINE",
"414 1080 LINE",
"328 930 LINE",
"388 891 LINE"
);
}
);
width = 750;
}
);
note = Abreveacute;
unicode = 1EAE;
},
{
glyphname = Abrevedotbelow;
lastChange = "2015-07-16 19:12:08 +0000";
layers = (
{
components = (
{
name = A;
}
);
layerId = "A2C5D99E-4902-4090-BBD9-379E2297F70D";
name = Bold;
paths = (
{
closed = 1;
nodes = (
"398 -192 OFFCURVE",
"427 -166 OFFCURVE",
"427 -129 CURVE SMOOTH",
"427 -93 OFFCURVE",
"398 -66 OFFCURVE",
"364 -66 CURVE SMOOTH",
"329 -66 OFFCURVE",
"301 -93 OFFCURVE",
"301 -129 CURVE SMOOTH",
"301 -166 OFFCURVE",
"329 -192 OFFCURVE",
"364 -192 CURVE SMOOTH"
);
},
{
closed = 1;
nodes = (
"439 747 OFFCURVE",
"506 785 OFFCURVE",
"533 882 CURVE",
"469 905 LINE",
"452 856 OFFCURVE",
"416 827 OFFCURVE",
"369 827 CURVE SMOOTH",
"322 827 OFFCURVE",
"285 856 OFFCURVE",
"269 905 CURVE",
"204 882 LINE",
"231 785 OFFCURVE",
"298 747 OFFCURVE",
"369 747 CURVE SMOOTH"
);
}
);
width = 750;
}
);
note = Abrevedotbelow;
unicode = 1EB6;
},
{
glyphname = Abrevegrave;
lastChange = "2015-07-16 19:12:08 +0000";
layers = (
{
components = (
{
name = A;
}
);
layerId = "A2C5D99E-4902-4090-BBD9-379E2297F70D";
name = Bold;
paths = (
{
closed = 1;
nodes = (
"436 747 OFFCURVE",
"503 785 OFFCURVE",
"530 882 CURVE",
"466 905 LINE",
"449 856 OFFCURVE",
"413 827 OFFCURVE",
"366 827 CURVE SMOOTH",
"319 827 OFFCURVE",
"282 856 OFFCURVE",
"266 905 CURVE",
"201 882 LINE",
"228 785 OFFCURVE",
"295 747 OFFCURVE",
"366 747 CURVE SMOOTH"
);
},
{
closed = 1;
nodes = (
"410 930 LINE",
"324 1080 LINE",
"241 1028 LINE",
"349 891 LINE"
);
}
);
width = 750;
}
);
note = Abrevegrave;
unicode = 1EB0;
},
{
glyphname = Abrevehookabove;
lastChange = "2015-07-16 19:12:08 +0000";
layers = (
{
components = (
{
name = A;
}
);
layerId = "A2C5D99E-4902-4090-BBD9-379E2297F70D";
name = Bold;
paths = (
{
closed = 1;
nodes = (
"438 747 OFFCURVE",
"505 785 OFFCURVE",
"532 882 CURVE",
"468 905 LINE",
"451 856 OFFCURVE",
"415 827 OFFCURVE",
"368 827 CURVE SMOOTH",
"321 827 OFFCURVE",
"284 856 OFFCURVE",
"268 905 CURVE",
"203 882 LINE",
"230 785 OFFCURVE",
"297 747 OFFCURVE",
"368 747 CURVE SMOOTH"
);
},
{
closed = 1;
nodes = (
"392 891 LINE",
"398 938 LINE",
"442 953 OFFCURVE",
"468 982 OFFCURVE",
"468 1020 CURVE SMOOTH",
"468 1062 OFFCURVE",
"431 1098 OFFCURVE",
"370 1098 CURVE SMOOTH",
"345 1098 OFFCURVE",
"314 1089 OFFCURVE",
"297 1082 CURVE",
"305 1038 LINE",
"324 1044 OFFCURVE",
"341 1047 OFFCURVE",
"359 1047 CURVE SMOOTH",
"381 1047 OFFCURVE",
"391 1037 OFFCURVE",
"391 1019 CURVE SMOOTH",
"391 995 OFFCURVE",
"368 979 OFFCURVE",
"331 965 CURVE",
"338 891 LINE"
);
}
);
width = 750;
}
);
note = Abrevehookabove;
unicode = 1EB2;
},
{
glyphname = Abrevetilde;
lastChange = "2015-07-16 19:12:08 +0000";
layers = (
{
components = (
{
name = A;
}
);
layerId = "A2C5D99E-4902-4090-BBD9-379E2297F70D";
name = Bold;
paths = (
{
closed = 1;
nodes = (
"442 747 OFFCURVE",
"509 785 OFFCURVE",
"536 882 CURVE",
"472 905 LINE",
"455 856 OFFCURVE",
"419 827 OFFCURVE",
"372 827 CURVE SMOOTH",
"325 827 OFFCURVE",
"288 856 OFFCURVE",
"272 905 CURVE",
"207 882 LINE",
"234 785 OFFCURVE",
"301 747 OFFCURVE",
"372 747 CURVE SMOOTH"
);
},
{
closed = 1;
nodes = (
"450 938 OFFCURVE",
"479 954 OFFCURVE",
"504 979 CURVE",
"471 1026 LINE",
"455 1014 OFFCURVE",
"440 1007 OFFCURVE",
"422 1007 CURVE SMOOTH",
"388 1007 OFFCURVE",
"359 1038 OFFCURVE",
"322 1038 CURVE SMOOTH",
"296 1038 OFFCURVE",
"264 1021 OFFCURVE",
"239 998 CURVE",
"272 950 LINE",
"287 961 OFFCURVE",
"301 970 OFFCURVE",
"322 970 CURVE SMOOTH",
"357 970 OFFCURVE",
"385 938 OFFCURVE",
"423 938 CURVE SMOOTH"
);
}
);
width = 750;
}
);
note = Abrevetilde;
unicode = 1EB4;
},
{
glyphname = Acaron;
lastChange = "2015-07-16 19:12:08 +0000";
layers = (
{
components = (
{
name = A;
}
);
layerId = "A2C5D99E-4902-4090-BBD9-379E2297F70D";
name = Bold;
paths = (
{
closed = 1;
nodes = (
"389 753 LINE",
"507 906 LINE",
"455 952 LINE",
"360 845 LINE",
"265 952 LINE",
"213 906 LINE",
"332 753 LINE"
);
}
);
width = 750;
}
);
note = Acaron;
unicode = 01CD;
},
{
glyphname = Acircumflex;
lastChange = "2015-07-16 19:12:09 +0000";
layers = (
{
components = (
{
name = A;
}
);
layerId = "A2C5D99E-4902-4090-BBD9-379E2297F70D";
name = Bold;
paths = (
{
closed = 1;
nodes = (
"363 860 LINE",
"458 753 LINE",
"510 798 LINE",
"392 952 LINE",
"335 952 LINE",
"216 798 LINE",
"268 753 LINE"
);
}
);
width = 750;
}
);
note = Acircumflex;
unicode = 00C2;
},
{
glyphname = Acircumflexacute;
lastChange = "2015-07-16 19:12:08 +0000";
layers = (
{
components = (
{
name = A;
}
);
layerId = "A2C5D99E-4902-4090-BBD9-379E2297F70D";
name = Bold;
paths = (
{
closed = 1;
nodes = (
"368 860 LINE",
"463 753 LINE",
"515 798 LINE",
"397 952 LINE",
"340 952 LINE",
"221 798 LINE",
"273 753 LINE"
);
},
{
closed = 1;
nodes = (
"620 979 LINE",
"541 1031 LINE",
"474 909 LINE",
"526 873 LINE"
);
}
);
width = 750;
}
);
note = Acircumflexacute;
unicode = 1EA4;
},
{
glyphname = Acircumflexdotbelow;
lastChange = "2015-07-16 19:12:08 +0000";
layers = (
{
components = (
{
name = A;
}
);
layerId = "A2C5D99E-4902-4090-BBD9-379E2297F70D";
name = Bold;
paths = (
{
closed = 1;
nodes = (
"397 -192 OFFCURVE",
"426 -166 OFFCURVE",
"426 -129 CURVE SMOOTH",
"426 -93 OFFCURVE",
"397 -66 OFFCURVE",
"363 -66 CURVE SMOOTH",
"328 -66 OFFCURVE",
"300 -93 OFFCURVE",
"300 -129 CURVE SMOOTH",
"300 -166 OFFCURVE",
"328 -192 OFFCURVE",
"363 -192 CURVE SMOOTH"
);
},
{
closed = 1;
nodes = (
"367 860 LINE",
"462 753 LINE",
"514 798 LINE",
"396 952 LINE",
"339 952 LINE",
"220 798 LINE",
"272 753 LINE"
);
}
);
width = 750;
}
);
note = Acircumflexdotbelow;
unicode = 1EAC;
},
{
glyphname = Acircumflexgrave;
lastChange = "2015-07-16 19:12:08 +0000";
layers = (
{
components = (
{
name = A;
}
);
layerId = "A2C5D99E-4902-4090-BBD9-379E2297F70D";
name = Bold;
paths = (
{
closed = 1;
nodes = (
"264 909 LINE",
"197 1031 LINE",
"118 979 LINE",
"212 873 LINE"
);
},
{
closed = 1;
nodes = (
"369 860 LINE",
"464 753 LINE",
"516 798 LINE",
"398 952 LINE",
"341 952 LINE",
"222 798 LINE",
"274 753 LINE"
);
}
);
width = 750;
}
);
note = Acircumflexgrave;
unicode = 1EA6;
},
{
glyphname = Acircumflexhookabove;
lastChange = "2015-07-16 19:12:08 +0000";
layers = (
{
components = (
{
name = A;
}
);
layerId = "A2C5D99E-4902-4090-BBD9-379E2297F70D";
name = Bold;
paths = (
{
closed = 1;
nodes = (
"368 860 LINE",
"463 753 LINE",
"515 798 LINE",
"397 952 LINE",
"340 952 LINE",
"221 798 LINE",
"273 753 LINE"
);
},
{
closed = 1;
nodes = (
"564 872 LINE",
"570 919 LINE",
"614 934 OFFCURVE",
"640 963 OFFCURVE",
"640 1001 CURVE SMOOTH",
"640 1043 OFFCURVE",
"603 1079 OFFCURVE",
"542 1079 CURVE SMOOTH",
"517 1079 OFFCURVE",
"486 1070 OFFCURVE",
"469 1063 CURVE",
"477 1019 LINE",
"496 1024 OFFCURVE",
"513 1028 OFFCURVE",
"531 1028 CURVE SMOOTH",
"553 1028 OFFCURVE",
"563 1018 OFFCURVE",
"563 1000 CURVE SMOOTH",
"563 976 OFFCURVE",
"540 960 OFFCURVE",
"503 946 CURVE",
"510 872 LINE"
);
}
);
width = 750;
}
);
note = Acircumflexhookabove;
unicode = 1EA8;
},
{
glyphname = Acircumflextilde;
lastChange = "2015-07-16 19:12:08 +0000";
layers = (
{
components = (
{
name = A;
}
);
layerId = "A2C5D99E-4902-4090-BBD9-379E2297F70D";
name = Bold;
paths = (
{
closed = 1;
nodes = (
"367 860 LINE",
"462 753 LINE",
"514 798 LINE",
"396 952 LINE",
"339 952 LINE",
"220 798 LINE",
"272 753 LINE"
);
},
{
closed = 1;
nodes = (
"449 981 OFFCURVE",
"478 997 OFFCURVE",
"503 1022 CURVE",
"470 1069 LINE",
"454 1057 OFFCURVE",
"439 1050 OFFCURVE",
"421 1050 CURVE SMOOTH",
"387 1050 OFFCURVE",
"358 1081 OFFCURVE",
"321 1081 CURVE SMOOTH",
"295 1081 OFFCURVE",
"263 1063 OFFCURVE",
"238 1041 CURVE",
"271 992 LINE",
"286 1004 OFFCURVE",
"300 1013 OFFCURVE",
"321 1013 CURVE SMOOTH",
"356 1013 OFFCURVE",
"384 981 OFFCURVE",
"422 981 CURVE SMOOTH"
);
}
);
width = 750;
}
);
note = Acircumflextilde;
unicode = 1EAA;
},
{
glyphname = Adieresis;
lastChange = "2015-07-16 19:12:08 +0000";
layers = (
{
components = (
{
name = A;
}
);
layerId = "A2C5D99E-4902-4090-BBD9-379E2297F70D";
name = Bold;
paths = (
{
closed = 1;
nodes = (
"301 764 OFFCURVE",
"329 790 OFFCURVE",
"329 827 CURVE SMOOTH",
"329 863 OFFCURVE",
"301 890 OFFCURVE",
"267 890 CURVE SMOOTH",
"233 890 OFFCURVE",
"204 863 OFFCURVE",
"204 827 CURVE SMOOTH",
"204 790 OFFCURVE",
"233 764 OFFCURVE",
"267 764 CURVE SMOOTH"
);
},
{
closed = 1;
nodes = (
"506 764 OFFCURVE",
"534 790 OFFCURVE",
"534 827 CURVE SMOOTH",
"534 863 OFFCURVE",
"506 890 OFFCURVE",
"472 890 CURVE SMOOTH",
"438 890 OFFCURVE",
"409 863 OFFCURVE",
"409 827 CURVE SMOOTH",
"409 790 OFFCURVE",
"438 764 OFFCURVE",
"472 764 CURVE SMOOTH"
);
}
);
width = 750;
}
);
note = Adieresis;
unicode = 00C4;
},
{
glyphname = Adotbelow;
lastChange = "2015-07-16 19:12:08 +0000";
layers = (
{
components = (
{
name = A;
}
);
layerId = "A2C5D99E-4902-4090-BBD9-379E2297F70D";
name = Bold;
paths = (
{
closed = 1;
nodes = (
"405 -192 OFFCURVE",
"434 -166 OFFCURVE",
"434 -129 CURVE SMOOTH",
"434 -93 OFFCURVE",
"405 -66 OFFCURVE",
"371 -66 CURVE SMOOTH",
"336 -66 OFFCURVE",
"308 -93 OFFCURVE",
"308 -129 CURVE SMOOTH",
"308 -166 OFFCURVE",
"336 -192 OFFCURVE",
"371 -192 CURVE SMOOTH"
);
}
);
width = 750;
}
);
note = Adotbelow;
unicode = 1EA0;
},
{
glyphname = Agrave;
lastChange = "2015-07-16 19:12:09 +0000";
layers = (
{
components = (
{
name = A;
}
);
layerId = "A2C5D99E-4902-4090-BBD9-379E2297F70D";
name = Bold;
paths = (
{
closed = 1;
nodes = (
"415 798 LINE",
"313 971 LINE",
"224 913 LINE",
"348 754 LINE"
);
}
);
width = 750;
}
);
note = Agrave;
unicode = 00C0;
},
{
glyphname = Ahookabove;
lastChange = "2015-07-16 19:12:08 +0000";
layers = (
{
components = (
{
name = A;
}
);
layerId = "A2C5D99E-4902-4090-BBD9-379E2297F70D";
name = Bold;
paths = (
{
closed = 1;
nodes = (
"397 750 LINE",
"404 798 LINE",
"448 814 OFFCURVE",
"474 843 OFFCURVE",
"474 881 CURVE SMOOTH",
"474 924 OFFCURVE",
"437 960 OFFCURVE",
"375 960 CURVE SMOOTH",
"349 960 OFFCURVE",
"319 951 OFFCURVE",
"301 944 CURVE",
"309 900 LINE",
"329 905 OFFCURVE",
"345 909 OFFCURVE",
"364 909 CURVE SMOOTH",
"387 909 OFFCURVE",
"396 899 OFFCURVE",
"396 880 CURVE SMOOTH",
"396 855 OFFCURVE",
"373 839 OFFCURVE",
"335 825 CURVE",
"343 750 LINE"
);
}
);
width = 750;
}
);
note = Ahookabove;
unicode = 1EA2;
},
{
glyphname = Amacron;
lastChange = "2015-07-16 19:12:08 +0000";
layers = (
{
components = (
{
name = A;
}
);
layerId = "A2C5D99E-4902-4090-BBD9-379E2297F70D";
name = Bold;
paths = (
{
closed = 1;
nodes = (
"514 785 LINE",
"514 864 LINE",
"220 864 LINE",
"220 785 LINE"
);
}
);
width = 750;
}
);
note = Amacron;
unicode = 0100;
},
{
glyphname = Aogonek;
lastChange = "2015-07-16 19:12:09 +0000";
layers = (
{
layerId = "A2C5D99E-4902-4090-BBD9-379E2297F70D";
name = Bold;
paths = (
{
closed = 1;
nodes = (
"647 -212 OFFCURVE",
"673 -207 OFFCURVE",
"693 -196 CURVE",
"684 -147 LINE",
"670 -150 OFFCURVE",
"657 -154 OFFCURVE",
"639 -154 CURVE SMOOTH",
"602 -154 OFFCURVE",
"582 -132 OFFCURVE",
"582 -102 CURVE SMOOTH",
"582 -62 OFFCURVE",
"616 -18 OFFCURVE",
"654 0 CURVE",
"734 0 LINE SMOOTH",
"746 0 OFFCURVE",
"749 10 OFFCURVE",
"749 22 CURVE SMOOTH",
"749 40 OFFCURVE",
"737 50 OFFCURVE",
"711 59 CURVE SMOOTH",
"673 72 LINE",
"441 695 LINE",
"305 695 LINE",
"73 72 LINE",
"56 72 LINE SMOOTH",
"23 72 OFFCURVE",
"1 58 OFFCURVE",
"1 30 CURVE SMOOTH",
"1 11 OFFCURVE",
"10 0 OFFCURVE",
"26 0 CURVE SMOOTH",
"248 0 LINE SMOOTH",
"258 0 OFFCURVE",
"263 7 OFFCURVE",
"263 19 CURVE SMOOTH",
"263 36 OFFCURVE",
"253 44 OFFCURVE",
"222 55 CURVE",
"167 72 LINE",
"217 209 LINE",
"496 209 LINE",
"547 72 LINE",
"515 72 LINE SMOOTH",
"482 72 OFFCURVE",
"460 58 OFFCURVE",
"460 30 CURVE SMOOTH",
"460 11 OFFCURVE",
"468 0 OFFCURVE",
"484 0 CURVE SMOOTH",
"573 0 LINE",
"527 -26 OFFCURVE",
"501 -66 OFFCURVE",
"501 -107 CURVE SMOOTH",
"501 -172 OFFCURVE",
"551 -212 OFFCURVE",
"625 -212 CURVE SMOOTH"
);
},
{
closed = 1;
nodes = (
"357 590 LINE",
"466 289 LINE",
"246 289 LINE"
);
}
);
width = 750;
}
);
note = Aogonek;
unicode = 0104;
},
{
glyphname = Aring;
lastChange = "2015-07-31 06:12:34 +0000";
layers = (
{
components = (
{
name = A;
}
);
layerId = "A2C5D99E-4902-4090-BBD9-379E2297F70D";
name = Bold;
paths = (
{
closed = 1;
nodes = (
"434 739 OFFCURVE",
"476 785 OFFCURVE",
"476 841 CURVE SMOOTH",
"476 896 OFFCURVE",
"434 942 OFFCURVE",
"368 942 CURVE SMOOTH",
"301 942 OFFCURVE",
"259 896 OFFCURVE",
"259 841 CURVE SMOOTH",
"259 785 OFFCURVE",
"301 739 OFFCURVE",
"368 739 CURVE SMOOTH"
);
},
{
closed = 1;
nodes = (
"343 796 OFFCURVE",
"324 812 OFFCURVE",
"324 841 CURVE SMOOTH",
"324 870 OFFCURVE",
"343 885 OFFCURVE",
"367 885 CURVE SMOOTH",
"391 885 OFFCURVE",
"411 870 OFFCURVE",
"411 841 CURVE SMOOTH",
"411 812 OFFCURVE",
"391 796 OFFCURVE",
"367 796 CURVE SMOOTH"
);
}
);
width = 750;
}
);
note = Aring;
unicode = 00C5;
},
{
glyphname = Aringacute;
lastChange = "2015-07-31 06:12:25 +0000";
layers = (
{
components = (
{
name = A;
}
);
layerId = "A2C5D99E-4902-4090-BBD9-379E2297F70D";
name = Bold;
paths = (
{
closed = 1;
nodes = (
"432 737 OFFCURVE",
"474 783 OFFCURVE",
"474 839 CURVE SMOOTH",
"474 894 OFFCURVE",
"432 940 OFFCURVE",
"366 940 CURVE SMOOTH",
"299 940 OFFCURVE",
"257 894 OFFCURVE",
"257 839 CURVE SMOOTH",
"257 783 OFFCURVE",
"299 737 OFFCURVE",
"366 737 CURVE SMOOTH"
);
},
{
closed = 1;
nodes = (
"341 794 OFFCURVE",
"322 810 OFFCURVE",
"322 839 CURVE SMOOTH",
"322 868 OFFCURVE",
"341 883 OFFCURVE",
"365 883 CURVE SMOOTH",
"389 883 OFFCURVE",
"409 868 OFFCURVE",
"409 839 CURVE SMOOTH",
"409 810 OFFCURVE",
"389 794 OFFCURVE",
"365 794 CURVE SMOOTH"
);
},
{
closed = 1;
nodes = (
"560 1117 LINE",
"472 1175 LINE",
"369 1012 LINE",
"437 967 LINE"
);
}
);
width = 750;
}
);
note = Aringacute;
unicode = 01FA;
},
{
glyphname = Atilde;
lastChange = "2015-07-16 19:12:08 +0000";
layers = (
{
components = (
{
name = A;
}
);
layerId = "A2C5D99E-4902-4090-BBD9-379E2297F70D";
name = Bold;
paths = (
{
closed = 1;
nodes = (
"471 764 OFFCURVE",
"507 783 OFFCURVE",
"538 814 CURVE",
"498 871 LINE",
"477 855 OFFCURVE",
"458 846 OFFCURVE",
"437 846 CURVE SMOOTH",
"394 846 OFFCURVE",
"357 885 OFFCURVE",
"312 885 CURVE SMOOTH",
"279 885 OFFCURVE",
"239 863 OFFCURVE",
"208 835 CURVE",
"248 778 LINE",
"268 792 OFFCURVE",
"286 803 OFFCURVE",
"312 803 CURVE SMOOTH",
"356 803 OFFCURVE",
"391 764 OFFCURVE",
"438 764 CURVE SMOOTH"
);
}
);
width = 750;
}
);
note = Atilde;
unicode = 00C3;
},
{
glyphname = AE;
lastChange = "2015-07-16 19:12:08 +0000";
layers = (
{
layerId = "A2C5D99E-4902-4090-BBD9-379E2297F70D";
name = Bold;
paths = (
{
closed = 1;
nodes = (
"264 0 LINE SMOOTH",
"274 0 OFFCURVE",
"278 7 OFFCURVE",
"278 19 CURVE SMOOTH",
"278 36 OFFCURVE",
"270 45 OFFCURVE",
"238 55 CURVE SMOOTH",
"182 72 LINE",
"281 209 LINE",
"567 209 LINE",
"567 79 LINE",
"547 74 LINE SMOOTH",
"506 64 OFFCURVE",
"491 50 OFFCURVE",
"491 25 CURVE SMOOTH",
"491 7 OFFCURVE",
"499 0 OFFCURVE",
"510 0 CURVE SMOOTH",
"1080 0 LINE",
"1080 157 LINE SMOOTH",
"1080 169 OFFCURVE",
"1075 177 OFFCURVE",
"1060 177 CURVE SMOOTH",
"1042 177 OFFCURVE",
"1031 159 OFFCURVE",
"1019 117 CURVE SMOOTH",
"1008 78 LINE",
"692 78 LINE",
"692 317 LINE",
"932 317 LINE",
"947 278 LINE SMOOTH",
"957 254 OFFCURVE",
"966 244 OFFCURVE",
"977 244 CURVE SMOOTH",
"991 244 OFFCURVE",
"996 252 OFFCURVE",
"996 262 CURVE SMOOTH",
"996 449 LINE SMOOTH",
"996 458 OFFCURVE",
"991 467 OFFCURVE",
"977 467 CURVE SMOOTH",
"966 467 OFFCURVE",
"956 456 OFFCURVE",
"947 433 CURVE SMOOTH",
"932 394 LINE",
"692 394 LINE",
"692 617 LINE",
"994 617 LINE",
"1005 579 LINE SMOOTH",
"1017 538 OFFCURVE",
"1028 519 OFFCURVE",
"1046 519 CURVE SMOOTH",
"1061 519 OFFCURVE",
"1066 527 OFFCURVE",
"1066 539 CURVE SMOOTH",
"1066 695 LINE",
"406 695 LINE SMOOTH",
"396 695 OFFCURVE",
"386 688 OFFCURVE",
"386 670 CURVE SMOOTH",
"386 645 OFFCURVE",
"402 633 OFFCURVE",
"441 622 CURVE SMOOTH",
"462 616 LINE",
"75 72 LINE",
"58 72 LINE SMOOTH",
"25 72 OFFCURVE",
"3 58 OFFCURVE",
"3 30 CURVE SMOOTH",
"3 11 OFFCURVE",
"12 0 OFFCURVE",
"28 0 CURVE SMOOTH"
);
},
{
closed = 1;
nodes = (
"567 613 LINE",
"567 289 LINE",
"335 289 LINE"
);
}
);
width = 1143;
}
);
note = AE;
unicode = 00C6;
},
{
glyphname = AEacute;
lastChange = "2015-07-16 19:12:08 +0000";
layers = (
{
layerId = "A2C5D99E-4902-4090-BBD9-379E2297F70D";
name = Bold;
paths = (
{
closed = 1;
nodes = (
"264 0 LINE SMOOTH",
"274 0 OFFCURVE",
"278 7 OFFCURVE",
"278 19 CURVE SMOOTH",
"278 36 OFFCURVE",
"270 45 OFFCURVE",
"238 55 CURVE SMOOTH",
"182 72 LINE",
"281 209 LINE",
"567 209 LINE",
"567 79 LINE",
"547 74 LINE SMOOTH",
"506 64 OFFCURVE",
"491 50 OFFCURVE",
"491 25 CURVE SMOOTH",
"491 7 OFFCURVE",
"499 0 OFFCURVE",
"510 0 CURVE SMOOTH",
"1080 0 LINE",
"1080 157 LINE SMOOTH",
"1080 169 OFFCURVE",
"1075 177 OFFCURVE",
"1060 177 CURVE SMOOTH",
"1042 177 OFFCURVE",
"1031 159 OFFCURVE",
"1019 117 CURVE SMOOTH",
"1008 78 LINE",
"692 78 LINE",
"692 317 LINE",
"932 317 LINE",
"947 278 LINE SMOOTH",
"957 254 OFFCURVE",
"966 244 OFFCURVE",
"977 244 CURVE SMOOTH",
"991 244 OFFCURVE",
"996 252 OFFCURVE",
"996 262 CURVE SMOOTH",
"996 449 LINE SMOOTH",
"996 458 OFFCURVE",
"991 467 OFFCURVE",
"977 467 CURVE SMOOTH",
"966 467 OFFCURVE",
"955 453 OFFCURVE",
"947 433 CURVE SMOOTH",
"932 394 LINE",
"692 394 LINE",
"692 617 LINE",
"994 617 LINE",
"1005 579 LINE SMOOTH",
"1017 538 OFFCURVE",
"1028 519 OFFCURVE",
"1046 519 CURVE SMOOTH",
"1061 519 OFFCURVE",
"1066 527 OFFCURVE",
"1066 539 CURVE SMOOTH",
"1066 695 LINE",
"406 695 LINE SMOOTH",
"396 695 OFFCURVE",
"386 688 OFFCURVE",
"386 670 CURVE SMOOTH",
"386 645 OFFCURVE",
"402 633 OFFCURVE",
"441 622 CURVE SMOOTH",
"462 616 LINE",
"75 72 LINE",
"58 72 LINE SMOOTH",
"25 72 OFFCURVE",
"3 58 OFFCURVE",
"3 30 CURVE SMOOTH",
"3 11 OFFCURVE",
"12 0 OFFCURVE",
"28 0 CURVE SMOOTH"
);
},
{
closed = 1;
nodes = (
"567 613 LINE",
"567 289 LINE",
"335 289 LINE"
);
},
{
closed = 1;
nodes = (
"863 912 LINE",
"775 970 LINE",
"672 797 LINE",
"740 753 LINE"
);
}
);
width = 1143;
}
);
note = AEacute;
unicode = 01FC;
},
{
glyphname = B;
lastChange = "2015-07-16 19:12:08 +0000";
layers = (
{
layerId = "A2C5D99E-4902-4090-BBD9-379E2297F70D";
name = Bold;
paths = (
{
closed = 1;
nodes = (
"432 0 LINE SMOOTH",
"574 0 OFFCURVE",
"668 70 OFFCURVE",
"668 194 CURVE SMOOTH",
"668 274 OFFCURVE",
"618 337 OFFCURVE",
"530 362 CURVE",
"530 366 LINE",
"592 391 OFFCURVE",
"629 444 OFFCURVE",
"629 508 CURVE SMOOTH",
"629 622 OFFCURVE",
"548 695 OFFCURVE",
"395 695 CURVE SMOOTH",
"70 695 LINE SMOOTH",
"59 695 OFFCURVE",
"51 688 OFFCURVE",
"51 670 CURVE SMOOTH",
"51 645 OFFCURVE",
"67 631 OFFCURVE",
"107 621 CURVE SMOOTH",
"127 616 LINE",
"127 79 LINE",
"107 74 LINE SMOOTH",
"67 64 OFFCURVE",
"51 50 OFFCURVE",
"51 25 CURVE SMOOTH",
"51 7 OFFCURVE",
"59 0 OFFCURVE",
"70 0 CURVE SMOOTH"
);
},
{
closed = 1;
nodes = (
"252 318 LINE",
"418 318 LINE SMOOTH",
"499 318 OFFCURVE",
"543 269 OFFCURVE",
"543 196 CURVE SMOOTH",
"543 122 OFFCURVE",
"500 78 OFFCURVE",
"415 78 CURVE SMOOTH",
"252 78 LINE"
);
},
{
closed = 1;
nodes = (
"252 617 LINE",
"389 617 LINE SMOOTH",
"464 617 OFFCURVE",
"504 571 OFFCURVE",
"504 505 CURVE SMOOTH",
"504 440 OFFCURVE",
"463 395 OFFCURVE",
"396 395 CURVE SMOOTH",
"252 395 LINE"
);
}
);
width = 718;
}
);
note = B;
unicode = 0042;
},
{
glyphname = C;
lastChange = "2015-07-16 19:12:08 +0000";
layers = (
{
layerId = "A2C5D99E-4902-4090-BBD9-379E2297F70D";
name = Bold;
paths = (
{
closed = 1;
nodes = (
"487 -14 OFFCURVE",
"553 13 OFFCURVE",
"588 36 CURVE SMOOTH",
"606 48 OFFCURVE",
"622 63 OFFCURVE",
"622 86 CURVE SMOOTH",
"622 107 OFFCURVE",
"606 122 OFFCURVE",
"589 122 CURVE SMOOTH",
"580 122 OFFCURVE",
"570 116 OFFCURVE",
"554 105 CURVE SMOOTH",
"508 73 OFFCURVE",
"465 66 OFFCURVE",
"405 66 CURVE SMOOTH",
"271 66 OFFCURVE",
"167 162 OFFCURVE",
"167 349 CURVE SMOOTH",
"167 534 OFFCURVE",
"264 629 OFFCURVE",
"399 629 CURVE SMOOTH",
"459 629 OFFCURVE",
"507 613 OFFCURVE",
"532 597 CURVE",
"551 528 LINE SMOOTH",
"560 494 OFFCURVE",
"570 478 OFFCURVE",
"592 478 CURVE SMOOTH",
"610 478 OFFCURVE",
"614 488 OFFCURVE",
"614 500 CURVE SMOOTH",
"614 633 LINE",
"564 674 OFFCURVE",
"483 709 OFFCURVE",
"377 709 CURVE SMOOTH",
"201 709 OFFCURVE",
"40 588 OFFCURVE",
"40 349 CURVE SMOOTH",
"40 107 OFFCURVE",
"197 -14 OFFCURVE",
"388 -14 CURVE SMOOTH"
);
}
);
width = 668;
}
);
note = C;
unicode = 0043;
},
{
glyphname = Cacute;
lastChange = "2015-07-16 19:12:08 +0000";
layers = (
{
components = (
{
name = C;
}
);
layerId = "A2C5D99E-4902-4090-BBD9-379E2297F70D";
name = Bold;
paths = (
{
closed = 1;
nodes = (
"489 913 LINE",
"401 971 LINE",
"298 798 LINE",
"365 754 LINE"
);
}
);
width = 668;
}
);
note = Cacute;
unicode = 0106;
},
{
glyphname = Ccaron;
lastChange = "2015-07-16 19:12:08 +0000";
layers = (
{
components = (
{
name = C;
}
);
layerId = "A2C5D99E-4902-4090-BBD9-379E2297F70D";
name = Bold;
paths = (
{
closed = 1;
nodes = (
"388 753 LINE",
"506 906 LINE",
"454 952 LINE",
"359 845 LINE",
"264 952 LINE",
"212 906 LINE",
"331 753 LINE"
);
}
);
width = 668;
}
);
note = Ccaron;
unicode = 010C;
},
{
glyphname = Ccedilla;
lastChange = "2015-07-16 19:12:08 +0000";
layers = (
{
layerId = "A2C5D99E-4902-4090-BBD9-379E2297F70D";
name = Bold;
paths = (
{
closed = 1;
nodes = (
"387 -212 OFFCURVE",
"450 -171 OFFCURVE",
"450 -122 CURVE SMOOTH",
"450 -88 OFFCURVE",
"429 -68 OFFCURVE",
"401 -57 CURVE",
"420 -13 LINE",
"501 -8 OFFCURVE",
"557 16 OFFCURVE",
"588 36 CURVE SMOOTH",
"606 48 OFFCURVE",
"622 63 OFFCURVE",
"622 86 CURVE SMOOTH",
"622 107 OFFCURVE",
"606 122 OFFCURVE",
"589 122 CURVE SMOOTH",
"580 122 OFFCURVE",
"571 117 OFFCURVE",
"554 105 CURVE SMOOTH",
"513 77 OFFCURVE",
"465 66 OFFCURVE",
"405 66 CURVE SMOOTH",
"271 66 OFFCURVE",
"167 162 OFFCURVE",
"167 349 CURVE SMOOTH",
"167 534 OFFCURVE",
"264 629 OFFCURVE",
"399 629 CURVE SMOOTH",
"459 629 OFFCURVE",
"507 613 OFFCURVE",
"532 597 CURVE",
"551 528 LINE SMOOTH",
"560 494 OFFCURVE",
"570 478 OFFCURVE",
"592 478 CURVE SMOOTH",
"610 478 OFFCURVE",
"614 488 OFFCURVE",
"614 500 CURVE SMOOTH",
"614 633 LINE",
"564 674 OFFCURVE",
"483 709 OFFCURVE",
"377 709 CURVE SMOOTH",
"201 709 OFFCURVE",
"40 588 OFFCURVE",
"40 349 CURVE SMOOTH",
"40 126 OFFCURVE",
"173 6 OFFCURVE",
"344 -12 CURVE",
"324 -69 LINE",
"354 -78 OFFCURVE",
"367 -94 OFFCURVE",
"367 -119 CURVE SMOOTH",
"367 -146 OFFCURVE",
"347 -170 OFFCURVE",
"300 -185 CURVE",
"316 -225 LINE"
);
}
);
width = 668;
}
);
note = Ccedilla;
unicode = 00C7;
},
{
glyphname = Ccircumflex;
lastChange = "2015-07-16 19:12:08 +0000";
layers = (
{
components = (
{
name = C;
}
);
layerId = "A2C5D99E-4902-4090-BBD9-379E2297F70D";
name = Bold;
paths = (
{
closed = 1;
nodes = (
"360 860 LINE",
"455 753 LINE",
"507 798 LINE",
"389 952 LINE",
"332 952 LINE",
"213 798 LINE",
"265 753 LINE"
);
}
);
width = 668;
}
);
note = Ccircumflex;
unicode = 0108;
},
{
glyphname = Cdotaccent;
lastChange = "2015-07-31 06:13:05 +0000";
layers = (
{
components = (
{
name = C;
}
);
layerId = "A2C5D99E-4902-4090-BBD9-379E2297F70D";
name = Bold;
paths = (
{
closed = 1;
nodes = (
"413 770 OFFCURVE",
"442 797 OFFCURVE",
"442 834 CURVE SMOOTH",
"442 870 OFFCURVE",
"413 897 OFFCURVE",
"379 897 CURVE SMOOTH",
"344 897 OFFCURVE",
"316 870 OFFCURVE",
"316 834 CURVE SMOOTH",
"316 797 OFFCURVE",
"344 770 OFFCURVE",
"379 770 CURVE SMOOTH"
);
}
);
width = 668;
}
);
note = Cdotaccent;
unicode = 010A;
},
{
glyphname = D;
lastChange = "2015-07-16 19:12:08 +0000";
layers = (
{
layerId = "A2C5D99E-4902-4090-BBD9-379E2297F70D";
name = Bold;
paths = (
{
closed = 1;
nodes = (
"380 0 LINE SMOOTH",
"566 0 OFFCURVE",
"719 104 OFFCURVE",
"719 346 CURVE SMOOTH",
"719 588 OFFCURVE",
"566 695 OFFCURVE",
"380 695 CURVE SMOOTH",
"70 695 LINE SMOOTH",
"59 695 OFFCURVE",
"51 688 OFFCURVE",
"51 670 CURVE SMOOTH",
"51 645 OFFCURVE",
"67 631 OFFCURVE",
"107 621 CURVE SMOOTH",
"127 616 LINE",
"127 79 LINE",
"107 74 LINE SMOOTH",
"67 64 OFFCURVE",
"51 50 OFFCURVE",
"51 25 CURVE SMOOTH",
"51 7 OFFCURVE",
"59 0 OFFCURVE",
"70 0 CURVE SMOOTH"
);
},
{
closed = 1;
nodes = (
"252 615 LINE",
"380 615 LINE SMOOTH",
"518 615 OFFCURVE",
"593 513 OFFCURVE",
"593 346 CURVE SMOOTH",
"593 179 OFFCURVE",
"518 80 OFFCURVE",
"380 80 CURVE SMOOTH",
"252 80 LINE"
);
}
);
width = 760;
}
);
note = D;
unicode = 0044;
},
{
glyphname = Eth;
lastChange = "2015-07-16 19:12:08 +0000";
layers = (
{
layerId = "A2C5D99E-4902-4090-BBD9-379E2297F70D";
name = Bold;
paths = (
{
closed = 1;
nodes = (
"382 0 LINE SMOOTH",
"568 0 OFFCURVE",
"721 104 OFFCURVE",
"721 346 CURVE SMOOTH",
"721 588 OFFCURVE",
"568 695 OFFCURVE",
"382 695 CURVE SMOOTH",
"72 695 LINE SMOOTH",
"61 695 OFFCURVE",
"53 688 OFFCURVE",
"53 670 CURVE SMOOTH",
"53 645 OFFCURVE",
"70 634 OFFCURVE",
"109 622 CURVE SMOOTH",
"129 616 LINE",
"129 394 LINE",
"61 394 LINE",
"61 314 LINE",
"129 314 LINE",
"129 79 LINE",
"109 73 LINE SMOOTH",
"70 61 OFFCURVE",
"53 50 OFFCURVE",
"53 25 CURVE SMOOTH",
"53 7 OFFCURVE",
"61 0 OFFCURVE",
"72 0 CURVE SMOOTH"
);
},
{
closed = 1;
nodes = (
"254 314 LINE",
"426 314 LINE",
"426 394 LINE",
"254 394 LINE",
"254 615 LINE",
"382 615 LINE SMOOTH",
"520 615 OFFCURVE",
"595 513 OFFCURVE",
"595 346 CURVE SMOOTH",
"595 179 OFFCURVE",
"520 80 OFFCURVE",
"382 80 CURVE SMOOTH",
"254 80 LINE"
);
}
);
width = 762;
}
);
note = Eth;
unicode = 00D0;
},
{
glyphname = Dcaron;
lastChange = "2015-07-16 19:12:08 +0000";
layers = (
{
components = (
{
name = D;
}
);
layerId = "A2C5D99E-4902-4090-BBD9-379E2297F70D";
name = Bold;
paths = (
{
closed = 1;
nodes = (
"374 753 LINE",
"492 906 LINE",
"440 952 LINE",
"345 845 LINE",
"250 952 LINE",
"198 906 LINE",
"317 753 LINE"
);
}
);
width = 760;
}
);
note = Dcaron;
unicode = 010E;
},
{
glyphname = Dcroat;
lastChange = "2015-07-16 19:12:08 +0000";
layers = (
{
layerId = "A2C5D99E-4902-4090-BBD9-379E2297F70D";
name = Bold;
paths = (
{
closed = 1;
nodes = (
"382 0 LINE SMOOTH",
"568 0 OFFCURVE",
"721 104 OFFCURVE",
"721 346 CURVE SMOOTH",
"721 588 OFFCURVE",
"568 695 OFFCURVE",
"382 695 CURVE SMOOTH",
"72 695 LINE SMOOTH",
"61 695 OFFCURVE",
"53 688 OFFCURVE",
"53 670 CURVE SMOOTH",
"53 645 OFFCURVE",
"70 634 OFFCURVE",
"109 622 CURVE SMOOTH",
"129 616 LINE",
"129 394 LINE",
"61 394 LINE",
"61 314 LINE",
"129 314 LINE",
"129 79 LINE",
"109 73 LINE SMOOTH",
"70 61 OFFCURVE",
"53 50 OFFCURVE",
"53 25 CURVE SMOOTH",
"53 7 OFFCURVE",
"61 0 OFFCURVE",
"72 0 CURVE SMOOTH"
);
},
{
closed = 1;
nodes = (
"254 314 LINE",
"426 314 LINE",
"426 394 LINE",
"254 394 LINE",
"254 615 LINE",
"382 615 LINE SMOOTH",
"520 615 OFFCURVE",
"595 513 OFFCURVE",
"595 346 CURVE SMOOTH",
"595 179 OFFCURVE",
"520 80 OFFCURVE",
"382 80 CURVE SMOOTH",
"254 80 LINE"
);
}
);
width = 762;
}
);
note = Dcroat;
unicode = 0110;
},
{
glyphname = Ddotbelow;
lastChange = "2015-07-16 19:12:08 +0000";
layers = (
{
components = (
{
name = D;
}
);
layerId = "A2C5D99E-4902-4090-BBD9-379E2297F70D";
name = Bold;
paths = (
{
closed = 1;
nodes = (
"412 -192 OFFCURVE",
"441 -166 OFFCURVE",
"441 -129 CURVE SMOOTH",
"441 -93 OFFCURVE",
"412 -66 OFFCURVE",
"378 -66 CURVE SMOOTH",
"343 -66 OFFCURVE",
"315 -93 OFFCURVE",
"315 -129 CURVE SMOOTH",
"315 -166 OFFCURVE",
"343 -192 OFFCURVE",
"378 -192 CURVE SMOOTH"
);
}
);
width = 760;
}
);
note = Ddotbelow;
unicode = 1E0C;
},
{
glyphname = Dlinebelow;
lastChange = "2015-07-16 19:12:08 +0000";
layers = (
{
components = (
{
name = D;
}
);
layerId = "A2C5D99E-4902-4090-BBD9-379E2297F70D";
name = Bold;
paths = (
{
closed = 1;
nodes = (
"564 -167 LINE",
"564 -88 LINE",
"163 -88 LINE",
"163 -167 LINE"
);
}
);
width = 760;
}
);
note = Dlinebelow;
unicode = 1E0E;
},
{
glyphname = E;
lastChange = "2015-07-16 19:12:08 +0000";
layers = (
{
layerId = "A2C5D99E-4902-4090-BBD9-379E2297F70D";
name = Bold;
paths = (
{
closed = 1;
nodes = (
"648 0 LINE",
"648 157 LINE SMOOTH",
"648 169 OFFCURVE",
"644 177 OFFCURVE",
"628 177 CURVE SMOOTH",
"611 177 OFFCURVE",
"599 159 OFFCURVE",
"587 117 CURVE SMOOTH",
"576 78 LINE",
"252 78 LINE",
"252 317 LINE",
"500 317 LINE",
"515 278 LINE SMOOTH",
"525 254 OFFCURVE",
"534 244 OFFCURVE",
"546 244 CURVE SMOOTH",
"559 244 OFFCURVE",
"564 252 OFFCURVE",
"564 262 CURVE SMOOTH",
"564 449 LINE SMOOTH",
"564 458 OFFCURVE",
"559 467 OFFCURVE",
"546 467 CURVE SMOOTH",
"534 467 OFFCURVE",
"524 456 OFFCURVE",
"515 433 CURVE SMOOTH",
"500 394 LINE",
"252 394 LINE",
"252 617 LINE",
"562 617 LINE",
"573 579 LINE SMOOTH",
"585 538 OFFCURVE",
"596 519 OFFCURVE",
"614 519 CURVE SMOOTH",
"629 519 OFFCURVE",
"634 527 OFFCURVE",
"634 539 CURVE SMOOTH",
"634 695 LINE",
"70 695 LINE SMOOTH",
"59 695 OFFCURVE",
"51 688 OFFCURVE",
"51 670 CURVE SMOOTH",
"51 645 OFFCURVE",
"68 631 OFFCURVE",
"107 621 CURVE SMOOTH",
"127 616 LINE",
"127 79 LINE",
"107 74 LINE SMOOTH",
"67 64 OFFCURVE",
"51 50 OFFCURVE",
"51 25 CURVE SMOOTH",
"51 7 OFFCURVE",
"59 0 OFFCURVE",
"70 0 CURVE SMOOTH"
);
}
);
width = 711;
}
);
note = E;
unicode = 0045;
},
{
glyphname = Eacute;
lastChange = "2015-07-16 19:12:08 +0000";
layers = (
{
components = (
{
name = E;
}
);
layerId = "A2C5D99E-4902-4090-BBD9-379E2297F70D";
name = Bold;
paths = (
{
closed = 1;
nodes = (
"478 913 LINE",
"390 971 LINE",
"287 798 LINE",
"355 754 LINE"
);
}
);
width = 711;
}
);
note = Eacute;
unicode = 00C9;
},
{
glyphname = Ebreve;
lastChange = "2015-07-16 19:12:08 +0000";
layers = (
{
components = (
{
name = E;
}
);
layerId = "A2C5D99E-4902-4090-BBD9-379E2297F70D";
name = Bold;
paths = (
{
closed = 1;
nodes = (
"424 747 OFFCURVE",
"491 785 OFFCURVE",
"518 882 CURVE",
"454 905 LINE",
"437 856 OFFCURVE",
"401 827 OFFCURVE",
"354 827 CURVE SMOOTH",
"307 827 OFFCURVE",
"270 856 OFFCURVE",
"254 905 CURVE",
"189 882 LINE",
"216 785 OFFCURVE",
"283 747 OFFCURVE",
"354 747 CURVE SMOOTH"
);
}
);
width = 711;
}
);
note = Ebreve;
unicode = 0114;
},
{
glyphname = Ecaron;
lastChange = "2015-07-16 19:12:08 +0000";
layers = (
{
components = (
{
name = E;
}
);
layerId = "A2C5D99E-4902-4090-BBD9-379E2297F70D";
name = Bold;
paths = (
{
closed = 1;
nodes = (
"386 753 LINE",
"504 906 LINE",
"452 952 LINE",
"357 845 LINE",
"262 952 LINE",
"210 906 LINE",
"329 753 LINE"
);
}
);
width = 711;
}
);
note = Ecaron;
unicode = 011A;
},
{
glyphname = Ecircumflex;
lastChange = "2015-07-16 19:12:08 +0000";
layers = (
{
components = (
{
name = E;
}
);
layerId = "A2C5D99E-4902-4090-BBD9-379E2297F70D";
name = Bold;
paths = (
{
closed = 1;
nodes = (
"355 860 LINE",
"450 753 LINE",
"502 798 LINE",
"384 952 LINE",
"327 952 LINE",
"208 798 LINE",
"260 753 LINE"
);
}
);
width = 711;
}
);
note = Ecircumflex;
unicode = 00CA;
},
{
glyphname = Ecircumflexacute;
lastChange = "2015-07-16 19:12:08 +0000";
layers = (
{
components = (
{
name = E;
}
);
layerId = "A2C5D99E-4902-4090-BBD9-379E2297F70D";
name = Bold;
paths = (
{
closed = 1;
nodes = (
"362 860 LINE",
"457 753 LINE",
"509 798 LINE",
"391 952 LINE",
"334 952 LINE",
"215 798 LINE",
"267 753 LINE"
);
},
{
closed = 1;
nodes = (
"614 979 LINE",
"535 1031 LINE",
"468 909 LINE",
"520 873 LINE"
);
}
);
width = 711;
}
);
note = Ecircumflexacute;
unicode = 1EBE;
},
{
glyphname = Ecircumflexdotbelow;
lastChange = "2015-07-16 19:12:08 +0000";
layers = (
{
components = (
{
name = E;
}
);
layerId = "A2C5D99E-4902-4090-BBD9-379E2297F70D";
name = Bold;
paths = (
{
closed = 1;
nodes = (
"399 -192 OFFCURVE",
"428 -166 OFFCURVE",
"428 -129 CURVE SMOOTH",
"428 -93 OFFCURVE",
"399 -66 OFFCURVE",
"365 -66 CURVE SMOOTH",
"330 -66 OFFCURVE",
"302 -93 OFFCURVE",
"302 -129 CURVE SMOOTH",
"302 -166 OFFCURVE",
"330 -192 OFFCURVE",
"365 -192 CURVE SMOOTH"
);
},
{
closed = 1;
nodes = (
"355 860 LINE",
"450 753 LINE",
"502 798 LINE",
"384 952 LINE",
"327 952 LINE",
"208 798 LINE",
"260 753 LINE"
);
}
);
width = 711;
}
);
note = Ecircumflexdotbelow;
unicode = 1EC6;
},
{
glyphname = Ecircumflexgrave;
lastChange = "2015-07-16 19:12:08 +0000";
layers = (
{
components = (
{
name = E;
}
);
layerId = "A2C5D99E-4902-4090-BBD9-379E2297F70D";
name = Bold;
paths = (
{
closed = 1;
nodes = (
"260 909 LINE",
"193 1031 LINE",
"114 979 LINE",
"208 873 LINE"
);
},
{
closed = 1;
nodes = (
"365 860 LINE",
"460 753 LINE",
"512 798 LINE",
"394 952 LINE",
"337 952 LINE",
"218 798 LINE",
"270 753 LINE"
);
}
);
width = 711;
}
);
note = Ecircumflexgrave;
unicode = 1EC0;
},
{
glyphname = Ecircumflexhookabove;
lastChange = "2015-07-16 19:12:08 +0000";
layers = (
{
components = (
{
name = E;
}
);
layerId = "A2C5D99E-4902-4090-BBD9-379E2297F70D";
name = Bold;
paths = (
{
closed = 1;
nodes = (
"346 860 LINE",
"441 753 LINE",
"493 798 LINE",
"375 952 LINE",
"318 952 LINE",
"199 798 LINE",
"251 753 LINE"
);
},
{
closed = 1;
nodes = (
"542 872 LINE",
"548 919 LINE",
"592 934 OFFCURVE",
"618 963 OFFCURVE",
"618 1001 CURVE SMOOTH",
"618 1043 OFFCURVE",
"581 1079 OFFCURVE",
"520 1079 CURVE SMOOTH",
"495 1079 OFFCURVE",
"464 1070 OFFCURVE",
"447 1063 CURVE",
"455 1019 LINE",
"474 1024 OFFCURVE",
"491 1028 OFFCURVE",
"509 1028 CURVE SMOOTH",
"531 1028 OFFCURVE",
"541 1018 OFFCURVE",
"541 1000 CURVE SMOOTH",
"541 976 OFFCURVE",
"518 960 OFFCURVE",
"481 946 CURVE",
"488 872 LINE"
);
}
);
width = 711;
}
);
note = Ecircumflexhookabove;
unicode = 1EC2;
},
{
glyphname = Ecircumflextilde;
lastChange = "2015-07-16 19:12:08 +0000";
layers = (
{
components = (
{
name = E;
}
);
layerId = "A2C5D99E-4902-4090-BBD9-379E2297F70D";
name = Bold;
paths = (
{
closed = 1;
nodes = (
"362 860 LINE",
"457 753 LINE",
"509 798 LINE",
"391 952 LINE",
"334 952 LINE",
"215 798 LINE",
"267 753 LINE"
);
},
{
closed = 1;
nodes = (
"443 981 OFFCURVE",
"472 997 OFFCURVE",
"497 1022 CURVE",
"464 1069 LINE",
"448 1057 OFFCURVE",
"433 1050 OFFCURVE",
"415 1050 CURVE SMOOTH",
"381 1050 OFFCURVE",
"352 1081 OFFCURVE",
"315 1081 CURVE SMOOTH",
"289 1081 OFFCURVE",
"257 1063 OFFCURVE",
"232 1041 CURVE",
"265 992 LINE",
"280 1004 OFFCURVE",
"294 1013 OFFCURVE",
"315 1013 CURVE SMOOTH",
"350 1013 OFFCURVE",
"378 981 OFFCURVE",
"416 981 CURVE SMOOTH"
);
}
);
width = 711;
}
);
note = Ecircumflextilde;
unicode = 1EC4;
},
{
glyphname = Edieresis;
lastChange = "2015-07-16 19:12:09 +0000";
layers = (
{
components = (
{
name = E;
}
);
layerId = "A2C5D99E-4902-4090-BBD9-379E2297F70D";
name = Bold;
paths = (
{
closed = 1;
nodes = (
"299 764 OFFCURVE",
"327 790 OFFCURVE",
"327 827 CURVE SMOOTH",
"327 863 OFFCURVE",
"299 890 OFFCURVE",
"265 890 CURVE SMOOTH",
"231 890 OFFCURVE",
"202 863 OFFCURVE",
"202 827 CURVE SMOOTH",
"202 790 OFFCURVE",
"231 764 OFFCURVE",
"265 764 CURVE SMOOTH"
);
},
{
closed = 1;
nodes = (
"504 764 OFFCURVE",
"532 790 OFFCURVE",
"532 827 CURVE SMOOTH",
"532 863 OFFCURVE",
"504 890 OFFCURVE",
"470 890 CURVE SMOOTH",
"436 890 OFFCURVE",
"407 863 OFFCURVE",
"407 827 CURVE SMOOTH",
"407 790 OFFCURVE",
"436 764 OFFCURVE",
"470 764 CURVE SMOOTH"
);
}
);
width = 711;
}
);
note = Edieresis;
unicode = 00CB;
},
{
glyphname = Edotaccent;
lastChange = "2015-07-16 19:12:08 +0000";
layers = (
{
components = (
{
name = E;
}
);
layerId = "A2C5D99E-4902-4090-BBD9-379E2297F70D";
name = Bold;
paths = (
{
closed = 1;
nodes = (
"396 770 OFFCURVE",
"425 797 OFFCURVE",
"425 834 CURVE SMOOTH",
"425 870 OFFCURVE",
"396 897 OFFCURVE",
"362 897 CURVE SMOOTH",
"327 897 OFFCURVE",
"299 870 OFFCURVE",
"299 834 CURVE SMOOTH",
"299 797 OFFCURVE",
"327 770 OFFCURVE",
"362 770 CURVE SMOOTH"
);
}
);
width = 711;
}
);
note = Edotaccent;
unicode = 0116;
},
{
glyphname = Edotbelow;
lastChange = "2015-07-16 19:12:09 +0000";
layers = (
{
components = (
{
name = E;
}
);
layerId = "A2C5D99E-4902-4090-BBD9-379E2297F70D";
name = Bold;
paths = (
{
closed = 1;
nodes = (
"407 -192 OFFCURVE",
"436 -166 OFFCURVE",
"436 -129 CURVE SMOOTH",
"436 -93 OFFCURVE",
"407 -66 OFFCURVE",
"373 -66 CURVE SMOOTH",
"338 -66 OFFCURVE",
"310 -93 OFFCURVE",
"310 -129 CURVE SMOOTH",
"310 -166 OFFCURVE",
"338 -192 OFFCURVE",
"373 -192 CURVE SMOOTH"
);
}
);
width = 711;
}
);
note = Edotbelow;
unicode = 1EB8;
},
{
glyphname = Egrave;
lastChange = "2015-07-16 19:12:08 +0000";
layers = (
{
components = (
{
name = E;
}
);
layerId = "A2C5D99E-4902-4090-BBD9-379E2297F70D";
name = Bold;
paths = (
{
closed = 1;
nodes = (
"427 798 LINE",
"325 971 LINE",
"236 913 LINE",
"360 754 LINE"
);
}
);
width = 711;
}
);
note = Egrave;
unicode = 00C8;
},
{
glyphname = Ehookabove;
lastChange = "2015-07-16 19:12:08 +0000";
layers = (
{
components = (
{
name = E;
}
);
layerId = "A2C5D99E-4902-4090-BBD9-379E2297F70D";
name = Bold;
paths = (
{
closed = 1;
nodes = (
"388 750 LINE",
"395 798 LINE",
"439 814 OFFCURVE",
"465 843 OFFCURVE",
"465 881 CURVE SMOOTH",
"465 924 OFFCURVE",
"428 960 OFFCURVE",
"366 960 CURVE SMOOTH",
"340 960 OFFCURVE",
"310 951 OFFCURVE",
"292 944 CURVE",
"300 900 LINE",
"320 905 OFFCURVE",
"336 909 OFFCURVE",
"355 909 CURVE SMOOTH",
"378 909 OFFCURVE",
"387 899 OFFCURVE",
"387 880 CURVE SMOOTH",
"387 855 OFFCURVE",
"364 839 OFFCURVE",
"326 825 CURVE",
"334 750 LINE"
);
}
);
width = 711;
}
);
note = Ehookabove;
unicode = 1EBA;
},
{
glyphname = Emacron;
lastChange = "2015-07-16 19:12:08 +0000";
layers = (
{
components = (
{
name = E;
}
);
layerId = "A2C5D99E-4902-4090-BBD9-379E2297F70D";
name = Bold;
paths = (
{
closed = 1;
nodes = (
"506 785 LINE",
"506 864 LINE",
"212 864 LINE",
"212 785 LINE"
);
}
);
width = 711;
}
);
note = Emacron;
unicode = 0112;
},
{
glyphname = Eogonek;
lastChange = "2015-07-16 19:12:08 +0000";
layers = (
{
layerId = "A2C5D99E-4902-4090-BBD9-379E2297F70D";
name = Bold;
paths = (
{
closed = 1;
nodes = (
"601 -212 OFFCURVE",
"627 -207 OFFCURVE",
"647 -196 CURVE",
"638 -147 LINE",
"624 -150 OFFCURVE",
"611 -154 OFFCURVE",
"593 -154 CURVE SMOOTH",
"556 -154 OFFCURVE",
"536 -132 OFFCURVE",
"536 -102 CURVE SMOOTH",
"536 -62 OFFCURVE",
"570 -18 OFFCURVE",
"608 0 CURVE",
"648 0 LINE",
"648 157 LINE SMOOTH",
"648 169 OFFCURVE",
"644 177 OFFCURVE",
"628 177 CURVE SMOOTH",
"611 177 OFFCURVE",
"601 158 OFFCURVE",
"588 117 CURVE SMOOTH",
"576 78 LINE",
"252 78 LINE",
"252 317 LINE",
"500 317 LINE",
"516 278 LINE",
"526 254 OFFCURVE",
"534 244 OFFCURVE",
"546 244 CURVE SMOOTH",
"559 244 OFFCURVE",
"564 252 OFFCURVE",
"564 262 CURVE SMOOTH",
"564 449 LINE SMOOTH",
"564 458 OFFCURVE",
"559 467 OFFCURVE",
"546 467 CURVE SMOOTH",
"534 467 OFFCURVE",
"526 456 OFFCURVE",
"516 433 CURVE SMOOTH",
"500 394 LINE",
"252 394 LINE",
"252 617 LINE",
"562 617 LINE",
"574 579 LINE SMOOTH",
"587 539 OFFCURVE",
"596 519 OFFCURVE",
"614 519 CURVE SMOOTH",
"629 519 OFFCURVE",
"634 527 OFFCURVE",
"634 539 CURVE SMOOTH",
"634 695 LINE",
"70 695 LINE SMOOTH",
"59 695 OFFCURVE",
"51 688 OFFCURVE",
"51 670 CURVE SMOOTH",
"51 645 OFFCURVE",
"67 634 OFFCURVE",
"107 622 CURVE SMOOTH",
"127 616 LINE",
"127 79 LINE",
"107 73 LINE SMOOTH",
"68 61 OFFCURVE",
"51 50 OFFCURVE",
"51 25 CURVE SMOOTH",
"51 7 OFFCURVE",
"59 0 OFFCURVE",
"70 0 CURVE SMOOTH",
"527 0 LINE",
"481 -26 OFFCURVE",
"455 -66 OFFCURVE",
"455 -107 CURVE SMOOTH",
"455 -172 OFFCURVE",
"505 -212 OFFCURVE",
"579 -212 CURVE SMOOTH"
);
}
);
width = 711;
}
);
note = Eogonek;
unicode = 0118;
},
{
glyphname = Etilde;
lastChange = "2015-07-16 19:12:08 +0000";
layers = (
{
components = (
{
name = E;
}
);
layerId = "A2C5D99E-4902-4090-BBD9-379E2297F70D";
name = Bold;
paths = (
{
closed = 1;
nodes = (
"468 764 OFFCURVE",
"504 783 OFFCURVE",
"535 814 CURVE",
"495 871 LINE",
"474 855 OFFCURVE",
"455 846 OFFCURVE",
"434 846 CURVE SMOOTH",
"391 846 OFFCURVE",
"354 885 OFFCURVE",
"309 885 CURVE SMOOTH",
"276 885 OFFCURVE",
"236 863 OFFCURVE",
"205 835 CURVE",
"245 778 LINE",
"265 792 OFFCURVE",
"283 803 OFFCURVE",
"309 803 CURVE SMOOTH",
"353 803 OFFCURVE",
"388 764 OFFCURVE",
"435 764 CURVE SMOOTH"
);
}
);
width = 711;
}
);
note = Etilde;
unicode = 1EBC;
},
{
glyphname = F;
lastChange = "2015-07-16 19:12:08 +0000";
layers = (
{
layerId = "A2C5D99E-4902-4090-BBD9-379E2297F70D";
name = Bold;
paths = (
{
closed = 1;
nodes = (
"315 0 LINE SMOOTH",
"329 0 OFFCURVE",
"332 7 OFFCURVE",
"332 17 CURVE SMOOTH",
"332 35 OFFCURVE",
"323 45 OFFCURVE",
"294 56 CURVE SMOOTH",
"252 72 LINE",
"252 293 LINE",
"477 293 LINE",
"492 253 LINE SMOOTH",
"501 230 OFFCURVE",
"510 219 OFFCURVE",
"522 219 CURVE SMOOTH",
"536 219 OFFCURVE",
"541 228 OFFCURVE",
"541 237 CURVE SMOOTH",
"541 429 LINE SMOOTH",
"541 438 OFFCURVE",
"536 446 OFFCURVE",
"522 446 CURVE SMOOTH",
"510 446 OFFCURVE",
"501 435 OFFCURVE",
"492 412 CURVE SMOOTH",
"477 373 LINE",
"252 373 LINE",
"252 615 LINE",
"539 615 LINE",
"550 576 LINE SMOOTH",
"562 535 OFFCURVE",
"573 517 OFFCURVE",
"591 517 CURVE SMOOTH",
"606 517 OFFCURVE",
"611 524 OFFCURVE",
"611 537 CURVE SMOOTH",
"611 695 LINE",
"70 695 LINE SMOOTH",
"59 695 OFFCURVE",
"51 688 OFFCURVE",
"51 670 CURVE SMOOTH",
"51 645 OFFCURVE",
"66 631 OFFCURVE",
"107 621 CURVE SMOOTH",
"127 616 LINE",
"127 72 LINE",
"110 72 LINE SMOOTH",
"76 72 OFFCURVE",
"54 58 OFFCURVE",
"54 30 CURVE SMOOTH",
"54 11 OFFCURVE",
"63 0 OFFCURVE",
"79 0 CURVE SMOOTH"
);
}
);
width = 669;
}
);
note = F;
unicode = 0046;
},
{
glyphname = G;
lastChange = "2015-07-16 19:12:08 +0000";
layers = (
{
layerId = "A2C5D99E-4902-4090-BBD9-379E2297F70D";
name = Bold;
paths = (
{
closed = 1;
nodes = (
"475 -14 OFFCURVE",
"560 2 OFFCURVE",
"624 35 CURVE",
"624 281 LINE",
"663 297 LINE SMOOTH",
"690 308 OFFCURVE",
"699 318 OFFCURVE",
"699 335 CURVE SMOOTH",
"699 346 OFFCURVE",
"694 352 OFFCURVE",
"684 352 CURVE SMOOTH",
"449 352 LINE SMOOTH",
"416 352 OFFCURVE",
"394 338 OFFCURVE",
"394 310 CURVE SMOOTH",
"394 292 OFFCURVE",
"402 280 OFFCURVE",
"418 280 CURVE SMOOTH",
"499 280 LINE",
"499 83 LINE",
"473 72 OFFCURVE",
"439 66 OFFCURVE",
"405 66 CURVE SMOOTH",
"271 66 OFFCURVE",
"170 162 OFFCURVE",
"170 349 CURVE SMOOTH",
"170 534 OFFCURVE",
"265 629 OFFCURVE",
"402 629 CURVE SMOOTH",
"462 629 OFFCURVE",
"510 613 OFFCURVE",
"535 597 CURVE",
"554 528 LINE SMOOTH",
"563 494 OFFCURVE",
"573 478 OFFCURVE",
"595 478 CURVE SMOOTH",
"613 478 OFFCURVE",
"617 488 OFFCURVE",
"617 500 CURVE SMOOTH",
"617 633 LINE",
"567 674 OFFCURVE",
"485 709 OFFCURVE",
"379 709 CURVE SMOOTH",
"200 709 OFFCURVE",
"43 588 OFFCURVE",
"43 349 CURVE SMOOTH",
"43 97 OFFCURVE",
"208 -14 OFFCURVE",
"401 -14 CURVE SMOOTH"
);
}
);
width = 735;
}
);
note = G;
unicode = 0047;
},
{
glyphname = Gbreve;
lastChange = "2015-07-16 19:12:08 +0000";
layers = (
{
components = (
{
name = G;
}
);
layerId = "A2C5D99E-4902-4090-BBD9-379E2297F70D";
name = Bold;
paths = (
{
closed = 1;
nodes = (
"446 747 OFFCURVE",
"513 785 OFFCURVE",
"540 882 CURVE",
"476 905 LINE",
"459 856 OFFCURVE",
"423 827 OFFCURVE",
"376 827 CURVE SMOOTH",
"329 827 OFFCURVE",
"292 856 OFFCURVE",
"276 905 CURVE",
"211 882 LINE",
"238 785 OFFCURVE",
"305 747 OFFCURVE",
"376 747 CURVE SMOOTH"
);
}
);
width = 735;
}
);
note = Gbreve;
unicode = 011E;
},
{
glyphname = Gcaron;
lastChange = "2015-07-16 19:12:08 +0000";
layers = (
{
components = (
{
name = G;
}
);
layerId = "A2C5D99E-4902-4090-BBD9-379E2297F70D";
name = Bold;
paths = (
{
closed = 1;
nodes = (
"410 753 LINE",
"528 906 LINE",
"476 952 LINE",
"381 845 LINE",
"286 952 LINE",
"234 906 LINE",
"353 753 LINE"
);
}
);
width = 735;
}
);
note = Gcaron;
unicode = 01E6;
},
{
glyphname = Gcircumflex;
lastChange = "2015-07-16 19:12:08 +0000";
layers = (
{
components = (
{
name = G;
}
);
layerId = "A2C5D99E-4902-4090-BBD9-379E2297F70D";
name = Bold;
paths = (
{
closed = 1;
nodes = (
"378 860 LINE",
"473 753 LINE",
"525 798 LINE",
"407 952 LINE",
"350 952 LINE",
"231 798 LINE",
"283 753 LINE"
);
}
);
width = 735;
}
);
note = Gcircumflex;
unicode = 011C;
},
{
glyphname = Gcommaaccent;
lastChange = "2015-07-16 19:12:08 +0000";
layers = (
{
components = (
{
name = G;
}
);
layerId = "A2C5D99E-4902-4090-BBD9-379E2297F70D";
name = Bold;
paths = (
{
closed = 1;
nodes = (
"399 -223 OFFCURVE",
"441 -134 OFFCURVE",
"456 -76 CURVE",
"361 -54 LINE SMOOTH",
"331 -48 OFFCURVE",
"311 -60 OFFCURVE",
"311 -85 CURVE SMOOTH",
"311 -97 OFFCURVE",
"318 -103 OFFCURVE",
"328 -107 CURVE",
"355 -115 LINE",
"351 -149 OFFCURVE",
"320 -212 OFFCURVE",
"295 -248 CURVE",
"347 -280 LINE"
);
}
);
width = 735;
}
);
note = Gcommaaccent;
unicode = 0122;
},
{
glyphname = Gdotaccent;
lastChange = "2015-07-16 19:12:08 +0000";
layers = (
{
components = (
{
name = G;
}
);
layerId = "A2C5D99E-4902-4090-BBD9-379E2297F70D";
name = Bold;
paths = (
{
closed = 1;
nodes = (
"413 770 OFFCURVE",
"442 797 OFFCURVE",
"442 834 CURVE SMOOTH",
"442 870 OFFCURVE",
"413 897 OFFCURVE",
"379 897 CURVE SMOOTH",
"344 897 OFFCURVE",
"316 870 OFFCURVE",
"316 834 CURVE SMOOTH",
"316 797 OFFCURVE",
"344 770 OFFCURVE",
"379 770 CURVE SMOOTH"
);
}
);
width = 735;
}
);
note = Gdotaccent;
unicode = 0120;
},
{
glyphname = Gmacron;
lastChange = "2015-07-16 19:12:08 +0000";
layers = (
{
components = (
{
name = G;
}
);
layerId = "A2C5D99E-4902-4090-BBD9-379E2297F70D";
name = Bold;
paths = (
{
closed = 1;
nodes = (
"528 785 LINE",
"528 864 LINE",
"234 864 LINE",
"234 785 LINE"
);
}
);
width = 735;
}
);
note = Gmacron;
unicode = 1E20;
},
{
glyphname = H;
lastChange = "2015-07-16 19:12:08 +0000";
layers = (
{
layerId = "A2C5D99E-4902-4090-BBD9-379E2297F70D";
name = Bold;
paths = (
{
closed = 1;
nodes = (
"312 0 LINE SMOOTH",
"326 0 OFFCURVE",
"329 7 OFFCURVE",
"329 17 CURVE SMOOTH",
"329 35 OFFCURVE",
"319 45 OFFCURVE",
"291 56 CURVE SMOOTH",
"249 72 LINE",
"249 321 LINE",
"580 321 LINE",
"580 72 LINE",
"557 72 LINE SMOOTH",
"524 72 OFFCURVE",
"502 58 OFFCURVE",
"502 30 CURVE SMOOTH",
"502 11 OFFCURVE",
"511 0 OFFCURVE",
"527 0 CURVE SMOOTH",
"764 0 LINE SMOOTH",
"776 0 OFFCURVE",
"780 7 OFFCURVE",
"780 17 CURVE SMOOTH",
"780 35 OFFCURVE",
"769 43 OFFCURVE",
"749 52 CURVE SMOOTH",
"705 72 LINE",
"705 623 LINE",
"749 643 LINE SMOOTH",
"769 652 OFFCURVE",
"780 660 OFFCURVE",
"780 678 CURVE SMOOTH",
"780 688 OFFCURVE",
"776 695 OFFCURVE",
"764 695 CURVE SMOOTH",
"557 695 LINE SMOOTH",
"524 695 OFFCURVE",
"502 681 OFFCURVE",
"502 653 CURVE SMOOTH",
"502 634 OFFCURVE",
"511 623 OFFCURVE",
"527 623 CURVE SMOOTH",
"580 623 LINE",
"580 401 LINE",
"249 401 LINE",
"249 623 LINE",
"291 639 LINE SMOOTH",
"318 649 OFFCURVE",
"329 660 OFFCURVE",
"329 678 CURVE SMOOTH",
"329 688 OFFCURVE",
"326 695 OFFCURVE",
"312 695 CURVE SMOOTH",
"106 695 LINE SMOOTH",
"73 695 OFFCURVE",
"51 681 OFFCURVE",
"51 653 CURVE SMOOTH",
"51 634 OFFCURVE",
"60 623 OFFCURVE",
"76 623 CURVE SMOOTH",
"124 623 LINE",
"124 72 LINE",
"107 72 LINE SMOOTH",
"73 72 OFFCURVE",
"51 58 OFFCURVE",
"51 30 CURVE SMOOTH",
"51 11 OFFCURVE",
"60 0 OFFCURVE",
"76 0 CURVE SMOOTH"
);
}
);
width = 831;
}
);
note = H;
unicode = 0048;
},
{
glyphname = Hbar;
lastChange = "2015-07-16 19:12:08 +0000";
layers = (
{
layerId = "A2C5D99E-4902-4090-BBD9-379E2297F70D";
name = Bold;
paths = (
{
closed = 1;
nodes = (
"313 0 LINE SMOOTH",
"327 0 OFFCURVE",
"330 7 OFFCURVE",
"330 17 CURVE SMOOTH",
"330 35 OFFCURVE",
"319 44 OFFCURVE",
"292 55 CURVE SMOOTH",
"250 72 LINE",
"250 321 LINE",
"581 321 LINE",
"581 72 LINE",
"558 72 LINE SMOOTH",
"525 72 OFFCURVE",
"503 58 OFFCURVE",
"503 30 CURVE SMOOTH",
"503 11 OFFCURVE",
"512 0 OFFCURVE",
"528 0 CURVE SMOOTH",
"765 0 LINE SMOOTH",
"777 0 OFFCURVE",
"781 7 OFFCURVE",
"781 17 CURVE SMOOTH",
"781 35 OFFCURVE",
"770 43 OFFCURVE",
"750 52 CURVE SMOOTH",
"706 72 LINE",
"706 475 LINE",
"781 475 LINE",
"781 551 LINE",
"706 551 LINE",
"706 623 LINE",
"750 643 LINE SMOOTH",
"770 652 OFFCURVE",
"781 660 OFFCURVE",
"781 678 CURVE SMOOTH",
"781 688 OFFCURVE",
"777 695 OFFCURVE",
"765 695 CURVE SMOOTH",
"558 695 LINE SMOOTH",
"525 695 OFFCURVE",
"503 681 OFFCURVE",
"503 653 CURVE SMOOTH",
"503 634 OFFCURVE",
"512 623 OFFCURVE",
"528 623 CURVE SMOOTH",
"581 623 LINE",
"581 551 LINE",
"250 551 LINE",
"250 623 LINE",
"292 640 LINE SMOOTH",
"319 651 OFFCURVE",
"330 660 OFFCURVE",
"330 678 CURVE SMOOTH",
"330 688 OFFCURVE",
"327 695 OFFCURVE",
"313 695 CURVE SMOOTH",
"107 695 LINE SMOOTH",
"74 695 OFFCURVE",
"52 681 OFFCURVE",
"52 653 CURVE SMOOTH",
"52 634 OFFCURVE",
"61 623 OFFCURVE",
"77 623 CURVE SMOOTH",
"125 623 LINE",
"125 551 LINE",
"52 551 LINE",
"52 475 LINE",
"125 475 LINE",
"125 72 LINE",
"108 72 LINE SMOOTH",
"74 72 OFFCURVE",
"52 58 OFFCURVE",
"52 30 CURVE SMOOTH",
"52 11 OFFCURVE",
"61 0 OFFCURVE",
"77 0 CURVE SMOOTH"
);
},
{
closed = 1;
nodes = (
"250 475 LINE",
"581 475 LINE",
"581 401 LINE",
"250 401 LINE"
);
}
);
width = 833;
}
);
note = Hbar;
unicode = 0126;
},
{
glyphname = Hbrevebelow;
lastChange = "2015-07-16 19:12:08 +0000";
layers = (
{
components = (
{
name = H;
}
);
layerId = "A2C5D99E-4902-4090-BBD9-379E2297F70D";
name = Bold;
paths = (
{
closed = 1;
nodes = (
"487 -221 OFFCURVE",
"554 -183 OFFCURVE",
"581 -86 CURVE",
"517 -63 LINE",
"500 -112 OFFCURVE",
"464 -141 OFFCURVE",
"417 -141 CURVE SMOOTH",
"370 -141 OFFCURVE",
"333 -112 OFFCURVE",
"317 -63 CURVE",
"252 -86 LINE",
"279 -183 OFFCURVE",
"346 -221 OFFCURVE",
"417 -221 CURVE SMOOTH"
);
}
);
width = 831;
}
);
note = Hbrevebelow;
unicode = 1E2A;
},
{
glyphname = Hcircumflex;
lastChange = "2015-07-16 19:12:08 +0000";
layers = (
{
components = (
{
name = H;
}
);
layerId = "A2C5D99E-4902-4090-BBD9-379E2297F70D";
name = Bold;
paths = (
{
closed = 1;
nodes = (
"415 860 LINE",
"510 753 LINE",
"562 798 LINE",
"444 952 LINE",
"387 952 LINE",
"268 798 LINE",
"320 753 LINE"
);
}
);
width = 831;
}
);
note = Hcircumflex;
unicode = 0124;
},
{
glyphname = Hdotbelow;
lastChange = "2015-07-16 19:12:08 +0000";
layers = (
{
components = (
{
name = H;
}
);
layerId = "A2C5D99E-4902-4090-BBD9-379E2297F70D";
name = Bold;
paths = (
{
closed = 1;
nodes = (
"454 -192 OFFCURVE",
"483 -166 OFFCURVE",
"483 -129 CURVE SMOOTH",
"483 -93 OFFCURVE",
"454 -66 OFFCURVE",
"420 -66 CURVE SMOOTH",
"385 -66 OFFCURVE",
"357 -93 OFFCURVE",
"357 -129 CURVE SMOOTH",
"357 -166 OFFCURVE",
"385 -192 OFFCURVE",
"420 -192 CURVE SMOOTH"
);
}
);
width = 831;
}
);
note = Hdotbelow;
unicode = 1E24;
},
{
glyphname = I;
lastChange = "2015-07-16 19:12:08 +0000";
layers = (
{
layerId = "A2C5D99E-4902-4090-BBD9-379E2297F70D";
name = Bold;
paths = (
{
closed = 1;
nodes = (
"317 0 LINE SMOOTH",
"331 0 OFFCURVE",
"334 7 OFFCURVE",
"334 17 CURVE SMOOTH",
"334 35 OFFCURVE",
"324 45 OFFCURVE",
"296 56 CURVE SMOOTH",
"254 72 LINE",
"254 623 LINE",
"296 639 LINE SMOOTH",
"323 649 OFFCURVE",
"334 660 OFFCURVE",
"334 678 CURVE SMOOTH",
"334 688 OFFCURVE",
"331 695 OFFCURVE",
"317 695 CURVE SMOOTH",
"111 695 LINE SMOOTH",
"78 695 OFFCURVE",
"56 681 OFFCURVE",
"56 653 CURVE SMOOTH",
"56 634 OFFCURVE",
"65 623 OFFCURVE",
"81 623 CURVE SMOOTH",
"129 623 LINE",
"129 72 LINE",
"112 72 LINE SMOOTH",
"78 72 OFFCURVE",
"56 58 OFFCURVE",
"56 30 CURVE SMOOTH",
"56 11 OFFCURVE",
"65 0 OFFCURVE",
"81 0 CURVE SMOOTH"
);
}
);
width = 390;
}
);
note = I;
unicode = 0049;
},
{
glyphname = IJ;
lastChange = "2015-07-16 19:12:08 +0000";
layers = (
{
layerId = "A2C5D99E-4902-4090-BBD9-379E2297F70D";
name = Bold;
paths = (
{
closed = 1;
nodes = (
"485 -14 OFFCURVE",
"514 -8 OFFCURVE",
"542 8 CURVE SMOOTH",
"604 44 OFFCURVE",
"673 113 OFFCURVE",
"673 253 CURVE SMOOTH",
"673 623 LINE",
"716 640 LINE SMOOTH",
"743 651 OFFCURVE",
"754 660 OFFCURVE",
"754 678 CURVE SMOOTH",
"754 688 OFFCURVE",
"750 695 OFFCURVE",
"737 695 CURVE SMOOTH",
"515 695 LINE SMOOTH",
"482 695 OFFCURVE",
"460 681 OFFCURVE",
"460 653 CURVE SMOOTH",
"460 634 OFFCURVE",
"469 623 OFFCURVE",
"485 623 CURVE SMOOTH",
"548 623 LINE",
"548 261 LINE SMOOTH",
"548 151 OFFCURVE",
"498 108 OFFCURVE",
"390 70 CURVE",
"393 9 OFFCURVE",
"422 -14 OFFCURVE",
"460 -14 CURVE SMOOTH"
);
},
{
closed = 1;
nodes = (
"317 0 LINE SMOOTH",
"331 0 OFFCURVE",
"334 7 OFFCURVE",
"334 17 CURVE SMOOTH",
"334 35 OFFCURVE",
"323 44 OFFCURVE",
"296 55 CURVE SMOOTH",
"254 72 LINE",
"254 623 LINE",
"296 640 LINE SMOOTH",
"323 651 OFFCURVE",
"334 660 OFFCURVE",
"334 678 CURVE SMOOTH",
"334 688 OFFCURVE",
"331 695 OFFCURVE",
"317 695 CURVE SMOOTH",
"111 695 LINE SMOOTH",
"78 695 OFFCURVE",
"56 681 OFFCURVE",
"56 653 CURVE SMOOTH",
"56 634 OFFCURVE",
"65 623 OFFCURVE",
"81 623 CURVE SMOOTH",
"129 623 LINE",
"129 72 LINE",
"112 72 LINE SMOOTH",
"78 72 OFFCURVE",
"56 58 OFFCURVE",
"56 30 CURVE SMOOTH",
"56 11 OFFCURVE",
"65 0 OFFCURVE",
"81 0 CURVE SMOOTH"
);
}
);
width = 791;
}
);
note = IJ;
unicode = 0132;
},
{
glyphname = Iacute;
lastChange = "2015-07-16 19:12:08 +0000";
layers = (
{
layerId = "A2C5D99E-4902-4090-BBD9-379E2297F70D";
name = Bold;
paths = (
{
closed = 1;
nodes = (
"317 0 LINE SMOOTH",
"331 0 OFFCURVE",
"334 7 OFFCURVE",
"334 17 CURVE SMOOTH",
"334 35 OFFCURVE",
"323 44 OFFCURVE",
"296 55 CURVE SMOOTH",
"254 72 LINE",
"254 623 LINE",
"296 640 LINE SMOOTH",
"323 651 OFFCURVE",
"334 660 OFFCURVE",
"334 678 CURVE SMOOTH",
"334 688 OFFCURVE",
"331 695 OFFCURVE",
"317 695 CURVE SMOOTH",
"111 695 LINE SMOOTH",
"78 695 OFFCURVE",
"56 681 OFFCURVE",
"56 653 CURVE SMOOTH",
"56 634 OFFCURVE",
"65 623 OFFCURVE",
"81 623 CURVE SMOOTH",
"129 623 LINE",
"129 72 LINE",
"112 72 LINE SMOOTH",
"78 72 OFFCURVE",
"56 58 OFFCURVE",
"56 30 CURVE SMOOTH",
"56 11 OFFCURVE",
"65 0 OFFCURVE",
"81 0 CURVE SMOOTH"
);
},
{
closed = 1;
nodes = (
"312 913 LINE",
"224 971 LINE",
"121 798 LINE",
"189 754 LINE"
);
}
);
width = 390;
}
);
note = Iacute;
unicode = 00CD;
},
{
glyphname = Ibreve;
lastChange = "2015-07-16 19:12:08 +0000";
layers = (
{
components = (
{
name = I;
transform = "{1, 0, 0, 1, -7, 0}";
}
);
layerId = "A2C5D99E-4902-4090-BBD9-379E2297F70D";
name = Bold;
paths = (
{
closed = 1;
nodes = (
"250 747 OFFCURVE",
"317 785 OFFCURVE",
"344 882 CURVE",
"280 905 LINE",
"263 856 OFFCURVE",
"227 827 OFFCURVE",
"180 827 CURVE SMOOTH",
"133 827 OFFCURVE",
"96 856 OFFCURVE",
"80 905 CURVE",
"15 882 LINE",
"42 785 OFFCURVE",
"109 747 OFFCURVE",
"180 747 CURVE SMOOTH"
);
}
);
width = 359;
}
);
note = Ibreve;
unicode = 012C;
},
{
glyphname = Icaron;
lastChange = "2015-07-16 19:12:08 +0000";
layers = (
{
components = (
{
name = I;
transform = "{1, 0, 0, 1, -9, 0}";
}
);
layerId = "A2C5D99E-4902-4090-BBD9-379E2297F70D";
name = Bold;
paths = (
{
closed = 1;
nodes = (
"208 753 LINE",
"326 906 LINE",
"274 952 LINE",
"179 845 LINE",
"84 952 LINE",
"32 906 LINE",
"151 753 LINE"
);
}
);
width = 361;
}
);
note = Icaron;
unicode = 01CF;
},
{
glyphname = Icircumflex;
lastChange = "2015-07-16 19:12:08 +0000";
layers = (
{
components = (
{
name = I;
transform = "{1, 0, 0, 1, -9, 0}";
}
);
layerId = "A2C5D99E-4902-4090-BBD9-379E2297F70D";
name = Bold;
paths = (
{
closed = 1;
nodes = (
"179 860 LINE",
"274 753 LINE",
"326 798 LINE",
"208 952 LINE",
"151 952 LINE",
"32 798 LINE",
"84 753 LINE"
);
}
);
width = 361;
}
);
note = Icircumflex;
unicode = 00CE;
},
{
glyphname = Idieresis;
lastChange = "2015-07-16 19:12:08 +0000";
layers = (
{
components = (
{
name = I;
transform = "{1, 0, 0, 1, -10, 0}";
}
);
layerId = "A2C5D99E-4902-4090-BBD9-379E2297F70D";
name = Bold;
paths = (
{
closed = 1;
nodes = (
"114 764 OFFCURVE",
"142 790 OFFCURVE",
"142 827 CURVE SMOOTH",
"142 863 OFFCURVE",
"114 890 OFFCURVE",
"80 890 CURVE SMOOTH",
"46 890 OFFCURVE",
"17 863 OFFCURVE",
"17 827 CURVE SMOOTH",
"17 790 OFFCURVE",
"46 764 OFFCURVE",
"80 764 CURVE SMOOTH"
);
},
{
closed = 1;
nodes = (
"319 764 OFFCURVE",
"347 790 OFFCURVE",
"347 827 CURVE SMOOTH",
"347 863 OFFCURVE",
"319 890 OFFCURVE",
"285 890 CURVE SMOOTH",
"251 890 OFFCURVE",
"222 863 OFFCURVE",
"222 827 CURVE SMOOTH",
"222 790 OFFCURVE",
"251 764 OFFCURVE",
"285 764 CURVE SMOOTH"
);
}
);
width = 364;
}
);
note = Idieresis;
unicode = 00CF;
},
{
glyphname = Idotaccent;
lastChange = "2015-07-16 19:12:09 +0000";
layers = (
{
components = (
{
name = I;
transform = "{1, 0, 0, 1, 1, 0}";
}
);
layerId = "A2C5D99E-4902-4090-BBD9-379E2297F70D";
name = Bold;
paths = (
{
closed = 1;
nodes = (
"231 770 OFFCURVE",
"260 797 OFFCURVE",
"260 834 CURVE SMOOTH",
"260 870 OFFCURVE",
"231 897 OFFCURVE",
"197 897 CURVE SMOOTH",
"162 897 OFFCURVE",
"134 870 OFFCURVE",
"134 834 CURVE SMOOTH",
"134 797 OFFCURVE",
"162 770 OFFCURVE",
"197 770 CURVE SMOOTH"
);
}
);
width = 394;
}
);
note = Idotaccent;
unicode = 0130;
},
{
glyphname = Idotbelow;
lastChange = "2015-07-16 19:12:08 +0000";
layers = (
{
components = (
{
name = I;
}
);
layerId = "A2C5D99E-4902-4090-BBD9-379E2297F70D";
name = Bold;
paths = (
{
closed = 1;
nodes = (
"230 -192 OFFCURVE",
"259 -166 OFFCURVE",
"259 -129 CURVE SMOOTH",
"259 -93 OFFCURVE",
"230 -66 OFFCURVE",
"196 -66 CURVE SMOOTH",
"161 -66 OFFCURVE",
"133 -93 OFFCURVE",
"133 -129 CURVE SMOOTH",
"133 -166 OFFCURVE",
"161 -192 OFFCURVE",
"196 -192 CURVE SMOOTH"
);
}
);
width = 390;
}
);
note = Idotbelow;
unicode = 1ECA;
},
{
glyphname = Igrave;
lastChange = "2015-07-16 19:12:08 +0000";
layers = (
{
layerId = "A2C5D99E-4902-4090-BBD9-379E2297F70D";
name = Bold;
paths = (
{
closed = 1;
nodes = (
"317 0 LINE SMOOTH",
"331 0 OFFCURVE",
"334 7 OFFCURVE",
"334 17 CURVE SMOOTH",
"334 35 OFFCURVE",
"323 44 OFFCURVE",
"296 55 CURVE SMOOTH",
"254 72 LINE",
"254 623 LINE",
"296 640 LINE SMOOTH",
"323 651 OFFCURVE",
"334 660 OFFCURVE",
"334 678 CURVE SMOOTH",
"334 688 OFFCURVE",
"331 695 OFFCURVE",
"317 695 CURVE SMOOTH",
"111 695 LINE SMOOTH",
"78 695 OFFCURVE",
"56 681 OFFCURVE",
"56 653 CURVE SMOOTH",
"56 634 OFFCURVE",
"65 623 OFFCURVE",
"81 623 CURVE SMOOTH",
"129 623 LINE",
"129 72 LINE",
"112 72 LINE SMOOTH",
"78 72 OFFCURVE",
"56 58 OFFCURVE",
"56 30 CURVE SMOOTH",
"56 11 OFFCURVE",
"65 0 OFFCURVE",
"81 0 CURVE SMOOTH"
);
},
{
closed = 1;
nodes = (
"258 798 LINE",
"156 971 LINE",
"67 913 LINE",
"191 754 LINE"
);
}
);
width = 390;
}
);
note = Igrave;
unicode = 00CC;
},
{
glyphname = Ihookabove;
lastChange = "2015-07-16 19:12:08 +0000";
layers = (
{
components = (
{
name = I;
}
);
layerId = "A2C5D99E-4902-4090-BBD9-379E2297F70D";
name = Bold;
paths = (
{
closed = 1;
nodes = (
"211 750 LINE",
"218 798 LINE",
"262 814 OFFCURVE",
"288 843 OFFCURVE",
"288 881 CURVE SMOOTH",
"288 924 OFFCURVE",
"251 960 OFFCURVE",
"189 960 CURVE SMOOTH",
"163 960 OFFCURVE",
"133 951 OFFCURVE",
"115 944 CURVE",
"123 900 LINE",
"143 905 OFFCURVE",
"159 909 OFFCURVE",
"178 909 CURVE SMOOTH",
"201 909 OFFCURVE",
"210 899 OFFCURVE",
"210 880 CURVE SMOOTH",
"210 855 OFFCURVE",
"187 839 OFFCURVE",
"149 825 CURVE",
"157 750 LINE"
);
}
);
width = 417;
}
);
note = Ihookabove;
unicode = 1EC8;
},
{
glyphname = Imacron;
lastChange = "2015-07-16 19:12:09 +0000";
layers = (
{
components = (
{
name = I;
transform = "{1, 0, 0, 1, -37, 0}";
}
);
layerId = "A2C5D99E-4902-4090-BBD9-379E2297F70D";
name = Bold;
paths = (
{
closed = 1;
nodes = (
"303 785 LINE",
"303 864 LINE",
"9 864 LINE",
"9 785 LINE"
);
}
);
width = 315;
}
);
note = Imacron;
unicode = 012A;
},
{
glyphname = Iogonek;
lastChange = "2015-07-16 19:12:08 +0000";
layers = (
{
layerId = "A2C5D99E-4902-4090-BBD9-379E2297F70D";
name = Bold;
paths = (
{
closed = 1;
nodes = (
"209 -212 OFFCURVE",
"235 -207 OFFCURVE",
"255 -196 CURVE",
"246 -147 LINE",
"232 -150 OFFCURVE",
"219 -154 OFFCURVE",
"201 -154 CURVE SMOOTH",
"164 -154 OFFCURVE",
"144 -132 OFFCURVE",
"144 -102 CURVE SMOOTH",
"144 -62 OFFCURVE",
"178 -18 OFFCURVE",
"216 0 CURVE",
"319 0 LINE SMOOTH",
"333 0 OFFCURVE",
"336 7 OFFCURVE",
"336 17 CURVE SMOOTH",
"336 35 OFFCURVE",
"325 46 OFFCURVE",
"298 56 CURVE SMOOTH",
"256 72 LINE",
"256 623 LINE",
"298 639 LINE SMOOTH",
"325 649 OFFCURVE",
"336 660 OFFCURVE",
"336 678 CURVE SMOOTH",
"336 688 OFFCURVE",
"333 695 OFFCURVE",
"319 695 CURVE SMOOTH",
"113 695 LINE SMOOTH",
"80 695 OFFCURVE",
"58 681 OFFCURVE",
"58 653 CURVE SMOOTH",
"58 634 OFFCURVE",
"67 623 OFFCURVE",
"83 623 CURVE SMOOTH",
"131 623 LINE",
"131 72 LINE",
"114 72 LINE SMOOTH",
"80 72 OFFCURVE",
"58 58 OFFCURVE",
"58 30 CURVE SMOOTH",
"58 11 OFFCURVE",
"67 0 OFFCURVE",
"83 0 CURVE SMOOTH",
"135 0 LINE",
"89 -26 OFFCURVE",
"63 -66 OFFCURVE",
"63 -107 CURVE SMOOTH",
"63 -172 OFFCURVE",
"113 -212 OFFCURVE",
"187 -212 CURVE SMOOTH"
);
}
);
width = 393;
}
);
note = Iogonek;
unicode = 012E;
},
{
glyphname = Itilde;
lastChange = "2015-07-16 19:12:09 +0000";
layers = (
{
components = (
{
name = I;
transform = "{1, 0, 0, 1, -9, 0}";
}
);
layerId = "A2C5D99E-4902-4090-BBD9-379E2297F70D";
name = Bold;
paths = (
{
closed = 1;
nodes = (
"277 764 OFFCURVE",
"313 783 OFFCURVE",
"344 814 CURVE",
"304 871 LINE",
"283 855 OFFCURVE",
"264 846 OFFCURVE",
"243 846 CURVE SMOOTH",
"200 846 OFFCURVE",
"163 885 OFFCURVE",
"118 885 CURVE SMOOTH",
"85 885 OFFCURVE",
"45 863 OFFCURVE",
"14 835 CURVE",
"54 778 LINE",
"74 792 OFFCURVE",
"92 803 OFFCURVE",
"118 803 CURVE SMOOTH",
"162 803 OFFCURVE",
"197 764 OFFCURVE",
"244 764 CURVE SMOOTH"
);
}
);
width = 358;
}
);
note = Itilde;
unicode = 0128;
},
{
glyphname = J;
lastChange = "2015-07-16 19:12:08 +0000";
layers = (
{
layerId = "A2C5D99E-4902-4090-BBD9-379E2297F70D";
name = Bold;
paths = (
{
closed = 1;
nodes = (
"126 -14 OFFCURVE",
"155 -7 OFFCURVE",
"183 8 CURVE SMOOTH",
"246 43 OFFCURVE",
"314 113 OFFCURVE",
"314 253 CURVE SMOOTH",
"314 623 LINE",
"356 639 LINE SMOOTH",
"383 649 OFFCURVE",
"394 660 OFFCURVE",
"394 678 CURVE SMOOTH",
"394 688 OFFCURVE",
"390 695 OFFCURVE",
"377 695 CURVE SMOOTH",
"155 695 LINE SMOOTH",
"122 695 OFFCURVE",
"100 681 OFFCURVE",
"100 653 CURVE SMOOTH",
"100 634 OFFCURVE",
"109 623 OFFCURVE",
"125 623 CURVE SMOOTH",
"189 623 LINE",
"189 261 LINE",
"189 151 OFFCURVE",
"139 108 OFFCURVE",
"31 70 CURVE",
"34 9 OFFCURVE",
"63 -14 OFFCURVE",
"101 -14 CURVE SMOOTH"
);
}
);
width = 432;
}
);
note = J;
unicode = 004A;
},
{
glyphname = Jcircumflex;
lastChange = "2015-07-16 19:12:08 +0000";
layers = (
{
components = (
{
name = J;
}
);
layerId = "A2C5D99E-4902-4090-BBD9-379E2297F70D";
name = Bold;
paths = (
{
closed = 1;
nodes = (
"246 860 LINE",
"341 753 LINE",
"393 798 LINE",
"275 952 LINE",
"218 952 LINE",
"99 798 LINE",
"151 753 LINE"
);
}
);
width = 434;
}
);
note = Jcircumflex;
unicode = 0134;
},
{
glyphname = K;
lastChange = "2015-07-16 19:12:08 +0000";
layers = (
{
layerId = "A2C5D99E-4902-4090-BBD9-379E2297F70D";
name = Bold;
paths = (
{
closed = 1;
nodes = (
"714 0 LINE SMOOTH",
"727 0 OFFCURVE",
"731 7 OFFCURVE",
"731 18 CURVE SMOOTH",
"731 36 OFFCURVE",
"718 46 OFFCURVE",
"690 55 CURVE SMOOTH",
"642 69 LINE",
"382 365 LINE",
"638 624 LINE",
"672 633 LINE SMOOTH",
"700 641 OFFCURVE",
"714 654 OFFCURVE",
"714 671 CURVE SMOOTH",
"714 688 OFFCURVE",
"707 695 OFFCURVE",
"694 695 CURVE SMOOTH",
"494 695 LINE SMOOTH",
"461 695 OFFCURVE",
"439 681 OFFCURVE",
"439 653 CURVE SMOOTH",
"439 634 OFFCURVE",
"448 623 OFFCURVE",
"464 623 CURVE SMOOTH",
"525 623 LINE",
"249 346 LINE",
"534 0 LINE"
);
},
{
closed = 1;
nodes = (
"312 0 LINE SMOOTH",
"323 0 OFFCURVE",
"329 7 OFFCURVE",
"329 17 CURVE SMOOTH",
"329 35 OFFCURVE",
"318 46 OFFCURVE",
"291 56 CURVE SMOOTH",
"249 72 LINE",
"249 623 LINE",
"291 639 LINE SMOOTH",
"318 649 OFFCURVE",
"327 660 OFFCURVE",
"327 678 CURVE SMOOTH",
"327 688 OFFCURVE",
"321 695 OFFCURVE",
"311 695 CURVE SMOOTH",
"106 695 LINE SMOOTH",
"73 695 OFFCURVE",
"51 681 OFFCURVE",
"51 653 CURVE SMOOTH",
"51 634 OFFCURVE",
"60 623 OFFCURVE",
"76 623 CURVE SMOOTH",
"124 623 LINE",
"124 72 LINE",
"107 72 LINE SMOOTH",
"73 72 OFFCURVE",
"51 58 OFFCURVE",
"51 30 CURVE SMOOTH",
"51 11 OFFCURVE",
"60 0 OFFCURVE",
"76 0 CURVE SMOOTH"
);
}
);
width = 734;
}
);
note = K;
unicode = 004B;
},
{
glyphname = Kcommaaccent;
lastChange = "2015-07-16 19:12:09 +0000";
layers = (
{
components = (
{
name = K;
}
);
layerId = "A2C5D99E-4902-4090-BBD9-379E2297F70D";
name = Bold;
paths = (
{
closed = 1;
nodes = (
"383 -223 OFFCURVE",
"425 -134 OFFCURVE",
"440 -76 CURVE",
"345 -54 LINE SMOOTH",
"315 -48 OFFCURVE",
"295 -60 OFFCURVE",
"295 -85 CURVE SMOOTH",
"295 -97 OFFCURVE",
"302 -103 OFFCURVE",
"312 -107 CURVE",
"339 -115 LINE",
"335 -149 OFFCURVE",
"304 -212 OFFCURVE",
"279 -248 CURVE",
"331 -280 LINE"
);
}
);
width = 734;
}
);
note = Kcommaaccent;
unicode = 0136;
},
{
glyphname = L;
lastChange = "2015-07-16 19:12:08 +0000";
layers = (
{
layerId = "A2C5D99E-4902-4090-BBD9-379E2297F70D";
name = Bold;
paths = (
{
closed = 1;
nodes = (
"617 0 LINE",
"617 182 LINE SMOOTH",
"617 194 OFFCURVE",
"612 202 OFFCURVE",
"597 202 CURVE SMOOTH",
"579 202 OFFCURVE",
"570 183 OFFCURVE",
"556 143 CURVE SMOOTH",
"536 80 LINE",
"252 80 LINE",
"252 623 LINE",
"302 639 LINE SMOOTH",
"330 648 OFFCURVE",
"340 660 OFFCURVE",
"340 678 CURVE SMOOTH",
"340 688 OFFCURVE",
"336 695 OFFCURVE",
"323 695 CURVE SMOOTH",
"109 695 LINE SMOOTH",
"76 695 OFFCURVE",
"54 681 OFFCURVE",
"54 653 CURVE SMOOTH",
"54 634 OFFCURVE",
"63 623 OFFCURVE",
"79 623 CURVE SMOOTH",
"127 623 LINE",
"127 79 LINE",
"107 74 LINE SMOOTH",
"67 64 OFFCURVE",
"51 50 OFFCURVE",
"51 25 CURVE SMOOTH",
"51 7 OFFCURVE",
"59 0 OFFCURVE",
"70 0 CURVE SMOOTH"
);
}
);
width = 628;
}
);
note = L;
unicode = 004C;
},
{
glyphname = Lacute;
lastChange = "2015-07-16 19:12:09 +0000";
layers = (
{
components = (
{
name = L;
}
);
layerId = "A2C5D99E-4902-4090-BBD9-379E2297F70D";
name = Bold;
paths = (
{
closed = 1;
nodes = (
"289 912 LINE",
"201 970 LINE",
"98 797 LINE",
"166 753 LINE"
);
}
);
width = 628;
}
);
note = Lacute;
unicode = 0139;
},
{
glyphname = Lcaron;
lastChange = "2015-07-16 19:12:08 +0000";
layers = (
{
components = (
{
name = L;
}
);
layerId = "A2C5D99E-4902-4090-BBD9-379E2297F70D";
name = Bold;
paths = (
{
closed = 1;
nodes = (
"503 533 OFFCURVE",
"545 622 OFFCURVE",
"560 680 CURVE",
"465 701 LINE SMOOTH",
"435 708 OFFCURVE",
"415 695 OFFCURVE",
"415 671 CURVE SMOOTH",
"415 659 OFFCURVE",
"422 653 OFFCURVE",
"432 649 CURVE",
"459 641 LINE",
"455 607 OFFCURVE",
"424 544 OFFCURVE",
"399 508 CURVE",
"451 476 LINE"
);
}
);
width = 628;
}
);
note = Lcaron;
unicode = 013D;
},
{
glyphname = Lcommaaccent;
lastChange = "2015-07-16 19:12:08 +0000";
layers = (
{
components = (
{
name = L;
}
);
layerId = "A2C5D99E-4902-4090-BBD9-379E2297F70D";
name = Bold;
paths = (
{
closed = 1;
nodes = (
"384 -223 OFFCURVE",
"426 -134 OFFCURVE",
"441 -76 CURVE",
"346 -54 LINE SMOOTH",
"316 -48 OFFCURVE",
"296 -60 OFFCURVE",
"296 -85 CURVE SMOOTH",
"296 -97 OFFCURVE",
"303 -103 OFFCURVE",
"313 -107 CURVE",
"340 -115 LINE",
"336 -149 OFFCURVE",
"305 -212 OFFCURVE",
"280 -248 CURVE",
"332 -280 LINE"
);
}
);
width = 628;
}
);
note = Lcommaaccent;
unicode = 013B;
},
{
glyphname = Ldot;
lastChange = "2015-07-16 19:12:08 +0000";
layers = (
{
components = (
{
name = L;
}
);
layerId = "A2C5D99E-4902-4090-BBD9-379E2297F70D";
name = Bold;
paths = (
{
closed = 1;
nodes = (
"483 314 OFFCURVE",
"512 341 OFFCURVE",
"512 378 CURVE SMOOTH",
"512 414 OFFCURVE",
"483 441 OFFCURVE",
"449 441 CURVE SMOOTH",
"414 441 OFFCURVE",
"386 414 OFFCURVE",
"386 378 CURVE SMOOTH",
"386 341 OFFCURVE",
"414 314 OFFCURVE",
"449 314 CURVE SMOOTH"
);
}
);
width = 628;
}
);
note = Ldot;
unicode = 013F;
},
{
glyphname = Ldotbelow;
lastChange = "2015-07-16 19:12:09 +0000";
layers = (
{
components = (
{
name = L;
}
);
layerId = "A2C5D99E-4902-4090-BBD9-379E2297F70D";
name = Bold;
paths = (
{
closed = 1;
nodes = (
"387 -192 OFFCURVE",
"416 -166 OFFCURVE",
"416 -129 CURVE SMOOTH",
"416 -93 OFFCURVE",
"387 -66 OFFCURVE",
"353 -66 CURVE SMOOTH",
"318 -66 OFFCURVE",
"290 -93 OFFCURVE",
"290 -129 CURVE SMOOTH",
"290 -166 OFFCURVE",
"318 -192 OFFCURVE",
"353 -192 CURVE SMOOTH"
);
}
);
width = 628;
}
);
note = Ldotbelow;
unicode = 1E36;
},
{
glyphname = Ldotbelowmacron;
lastChange = "2015-07-16 19:12:08 +0000";
layers = (
{
components = (
{
name = L;
transform = "{1, 0, 0, 1, -17, 0}";
}
);
layerId = "A2C5D99E-4902-4090-BBD9-379E2297F70D";
name = Bold;
paths = (
{
closed = 1;
nodes = (
"371 -192 OFFCURVE",
"400 -166 OFFCURVE",
"400 -129 CURVE SMOOTH",
"400 -93 OFFCURVE",
"371 -66 OFFCURVE",
"337 -66 CURVE SMOOTH",
"302 -66 OFFCURVE",
"274 -93 OFFCURVE",
"274 -129 CURVE SMOOTH",
"274 -166 OFFCURVE",
"302 -192 OFFCURVE",
"337 -192 CURVE SMOOTH"
);
},
{
closed = 1;
nodes = (
"327 785 LINE",
"327 864 LINE",
"33 864 LINE",
"33 785 LINE"
);
}
);
width = 612;
}
);
note = Ldotbelowmacron;
unicode = 1E38;
},
{
glyphname = Llinebelow;
lastChange = "2015-07-16 19:12:08 +0000";
layers = (
{
components = (
{
name = L;
}
);
layerId = "A2C5D99E-4902-4090-BBD9-379E2297F70D";
name = Bold;
paths = (
{
closed = 1;
nodes = (
"564 -167 LINE",
"564 -88 LINE",
"141 -88 LINE",
"141 -167 LINE"
);
}
);
width = 628;
}
);
note = Llinebelow;
unicode = 1E3A;
},
{
glyphname = Lslash;
lastChange = "2015-07-16 19:12:08 +0000";
layers = (
{
layerId = "A2C5D99E-4902-4090-BBD9-379E2297F70D";
name = Bold;
paths = (
{
closed = 1;
nodes = (
"642 0 LINE",
"642 182 LINE SMOOTH",
"642 194 OFFCURVE",
"637 202 OFFCURVE",
"622 202 CURVE SMOOTH",
"604 202 OFFCURVE",
"595 183 OFFCURVE",
"581 143 CURVE SMOOTH",
"561 80 LINE",
"277 80 LINE",
"277 330 LINE",
"427 422 LINE",
"387 491 LINE",
"277 423 LINE",
"277 623 LINE",
"327 639 LINE SMOOTH",
"355 648 OFFCURVE",
"365 660 OFFCURVE",
"365 678 CURVE SMOOTH",
"365 688 OFFCURVE",
"361 695 OFFCURVE",
"348 695 CURVE SMOOTH",
"134 695 LINE SMOOTH",
"101 695 OFFCURVE",
"79 681 OFFCURVE",
"79 653 CURVE SMOOTH",
"79 634 OFFCURVE",
"88 623 OFFCURVE",
"104 623 CURVE SMOOTH",
"152 623 LINE",
"152 346 LINE",
"52 284 LINE",
"91 215 LINE",
"152 253 LINE",
"152 79 LINE",
"132 74 LINE SMOOTH",
"92 64 OFFCURVE",
"76 50 OFFCURVE",
"76 25 CURVE SMOOTH",
"76 7 OFFCURVE",
"84 0 OFFCURVE",
"95 0 CURVE SMOOTH"
);
}
);
width = 654;
}
);
note = Lslash;
unicode = 0141;
},
{
glyphname = M;
lastChange = "2015-07-16 19:12:08 +0000";
layers = (
{
layerId = "A2C5D99E-4902-4090-BBD9-379E2297F70D";
name = Bold;
paths = (
{
closed = 1;
nodes = (
"266 0 LINE SMOOTH",
"276 0 OFFCURVE",
"281 7 OFFCURVE",
"281 19 CURVE SMOOTH",
"281 36 OFFCURVE",
"275 44 OFFCURVE",
"240 55 CURVE SMOOTH",
"185 72 LINE",
"272 533 LINE SMOOTH",
"277 563 OFFCURVE",
"280 610 OFFCURVE",
"280 610 CURVE",
"284 610 LINE",
"284 610 OFFCURVE",
"290 563 OFFCURVE",
"298 533 CURVE SMOOTH",
"454 0 LINE",
"592 0 LINE",
"733 533 LINE SMOOTH",
"740 563 OFFCURVE",
"748 610 OFFCURVE",
"748 610 CURVE",
"752 610 LINE",
"752 610 OFFCURVE",
"755 563 OFFCURVE",
"762 533 CURVE SMOOTH",
"859 72 LINE",
"823 72 LINE SMOOTH",
"789 72 OFFCURVE",
"767 58 OFFCURVE",
"767 30 CURVE SMOOTH",
"767 11 OFFCURVE",
"776 0 OFFCURVE",
"792 0 CURVE SMOOTH",
"1042 0 LINE SMOOTH",
"1054 0 OFFCURVE",
"1057 10 OFFCURVE",
"1057 22 CURVE SMOOTH",
"1057 40 OFFCURVE",
"1045 49 OFFCURVE",
"1019 59 CURVE SMOOTH",
"981 73 LINE",
"863 616 LINE",
"883 621 LINE SMOOTH",
"923 631 OFFCURVE",
"939 645 OFFCURVE",
"939 670 CURVE SMOOTH",
"939 688 OFFCURVE",
"930 695 OFFCURVE",
"920 695 CURVE SMOOTH",
"685 695 LINE",
"560 225 LINE SMOOTH",
"547 175 OFFCURVE",
"539 85 OFFCURVE",
"539 85 CURVE SMOOTH",
"534 85 LINE SMOOTH",
"534 85 OFFCURVE",
"526 175 OFFCURVE",
"512 225 CURVE SMOOTH",
"377 695 LINE",
"143 695 LINE SMOOTH",
"132 695 OFFCURVE",
"123 688 OFFCURVE",
"123 670 CURVE SMOOTH",
"123 645 OFFCURVE",
"141 631 OFFCURVE",
"179 621 CURVE SMOOTH",
"199 616 LINE",
"93 72 LINE",
"76 72 LINE SMOOTH",
"42 72 OFFCURVE",
"20 58 OFFCURVE",
"20 30 CURVE SMOOTH",
"20 11 OFFCURVE",
"29 0 OFFCURVE",
"45 0 CURVE SMOOTH"
);
}
);
width = 1074;
}
);
note = M;
unicode = 004D;
},
{
glyphname = Mdotbelow;
lastChange = "2015-07-16 19:12:09 +0000";
layers = (
{
components = (
{
name = M;
}
);
layerId = "A2C5D99E-4902-4090-BBD9-379E2297F70D";
name = Bold;
paths = (
{
closed = 1;
nodes = (
"558 -192 OFFCURVE",
"587 -166 OFFCURVE",
"587 -129 CURVE SMOOTH",
"587 -93 OFFCURVE",
"558 -66 OFFCURVE",
"524 -66 CURVE SMOOTH",
"489 -66 OFFCURVE",
"461 -93 OFFCURVE",
"461 -129 CURVE SMOOTH",
"461 -166 OFFCURVE",
"489 -192 OFFCURVE",
"524 -192 CURVE SMOOTH"
);
}
);
width = 1074;
}
);
note = Mdotbelow;
unicode = 1E42;
},
{
glyphname = N;
lastChange = "2015-07-16 19:12:08 +0000";
layers = (
{
layerId = "A2C5D99E-4902-4090-BBD9-379E2297F70D";
name = Bold;
paths = (
{
closed = 1;
nodes = (
"289 0 LINE SMOOTH",
"302 0 OFFCURVE",
"305 7 OFFCURVE",
"305 17 CURVE SMOOTH",
"305 35 OFFCURVE",
"295 46 OFFCURVE",
"267 55 CURVE SMOOTH",
"217 72 LINE",
"217 540 LINE",
"234 493 OFFCURVE",
"246 466 OFFCURVE",
"267 436 CURVE SMOOTH",
"569 0 LINE",
"684 0 LINE",
"684 623 LINE",
"720 639 LINE SMOOTH",
"745 650 OFFCURVE",
"763 662 OFFCURVE",
"763 678 CURVE SMOOTH",
"763 688 OFFCURVE",
"760 695 OFFCURVE",
"747 695 CURVE SMOOTH",
"564 695 LINE SMOOTH",
"531 695 OFFCURVE",
"509 681 OFFCURVE",
"509 653 CURVE SMOOTH",
"509 634 OFFCURVE",
"518 623 OFFCURVE",
"534 623 CURVE SMOOTH",
"591 623 LINE",
"591 154 LINE",
"572 204 OFFCURVE",
"555 240 OFFCURVE",
"530 276 CURVE SMOOTH",
"239 695 LINE",
"70 695 LINE SMOOTH",
"60 695 OFFCURVE",
"51 688 OFFCURVE",
"51 670 CURVE SMOOTH",
"51 646 OFFCURVE",
"63 632 OFFCURVE",
"104 622 CURVE SMOOTH",
"124 617 LINE",
"124 72 LINE",
"107 72 LINE SMOOTH",
"73 72 OFFCURVE",
"51 58 OFFCURVE",
"51 30 CURVE SMOOTH",
"51 11 OFFCURVE",
"60 0 OFFCURVE",
"76 0 CURVE SMOOTH"
);
}
);
width = 811;
}
);
note = N;
unicode = 004E;
},
{
glyphname = Nacute;
lastChange = "2015-07-16 19:12:08 +0000";
layers = (
{
components = (
{
name = N;
}
);
layerId = "A2C5D99E-4902-4090-BBD9-379E2297F70D";
name = Bold;
paths = (
{
closed = 1;
nodes = (
"510 912 LINE",
"422 970 LINE",
"319 797 LINE",
"387 753 LINE"
);
}
);
width = 811;
}
);
note = Nacute;
unicode = 0143;
},
{
glyphname = Ncaron;
lastChange = "2015-07-16 19:12:08 +0000";
layers = (
{
components = (
{
name = N;
}
);
layerId = "A2C5D99E-4902-4090-BBD9-379E2297F70D";
name = Bold;
paths = (
{
closed = 1;
nodes = (
"429 753 LINE",
"547 906 LINE",
"495 952 LINE",
"400 845 LINE",
"305 952 LINE",
"253 906 LINE",
"372 753 LINE"
);
}
);
width = 811;
}
);
note = Ncaron;
unicode = 0147;
},
{
glyphname = Ncommaaccent;
lastChange = "2015-07-16 19:12:08 +0000";
layers = (
{
components = (
{
name = N;
}
);
layerId = "A2C5D99E-4902-4090-BBD9-379E2297F70D";
name = Bold;
paths = (
{
closed = 1;
nodes = (
"424 -223 OFFCURVE",
"466 -134 OFFCURVE",
"481 -76 CURVE",
"386 -54 LINE SMOOTH",
"356 -48 OFFCURVE",
"336 -60 OFFCURVE",
"336 -85 CURVE SMOOTH",
"336 -97 OFFCURVE",
"343 -103 OFFCURVE",
"353 -107 CURVE",
"380 -115 LINE",
"376 -149 OFFCURVE",
"345 -212 OFFCURVE",
"320 -248 CURVE",
"372 -280 LINE"
);
}
);
width = 811;
}
);
note = Ncommaaccent;
unicode = 0145;
},
{
glyphname = Ndotaccent;
lastChange = "2015-07-16 19:12:08 +0000";
layers = (
{
components = (
{
name = N;
}
);
layerId = "A2C5D99E-4902-4090-BBD9-379E2297F70D";
name = Bold;
paths = (
{
closed = 1;
nodes = (
"439 770 OFFCURVE",
"468 797 OFFCURVE",
"468 834 CURVE SMOOTH",
"468 870 OFFCURVE",
"439 897 OFFCURVE",
"405 897 CURVE SMOOTH",
"370 897 OFFCURVE",
"342 870 OFFCURVE",
"342 834 CURVE SMOOTH",
"342 797 OFFCURVE",
"370 770 OFFCURVE",
"405 770 CURVE SMOOTH"
);
}
);
width = 811;
}
);
note = Ndotaccent;
unicode = 1E44;
},
{
glyphname = Ndotbelow;
lastChange = "2015-07-16 19:12:08 +0000";
layers = (
{
components = (
{
name = N;
}
);
layerId = "A2C5D99E-4902-4090-BBD9-379E2297F70D";
name = Bold;
paths = (
{
closed = 1;
nodes = (
"447 -192 OFFCURVE",
"476 -166 OFFCURVE",
"476 -129 CURVE SMOOTH",
"476 -93 OFFCURVE",
"447 -66 OFFCURVE",
"413 -66 CURVE SMOOTH",
"378 -66 OFFCURVE",
"350 -93 OFFCURVE",
"350 -129 CURVE SMOOTH",
"350 -166 OFFCURVE",
"378 -192 OFFCURVE",
"413 -192 CURVE SMOOTH"
);
}
);
width = 811;
}
);
note = Ndotbelow;
unicode = 1E46;
},
{
glyphname = Eng;
lastChange = "2015-07-16 19:12:08 +0000";
layers = (
{
layerId = "A2C5D99E-4902-4090-BBD9-379E2297F70D";
name = Bold;
paths = (
{
closed = 1;
nodes = (
"566 -224 OFFCURVE",
"684 -166 OFFCURVE",
"684 -20 CURVE SMOOTH",
"684 623 LINE",
"721 639 LINE SMOOTH",
"745 649 OFFCURVE",
"763 662 OFFCURVE",
"763 678 CURVE SMOOTH",
"763 688 OFFCURVE",
"760 695 OFFCURVE",
"747 695 CURVE SMOOTH",
"565 695 LINE SMOOTH",
"532 695 OFFCURVE",
"509 681 OFFCURVE",
"509 653 CURVE SMOOTH",
"509 634 OFFCURVE",
"518 623 OFFCURVE",
"534 623 CURVE SMOOTH",
"591 623 LINE",
"591 162 LINE",
"576 195 OFFCURVE",
"561 230 OFFCURVE",
"530 276 CURVE SMOOTH",
"239 695 LINE",
"70 695 LINE SMOOTH",
"60 695 OFFCURVE",
"51 688 OFFCURVE",
"51 670 CURVE SMOOTH",
"51 646 OFFCURVE",
"63 632 OFFCURVE",
"104 622 CURVE SMOOTH",
"124 617 LINE",
"124 72 LINE",
"107 72 LINE SMOOTH",
"74 72 OFFCURVE",
"51 58 OFFCURVE",
"51 30 CURVE SMOOTH",
"51 11 OFFCURVE",
"60 0 OFFCURVE",
"76 0 CURVE SMOOTH",
"289 0 LINE SMOOTH",
"302 0 OFFCURVE",
"305 7 OFFCURVE",
"305 17 CURVE SMOOTH",
"305 35 OFFCURVE",
"295 46 OFFCURVE",
"267 55 CURVE SMOOTH",
"217 72 LINE",
"217 532 LINE",
"233 492 OFFCURVE",
"246 466 OFFCURVE",
"267 436 CURVE SMOOTH",
"569 0 LINE",
"569 -23 LINE SMOOTH",
"569 -110 OFFCURVE",
"527 -151 OFFCURVE",
"443 -167 CURVE",
"467 -236 LINE"
);
}
);
width = 812;
}
);
note = Eng;
unicode = 014A;
},
{
glyphname = Nlinebelow;
lastChange = "2015-07-16 19:12:08 +0000";
layers = (
{
components = (
{
name = N;
}
);
layerId = "A2C5D99E-4902-4090-BBD9-379E2297F70D";
name = Bold;
paths = (
{
closed = 1;
nodes = (
"607 -167 LINE",
"607 -88 LINE",
"206 -88 LINE",
"206 -167 LINE"
);
}
);
width = 811;
}
);
note = Nlinebelow;
unicode = 1E48;
},
{
glyphname = Ntilde;
lastChange = "2015-07-16 19:12:08 +0000";
layers = (
{
components = (
{
name = N;
}
);
layerId = "A2C5D99E-4902-4090-BBD9-379E2297F70D";
name = Bold;
paths = (
{
closed = 1;
nodes = (
"493 764 OFFCURVE",
"529 783 OFFCURVE",
"560 814 CURVE",
"520 871 LINE",
"499 855 OFFCURVE",
"480 846 OFFCURVE",
"459 846 CURVE SMOOTH",
"416 846 OFFCURVE",
"379 885 OFFCURVE",
"334 885 CURVE SMOOTH",
"301 885 OFFCURVE",
"261 863 OFFCURVE",
"230 835 CURVE",
"270 778 LINE",
"290 792 OFFCURVE",
"308 803 OFFCURVE",
"334 803 CURVE SMOOTH",
"378 803 OFFCURVE",
"413 764 OFFCURVE",
"460 764 CURVE SMOOTH"
);
}
);
width = 811;
}
);
note = Ntilde;
unicode = 00D1;
},
{
glyphname = O;
lastChange = "2015-07-16 19:12:09 +0000";
layers = (
{
layerId = "A2C5D99E-4902-4090-BBD9-379E2297F70D";
name = Bold;
paths = (
{
closed = 1;
nodes = (
"566 -14 OFFCURVE",
"713 97 OFFCURVE",
"713 347 CURVE SMOOTH",
"713 596 OFFCURVE",
"566 709 OFFCURVE",
"378 709 CURVE SMOOTH",
"190 709 OFFCURVE",
"43 596 OFFCURVE",
"43 347 CURVE SMOOTH",
"43 97 OFFCURVE",
"190 -14 OFFCURVE",
"378 -14 CURVE SMOOTH"
);
},
{
closed = 1;
nodes = (
"242 66 OFFCURVE",
"170 167 OFFCURVE",
"170 347 CURVE SMOOTH",
"170 527 OFFCURVE",
"242 629 OFFCURVE",
"378 629 CURVE SMOOTH",
"515 629 OFFCURVE",
"586 527 OFFCURVE",
"586 347 CURVE SMOOTH",
"586 167 OFFCURVE",
"515 66 OFFCURVE",
"378 66 CURVE SMOOTH"
);
}
);
width = 756;
}
);
note = O;
unicode = 004F;
},
{
glyphname = Oacute;
lastChange = "2015-07-16 19:12:08 +0000";
layers = (
{
layerId = "A2C5D99E-4902-4090-BBD9-379E2297F70D";
name = Bold;
paths = (
{
closed = 1;
nodes = (
"566 -14 OFFCURVE",
"713 97 OFFCURVE",
"713 347 CURVE SMOOTH",
"713 596 OFFCURVE",
"566 709 OFFCURVE",
"378 709 CURVE SMOOTH",
"190 709 OFFCURVE",
"43 596 OFFCURVE",
"43 347 CURVE SMOOTH",
"43 97 OFFCURVE",
"190 -14 OFFCURVE",
"378 -14 CURVE SMOOTH"
);
},
{
closed = 1;
nodes = (
"242 66 OFFCURVE",
"170 167 OFFCURVE",
"170 347 CURVE SMOOTH",
"170 527 OFFCURVE",
"242 629 OFFCURVE",
"378 629 CURVE SMOOTH",
"515 629 OFFCURVE",
"586 527 OFFCURVE",
"586 347 CURVE SMOOTH",
"586 167 OFFCURVE",
"515 66 OFFCURVE",
"378 66 CURVE SMOOTH"
);
},
{
closed = 1;
nodes = (
"484 912 LINE",
"396 970 LINE",
"293 797 LINE",
"361 753 LINE"
);
}
);
width = 756;
}
);
note = Oacute;
unicode = 00D3;
},
{
glyphname = Obreve;
lastChange = "2015-07-16 19:12:09 +0000";
layers = (
{
layerId = "A2C5D99E-4902-4090-BBD9-379E2297F70D";
name = Bold;
paths = (
{
closed = 1;
nodes = (
"566 -14 OFFCURVE",
"713 97 OFFCURVE",
"713 347 CURVE SMOOTH",
"713 596 OFFCURVE",
"566 709 OFFCURVE",
"378 709 CURVE SMOOTH",
"190 709 OFFCURVE",
"43 596 OFFCURVE",
"43 347 CURVE SMOOTH",
"43 97 OFFCURVE",
"190 -14 OFFCURVE",
"378 -14 CURVE SMOOTH"
);
},
{
closed = 1;
nodes = (
"242 66 OFFCURVE",
"170 167 OFFCURVE",
"170 347 CURVE SMOOTH",
"170 527 OFFCURVE",
"242 629 OFFCURVE",
"378 629 CURVE SMOOTH",
"515 629 OFFCURVE",
"586 527 OFFCURVE",
"586 347 CURVE SMOOTH",
"586 167 OFFCURVE",
"515 66 OFFCURVE",
"378 66 CURVE SMOOTH"
);
},
{
closed = 1;
nodes = (
"448 747 OFFCURVE",
"515 785 OFFCURVE",
"542 882 CURVE",
"478 905 LINE",
"461 856 OFFCURVE",
"425 827 OFFCURVE",
"378 827 CURVE SMOOTH",
"331 827 OFFCURVE",
"294 856 OFFCURVE",
"278 905 CURVE",
"213 882 LINE",
"240 785 OFFCURVE",
"307 747 OFFCURVE",
"378 747 CURVE SMOOTH"
);
}
);
width = 756;
}
);
note = Obreve;
unicode = 014E;
},
{
glyphname = Ocaron;
lastChange = "2015-07-16 19:12:09 +0000";
layers = (
{
layerId = "A2C5D99E-4902-4090-BBD9-379E2297F70D";
name = Bold;
paths = (
{
closed = 1;
nodes = (
"566 -14 OFFCURVE",
"713 97 OFFCURVE",
"713 347 CURVE SMOOTH",
"713 596 OFFCURVE",
"566 709 OFFCURVE",
"378 709 CURVE SMOOTH",
"190 709 OFFCURVE",
"43 596 OFFCURVE",
"43 347 CURVE SMOOTH",
"43 97 OFFCURVE",
"190 -14 OFFCURVE",
"378 -14 CURVE SMOOTH"
);
},
{
closed = 1;
nodes = (
"242 66 OFFCURVE",
"170 167 OFFCURVE",
"170 347 CURVE SMOOTH",
"170 527 OFFCURVE",
"242 629 OFFCURVE",
"378 629 CURVE SMOOTH",
"515 629 OFFCURVE",
"586 527 OFFCURVE",
"586 347 CURVE SMOOTH",
"586 167 OFFCURVE",
"515 66 OFFCURVE",
"378 66 CURVE SMOOTH"
);
},
{
closed = 1;
nodes = (
"407 753 LINE",
"525 906 LINE",
"473 952 LINE",
"378 845 LINE",
"283 952 LINE",
"231 906 LINE",
"350 753 LINE"
);
}
);
width = 756;
}
);
note = Ocaron;
unicode = 01D1;
},
{
glyphname = Ocircumflex;
lastChange = "2015-07-16 19:12:09 +0000";
layers = (
{
layerId = "A2C5D99E-4902-4090-BBD9-379E2297F70D";
name = Bold;
paths = (
{
closed = 1;
nodes = (
"566 -14 OFFCURVE",
"713 97 OFFCURVE",
"713 347 CURVE SMOOTH",
"713 596 OFFCURVE",
"566 709 OFFCURVE",
"378 709 CURVE SMOOTH",
"190 709 OFFCURVE",
"43 596 OFFCURVE",
"43 347 CURVE SMOOTH",
"43 97 OFFCURVE",
"190 -14 OFFCURVE",
"378 -14 CURVE SMOOTH"
);
},
{
closed = 1;
nodes = (
"242 66 OFFCURVE",
"170 167 OFFCURVE",
"170 347 CURVE SMOOTH",
"170 527 OFFCURVE",
"242 629 OFFCURVE",
"378 629 CURVE SMOOTH",
"515 629 OFFCURVE",
"586 527 OFFCURVE",
"586 347 CURVE SMOOTH",
"586 167 OFFCURVE",
"515 66 OFFCURVE",
"378 66 CURVE SMOOTH"
);
},
{
closed = 1;
nodes = (
"378 860 LINE",
"473 753 LINE",
"525 798 LINE",
"407 952 LINE",
"350 952 LINE",
"231 798 LINE",
"283 753 LINE"
);
}
);
width = 756;
}
);
note = Ocircumflex;
unicode = 00D4;
},
{
glyphname = Ocircumflexacute;
lastChange = "2015-07-16 19:12:08 +0000";
layers = (
{
layerId = "A2C5D99E-4902-4090-BBD9-379E2297F70D";
name = Bold;
paths = (
{
closed = 1;
nodes = (
"566 -14 OFFCURVE",
"713 97 OFFCURVE",
"713 347 CURVE SMOOTH",
"713 596 OFFCURVE",
"566 709 OFFCURVE",
"378 709 CURVE SMOOTH",
"190 709 OFFCURVE",
"43 596 OFFCURVE",
"43 347 CURVE SMOOTH",
"43 97 OFFCURVE",
"190 -14 OFFCURVE",
"378 -14 CURVE SMOOTH"
);
},
{
closed = 1;
nodes = (
"242 66 OFFCURVE",
"170 167 OFFCURVE",
"170 347 CURVE SMOOTH",
"170 527 OFFCURVE",
"242 629 OFFCURVE",
"378 629 CURVE SMOOTH",
"515 629 OFFCURVE",
"586 527 OFFCURVE",
"586 347 CURVE SMOOTH",
"586 167 OFFCURVE",
"515 66 OFFCURVE",
"378 66 CURVE SMOOTH"
);
},
{
closed = 1;
nodes = (
"377 860 LINE",
"472 753 LINE",
"524 798 LINE",
"406 952 LINE",
"349 952 LINE",
"230 798 LINE",
"282 753 LINE"
);
},
{
closed = 1;
nodes = (
"629 979 LINE",
"550 1031 LINE",
"483 909 LINE",
"535 873 LINE"
);
}
);
width = 756;
}
);
note = Ocircumflexacute;
unicode = 1ED0;
},
{
glyphname = Ocircumflexdotbelow;
lastChange = "2015-07-16 19:12:08 +0000";
layers = (
{
layerId = "A2C5D99E-4902-4090-BBD9-379E2297F70D";
name = Bold;
paths = (
{
closed = 1;
nodes = (
"566 -14 OFFCURVE",
"713 97 OFFCURVE",
"713 347 CURVE SMOOTH",
"713 596 OFFCURVE",
"566 709 OFFCURVE",
"378 709 CURVE SMOOTH",
"190 709 OFFCURVE",
"43 596 OFFCURVE",
"43 347 CURVE SMOOTH",
"43 97 OFFCURVE",
"190 -14 OFFCURVE",
"378 -14 CURVE SMOOTH"
);
},
{
closed = 1;
nodes = (
"413 -192 OFFCURVE",
"442 -166 OFFCURVE",
"442 -129 CURVE SMOOTH",
"442 -93 OFFCURVE",
"413 -66 OFFCURVE",
"379 -66 CURVE SMOOTH",
"344 -66 OFFCURVE",
"316 -93 OFFCURVE",
"316 -129 CURVE SMOOTH",
"316 -166 OFFCURVE",
"344 -192 OFFCURVE",
"379 -192 CURVE SMOOTH"
);
},
{
closed = 1;
nodes = (
"242 66 OFFCURVE",
"170 167 OFFCURVE",
"170 347 CURVE SMOOTH",
"170 527 OFFCURVE",
"242 629 OFFCURVE",
"378 629 CURVE SMOOTH",
"515 629 OFFCURVE",
"586 527 OFFCURVE",
"586 347 CURVE SMOOTH",
"586 167 OFFCURVE",
"515 66 OFFCURVE",
"378 66 CURVE SMOOTH"
);
},
{
closed = 1;
nodes = (
"378 860 LINE",
"473 753 LINE",
"525 798 LINE",
"407 952 LINE",
"350 952 LINE",
"231 798 LINE",
"283 753 LINE"
);
}
);
width = 756;
}
);
note = Ocircumflexdotbelow;
unicode = 1ED8;
},
{
glyphname = Ocircumflexgrave;
lastChange = "2015-07-16 19:12:08 +0000";
layers = (
{
layerId = "A2C5D99E-4902-4090-BBD9-379E2297F70D";
name = Bold;
paths = (
{
closed = 1;
nodes = (
"566 -14 OFFCURVE",
"713 97 OFFCURVE",
"713 347 CURVE SMOOTH",
"713 596 OFFCURVE",
"566 709 OFFCURVE",
"378 709 CURVE SMOOTH",
"190 709 OFFCURVE",
"43 596 OFFCURVE",
"43 347 CURVE SMOOTH",
"43 97 OFFCURVE",
"190 -14 OFFCURVE",
"378 -14 CURVE SMOOTH"
);
},
{
closed = 1;
nodes = (
"242 66 OFFCURVE",
"170 167 OFFCURVE",
"170 347 CURVE SMOOTH",
"170 527 OFFCURVE",
"242 629 OFFCURVE",
"378 629 CURVE SMOOTH",
"515 629 OFFCURVE",
"586 527 OFFCURVE",
"586 347 CURVE SMOOTH",
"586 167 OFFCURVE",
"515 66 OFFCURVE",
"378 66 CURVE SMOOTH"
);
},
{
closed = 1;
nodes = (
"277 909 LINE",
"210 1031 LINE",
"131 979 LINE",
"225 873 LINE"
);
},
{
closed = 1;
nodes = (
"382 860 LINE",
"477 753 LINE",
"529 798 LINE",
"411 952 LINE",
"354 952 LINE",
"235 798 LINE",
"287 753 LINE"
);
}
);
width = 756;
}
);
note = Ocircumflexgrave;
unicode = 1ED2;
},
{
glyphname = Ocircumflexhookabove;
lastChange = "2015-07-16 19:12:08 +0000";
layers = (
{
layerId = "A2C5D99E-4902-4090-BBD9-379E2297F70D";
name = Bold;
paths = (
{
closed = 1;
nodes = (
"566 -14 OFFCURVE",
"713 97 OFFCURVE",
"713 347 CURVE SMOOTH",
"713 596 OFFCURVE",
"566 709 OFFCURVE",
"378 709 CURVE SMOOTH",
"190 709 OFFCURVE",
"43 596 OFFCURVE",
"43 347 CURVE SMOOTH",
"43 97 OFFCURVE",
"190 -14 OFFCURVE",
"378 -14 CURVE SMOOTH"
);
},
{
closed = 1;
nodes = (
"242 66 OFFCURVE",
"170 167 OFFCURVE",
"170 347 CURVE SMOOTH",
"170 527 OFFCURVE",
"242 629 OFFCURVE",
"378 629 CURVE SMOOTH",
"515 629 OFFCURVE",
"586 527 OFFCURVE",
"586 347 CURVE SMOOTH",
"586 167 OFFCURVE",
"515 66 OFFCURVE",
"378 66 CURVE SMOOTH"
);
},
{
closed = 1;
nodes = (
"385 860 LINE",
"480 753 LINE",
"532 798 LINE",
"414 952 LINE",
"357 952 LINE",
"238 798 LINE",
"290 753 LINE"
);
},
{
closed = 1;
nodes = (
"580 872 LINE",
"586 919 LINE",
"630 934 OFFCURVE",
"656 963 OFFCURVE",
"656 1001 CURVE SMOOTH",
"656 1043 OFFCURVE",
"619 1079 OFFCURVE",
"558 1079 CURVE SMOOTH",
"533 1079 OFFCURVE",
"502 1070 OFFCURVE",
"485 1063 CURVE",
"493 1019 LINE",
"512 1024 OFFCURVE",
"529 1028 OFFCURVE",
"547 1028 CURVE SMOOTH",
"569 1028 OFFCURVE",
"579 1018 OFFCURVE",
"579 1000 CURVE SMOOTH",
"579 976 OFFCURVE",
"556 960 OFFCURVE",
"519 946 CURVE",
"526 872 LINE"
);
}
);
width = 756;
}
);
note = Ocircumflexhookabove;
unicode = 1ED4;
},
{
glyphname = Ocircumflextilde;
lastChange = "2015-07-16 19:12:08 +0000";
layers = (
{
layerId = "A2C5D99E-4902-4090-BBD9-379E2297F70D";
name = Bold;
paths = (
{
closed = 1;
nodes = (
"566 -14 OFFCURVE",
"713 97 OFFCURVE",
"713 347 CURVE SMOOTH",
"713 596 OFFCURVE",
"566 709 OFFCURVE",
"378 709 CURVE SMOOTH",
"190 709 OFFCURVE",
"43 596 OFFCURVE",
"43 347 CURVE SMOOTH",
"43 97 OFFCURVE",
"190 -14 OFFCURVE",
"378 -14 CURVE SMOOTH"
);
},
{
closed = 1;
nodes = (
"242 66 OFFCURVE",
"170 167 OFFCURVE",
"170 347 CURVE SMOOTH",
"170 527 OFFCURVE",
"242 629 OFFCURVE",
"378 629 CURVE SMOOTH",
"515 629 OFFCURVE",
"586 527 OFFCURVE",
"586 347 CURVE SMOOTH",
"586 167 OFFCURVE",
"515 66 OFFCURVE",
"378 66 CURVE SMOOTH"
);
},
{
closed = 1;
nodes = (
"448 747 OFFCURVE",
"515 785 OFFCURVE",
"542 882 CURVE",
"478 905 LINE",
"461 856 OFFCURVE",
"425 827 OFFCURVE",
"378 827 CURVE SMOOTH",
"331 827 OFFCURVE",
"294 856 OFFCURVE",
"278 905 CURVE",
"213 882 LINE",
"240 785 OFFCURVE",
"307 747 OFFCURVE",
"378 747 CURVE SMOOTH"
);
},
{
closed = 1;
nodes = (
"456 938 OFFCURVE",
"485 954 OFFCURVE",
"510 979 CURVE",
"477 1026 LINE",
"461 1014 OFFCURVE",
"446 1007 OFFCURVE",
"428 1007 CURVE SMOOTH",
"394 1007 OFFCURVE",
"365 1038 OFFCURVE",
"328 1038 CURVE SMOOTH",
"302 1038 OFFCURVE",
"270 1021 OFFCURVE",
"245 998 CURVE",
"278 950 LINE",
"293 961 OFFCURVE",
"307 970 OFFCURVE",
"328 970 CURVE SMOOTH",
"363 970 OFFCURVE",
"391 938 OFFCURVE",
"429 938 CURVE SMOOTH"
);
}
);
width = 756;
}
);
note = Ocircumflextilde;
unicode = 1ED6;
},
{
glyphname = Odieresis;
lastChange = "2015-07-16 19:12:08 +0000";
layers = (
{
layerId = "A2C5D99E-4902-4090-BBD9-379E2297F70D";
name = Bold;
paths = (
{
closed = 1;
nodes = (
"566 -14 OFFCURVE",
"713 97 OFFCURVE",
"713 347 CURVE SMOOTH",
"713 596 OFFCURVE",
"566 709 OFFCURVE",
"378 709 CURVE SMOOTH",
"190 709 OFFCURVE",
"43 596 OFFCURVE",
"43 347 CURVE SMOOTH",
"43 97 OFFCURVE",
"190 -14 OFFCURVE",
"378 -14 CURVE SMOOTH"
);
},
{
closed = 1;
nodes = (
"242 66 OFFCURVE",
"170 167 OFFCURVE",
"170 347 CURVE SMOOTH",
"170 527 OFFCURVE",
"242 629 OFFCURVE",
"378 629 CURVE SMOOTH",
"515 629 OFFCURVE",
"586 527 OFFCURVE",
"586 347 CURVE SMOOTH",
"586 167 OFFCURVE",
"515 66 OFFCURVE",
"378 66 CURVE SMOOTH"
);
},
{
closed = 1;
nodes = (
"310 764 OFFCURVE",
"338 790 OFFCURVE",
"338 827 CURVE SMOOTH",
"338 863 OFFCURVE",
"310 890 OFFCURVE",
"276 890 CURVE SMOOTH",
"242 890 OFFCURVE",
"213 863 OFFCURVE",
"213 827 CURVE SMOOTH",
"213 790 OFFCURVE",
"242 764 OFFCURVE",
"276 764 CURVE SMOOTH"
);
},
{
closed = 1;
nodes = (
"515 764 OFFCURVE",
"543 790 OFFCURVE",
"543 827 CURVE SMOOTH",
"543 863 OFFCURVE",
"515 890 OFFCURVE",
"481 890 CURVE SMOOTH",
"447 890 OFFCURVE",
"418 863 OFFCURVE",
"418 827 CURVE SMOOTH",
"418 790 OFFCURVE",
"447 764 OFFCURVE",
"481 764 CURVE SMOOTH"
);
}
);
width = 756;
}
);
note = Odieresis;
unicode = 00D6;
},
{
glyphname = Odotbelow;
lastChange = "2015-07-16 19:12:08 +0000";
layers = (
{
layerId = "A2C5D99E-4902-4090-BBD9-379E2297F70D";
name = Bold;
paths = (
{
closed = 1;
nodes = (
"566 -14 OFFCURVE",
"713 97 OFFCURVE",
"713 347 CURVE SMOOTH",
"713 596 OFFCURVE",
"566 709 OFFCURVE",
"378 709 CURVE SMOOTH",
"190 709 OFFCURVE",
"43 596 OFFCURVE",
"43 347 CURVE SMOOTH",
"43 97 OFFCURVE",
"190 -14 OFFCURVE",
"378 -14 CURVE SMOOTH"
);
},
{
closed = 1;
nodes = (
"412 -192 OFFCURVE",
"441 -166 OFFCURVE",
"441 -129 CURVE SMOOTH",
"441 -93 OFFCURVE",
"412 -66 OFFCURVE",
"378 -66 CURVE SMOOTH",
"343 -66 OFFCURVE",
"315 -93 OFFCURVE",
"315 -129 CURVE SMOOTH",
"315 -166 OFFCURVE",
"343 -192 OFFCURVE",
"378 -192 CURVE SMOOTH"
);
},
{
closed = 1;
nodes = (
"242 66 OFFCURVE",
"170 167 OFFCURVE",
"170 347 CURVE SMOOTH",
"170 527 OFFCURVE",
"242 629 OFFCURVE",
"378 629 CURVE SMOOTH",
"515 629 OFFCURVE",
"586 527 OFFCURVE",
"586 347 CURVE SMOOTH",
"586 167 OFFCURVE",
"515 66 OFFCURVE",
"378 66 CURVE SMOOTH"
);
}
);
width = 756;
}
);
note = Odotbelow;
unicode = 1ECC;
},
{
glyphname = Ograve;
lastChange = "2015-07-16 19:12:09 +0000";
layers = (
{
layerId = "A2C5D99E-4902-4090-BBD9-379E2297F70D";
name = Bold;
paths = (
{
closed = 1;
nodes = (
"566 -14 OFFCURVE",
"713 97 OFFCURVE",
"713 347 CURVE SMOOTH",
"713 596 OFFCURVE",
"566 709 OFFCURVE",
"378 709 CURVE SMOOTH",
"190 709 OFFCURVE",
"43 596 OFFCURVE",
"43 347 CURVE SMOOTH",
"43 97 OFFCURVE",
"190 -14 OFFCURVE",
"378 -14 CURVE SMOOTH"
);
},
{
closed = 1;
nodes = (
"242 66 OFFCURVE",
"170 167 OFFCURVE",
"170 347 CURVE SMOOTH",
"170 527 OFFCURVE",
"242 629 OFFCURVE",
"378 629 CURVE SMOOTH",
"515 629 OFFCURVE",
"586 527 OFFCURVE",
"586 347 CURVE SMOOTH",
"586 167 OFFCURVE",
"515 66 OFFCURVE",
"378 66 CURVE SMOOTH"
);
},
{
closed = 1;
nodes = (
"441 798 LINE",
"339 971 LINE",
"250 913 LINE",
"374 754 LINE"
);
}
);
width = 756;
}
);
note = Ograve;
unicode = 00D2;
},
{
glyphname = Ohookabove;
lastChange = "2015-07-16 19:12:09 +0000";
layers = (
{
layerId = "A2C5D99E-4902-4090-BBD9-379E2297F70D";
name = Bold;
paths = (
{
closed = 1;
nodes = (
"566 -14 OFFCURVE",
"713 97 OFFCURVE",
"713 347 CURVE SMOOTH",
"713 596 OFFCURVE",
"566 709 OFFCURVE",
"378 709 CURVE SMOOTH",
"190 709 OFFCURVE",
"43 596 OFFCURVE",
"43 347 CURVE SMOOTH",
"43 97 OFFCURVE",
"190 -14 OFFCURVE",
"378 -14 CURVE SMOOTH"
);
},
{
closed = 1;
nodes = (
"242 66 OFFCURVE",
"170 167 OFFCURVE",
"170 347 CURVE SMOOTH",
"170 527 OFFCURVE",
"242 629 OFFCURVE",
"378 629 CURVE SMOOTH",
"515 629 OFFCURVE",
"586 527 OFFCURVE",
"586 347 CURVE SMOOTH",
"586 167 OFFCURVE",
"515 66 OFFCURVE",
"378 66 CURVE SMOOTH"
);
},
{
closed = 1;
nodes = (
"414 750 LINE",
"421 798 LINE",
"465 814 OFFCURVE",
"491 843 OFFCURVE",
"491 881 CURVE SMOOTH",
"491 924 OFFCURVE",
"454 960 OFFCURVE",
"392 960 CURVE SMOOTH",
"366 960 OFFCURVE",
"336 951 OFFCURVE",
"318 944 CURVE",
"326 900 LINE",
"346 905 OFFCURVE",
"362 909 OFFCURVE",
"381 909 CURVE SMOOTH",
"404 909 OFFCURVE",
"413 899 OFFCURVE",
"413 880 CURVE SMOOTH",
"413 855 OFFCURVE",
"390 839 OFFCURVE",
"352 825 CURVE",
"360 750 LINE"
);
}
);
width = 756;
}
);
note = Ohookabove;
unicode = 1ECE;
},
{
glyphname = Ohorn;
lastChange = "2015-07-16 19:12:08 +0000";
layers = (
{
layerId = "A2C5D99E-4902-4090-BBD9-379E2297F70D";
name = Bold;
paths = (
{
closed = 1;
nodes = (
"566 -14 OFFCURVE",
"713 97 OFFCURVE",
"713 347 CURVE SMOOTH",
"713 450 OFFCURVE",
"688 530 OFFCURVE",
"645 588 CURVE",
"705 624 OFFCURVE",
"763 681 OFFCURVE",
"763 767 CURVE",
"636 767 LINE",
"636 712 OFFCURVE",
"619 670 OFFCURVE",
"586 645 CURVE",
"530 687 OFFCURVE",
"457 709 OFFCURVE",
"378 709 CURVE SMOOTH",
"190 709 OFFCURVE",
"43 596 OFFCURVE",
"43 347 CURVE SMOOTH",
"43 97 OFFCURVE",
"190 -14 OFFCURVE",
"378 -14 CURVE SMOOTH"
);
},
{
closed = 1;
nodes = (
"242 66 OFFCURVE",
"170 167 OFFCURVE",
"170 347 CURVE SMOOTH",
"170 527 OFFCURVE",
"242 629 OFFCURVE",
"378 629 CURVE SMOOTH",
"515 629 OFFCURVE",
"586 527 OFFCURVE",
"586 347 CURVE SMOOTH",
"586 167 OFFCURVE",
"515 66 OFFCURVE",
"378 66 CURVE SMOOTH"
);
}
);
width = 795;
}
);
note = Ohorn;
unicode = 01A0;
},
{
glyphname = Ohornacute;
lastChange = "2015-07-16 19:12:09 +0000";
layers = (
{
layerId = "A2C5D99E-4902-4090-BBD9-379E2297F70D";
name = Bold;
paths = (
{
closed = 1;
nodes = (
"566 -14 OFFCURVE",
"713 97 OFFCURVE",
"713 347 CURVE SMOOTH",
"713 450 OFFCURVE",
"688 530 OFFCURVE",
"645 588 CURVE",
"705 624 OFFCURVE",
"763 681 OFFCURVE",
"763 767 CURVE",
"636 767 LINE",
"636 712 OFFCURVE",
"619 670 OFFCURVE",
"586 645 CURVE",
"530 687 OFFCURVE",
"457 709 OFFCURVE",
"378 709 CURVE SMOOTH",
"190 709 OFFCURVE",
"43 596 OFFCURVE",
"43 347 CURVE SMOOTH",
"43 97 OFFCURVE",
"190 -14 OFFCURVE",
"378 -14 CURVE SMOOTH"
);
},
{
closed = 1;
nodes = (
"242 66 OFFCURVE",
"170 167 OFFCURVE",
"170 347 CURVE SMOOTH",
"170 527 OFFCURVE",
"242 629 OFFCURVE",
"378 629 CURVE SMOOTH",
"515 629 OFFCURVE",
"586 527 OFFCURVE",
"586 347 CURVE SMOOTH",
"586 167 OFFCURVE",
"515 66 OFFCURVE",
"378 66 CURVE SMOOTH"
);
},
{
closed = 1;
nodes = (
"473 912 LINE",
"385 970 LINE",
"282 797 LINE",
"350 753 LINE"
);
}
);
width = 795;
}
);
note = Ohornacute;
unicode = 1EDA;
},
{
glyphname = Ohorndotbelow;
lastChange = "2015-07-16 19:12:09 +0000";
layers = (
{
layerId = "A2C5D99E-4902-4090-BBD9-379E2297F70D";
name = Bold;
paths = (
{
closed = 1;
nodes = (
"566 -14 OFFCURVE",
"713 97 OFFCURVE",
"713 347 CURVE SMOOTH",
"713 450 OFFCURVE",
"688 530 OFFCURVE",
"645 588 CURVE",
"705 624 OFFCURVE",
"763 681 OFFCURVE",
"763 767 CURVE",
"636 767 LINE",
"636 712 OFFCURVE",
"619 670 OFFCURVE",
"586 645 CURVE",
"530 687 OFFCURVE",
"457 709 OFFCURVE",
"378 709 CURVE SMOOTH",
"190 709 OFFCURVE",
"43 596 OFFCURVE",
"43 347 CURVE SMOOTH",
"43 97 OFFCURVE",
"190 -14 OFFCURVE",
"378 -14 CURVE SMOOTH"
);
},
{
closed = 1;
nodes = (
"417 -192 OFFCURVE",
"446 -166 OFFCURVE",
"446 -129 CURVE SMOOTH",
"446 -93 OFFCURVE",
"417 -66 OFFCURVE",
"383 -66 CURVE SMOOTH",
"348 -66 OFFCURVE",
"320 -93 OFFCURVE",
"320 -129 CURVE SMOOTH",
"320 -166 OFFCURVE",
"348 -192 OFFCURVE",
"383 -192 CURVE SMOOTH"
);
},
{
closed = 1;
nodes = (
"242 66 OFFCURVE",
"170 167 OFFCURVE",
"170 347 CURVE SMOOTH",
"170 527 OFFCURVE",
"242 629 OFFCURVE",
"378 629 CURVE SMOOTH",
"515 629 OFFCURVE",
"586 527 OFFCURVE",
"586 347 CURVE SMOOTH",
"586 167 OFFCURVE",
"515 66 OFFCURVE",
"378 66 CURVE SMOOTH"
);
}
);
width = 795;
}
);
note = Ohorndotbelow;
unicode = 1EE2;
},
{
glyphname = Ohorngrave;
lastChange = "2015-07-16 19:12:08 +0000";
layers = (
{
layerId = "A2C5D99E-4902-4090-BBD9-379E2297F70D";
name = Bold;
paths = (
{
closed = 1;
nodes = (
"566 -14 OFFCURVE",
"713 97 OFFCURVE",
"713 347 CURVE SMOOTH",
"713 450 OFFCURVE",
"688 530 OFFCURVE",
"645 588 CURVE",
"705 624 OFFCURVE",
"763 681 OFFCURVE",
"763 767 CURVE",
"636 767 LINE",
"636 712 OFFCURVE",
"619 670 OFFCURVE",
"586 645 CURVE",
"530 687 OFFCURVE",
"457 709 OFFCURVE",
"378 709 CURVE SMOOTH",
"190 709 OFFCURVE",
"43 596 OFFCURVE",
"43 347 CURVE SMOOTH",
"43 97 OFFCURVE",
"190 -14 OFFCURVE",
"378 -14 CURVE SMOOTH"
);
},
{
closed = 1;
nodes = (
"242 66 OFFCURVE",
"170 167 OFFCURVE",
"170 347 CURVE SMOOTH",
"170 527 OFFCURVE",
"242 629 OFFCURVE",
"378 629 CURVE SMOOTH",
"515 629 OFFCURVE",
"586 527 OFFCURVE",
"586 347 CURVE SMOOTH",
"586 167 OFFCURVE",
"515 66 OFFCURVE",
"378 66 CURVE SMOOTH"
);
},
{
closed = 1;
nodes = (
"456 798 LINE",
"354 971 LINE",
"265 913 LINE",
"389 754 LINE"
);
}
);
width = 795;
}
);
note = Ohorngrave;
unicode = 1EDC;
},
{
glyphname = Ohornhookabove;
lastChange = "2015-07-16 19:12:08 +0000";
layers = (
{
layerId = "A2C5D99E-4902-4090-BBD9-379E2297F70D";
name = Bold;
paths = (
{
closed = 1;
nodes = (
"566 -14 OFFCURVE",
"713 97 OFFCURVE",
"713 347 CURVE SMOOTH",
"713 450 OFFCURVE",
"688 530 OFFCURVE",
"645 588 CURVE",
"705 624 OFFCURVE",
"763 681 OFFCURVE",
"763 767 CURVE",
"636 767 LINE",
"636 712 OFFCURVE",
"619 670 OFFCURVE",
"586 645 CURVE",
"530 687 OFFCURVE",
"457 709 OFFCURVE",
"378 709 CURVE SMOOTH",
"190 709 OFFCURVE",
"43 596 OFFCURVE",
"43 347 CURVE SMOOTH",
"43 97 OFFCURVE",
"190 -14 OFFCURVE",
"378 -14 CURVE SMOOTH"
);
},
{
closed = 1;
nodes = (
"242 66 OFFCURVE",
"170 167 OFFCURVE",
"170 347 CURVE SMOOTH",
"170 527 OFFCURVE",
"242 629 OFFCURVE",
"378 629 CURVE SMOOTH",
"515 629 OFFCURVE",
"586 527 OFFCURVE",
"586 347 CURVE SMOOTH",
"586 167 OFFCURVE",
"515 66 OFFCURVE",
"378 66 CURVE SMOOTH"
);
},
{
closed = 1;
nodes = (
"406 750 LINE",
"413 798 LINE",
"457 814 OFFCURVE",
"483 843 OFFCURVE",
"483 881 CURVE SMOOTH",
"483 924 OFFCURVE",
"446 960 OFFCURVE",
"384 960 CURVE SMOOTH",
"358 960 OFFCURVE",
"328 951 OFFCURVE",
"310 944 CURVE",
"318 900 LINE",
"338 905 OFFCURVE",
"354 909 OFFCURVE",
"373 909 CURVE SMOOTH",
"396 909 OFFCURVE",
"405 899 OFFCURVE",
"405 880 CURVE SMOOTH",
"405 855 OFFCURVE",
"382 839 OFFCURVE",
"344 825 CURVE",
"352 750 LINE"
);
}
);
width = 795;
}
);
note = Ohornhookabove;
unicode = 1EDE;
},
{
glyphname = Ohorntilde;
lastChange = "2015-07-16 19:12:08 +0000";
layers = (
{
layerId = "A2C5D99E-4902-4090-BBD9-379E2297F70D";
name = Bold;
paths = (
{
closed = 1;
nodes = (
"566 -14 OFFCURVE",
"713 97 OFFCURVE",
"713 347 CURVE SMOOTH",
"713 450 OFFCURVE",
"688 530 OFFCURVE",
"645 588 CURVE",
"705 624 OFFCURVE",
"763 681 OFFCURVE",
"763 767 CURVE",
"636 767 LINE",
"636 712 OFFCURVE",
"619 670 OFFCURVE",
"586 645 CURVE",
"530 687 OFFCURVE",
"457 709 OFFCURVE",
"378 709 CURVE SMOOTH",
"190 709 OFFCURVE",
"43 596 OFFCURVE",
"43 347 CURVE SMOOTH",
"43 97 OFFCURVE",
"190 -14 OFFCURVE",
"378 -14 CURVE SMOOTH"
);
},
{
closed = 1;
nodes = (
"242 66 OFFCURVE",
"170 167 OFFCURVE",
"170 347 CURVE SMOOTH",
"170 527 OFFCURVE",
"242 629 OFFCURVE",
"378 629 CURVE SMOOTH",
"515 629 OFFCURVE",
"586 527 OFFCURVE",
"586 347 CURVE SMOOTH",
"586 167 OFFCURVE",
"515 66 OFFCURVE",
"378 66 CURVE SMOOTH"
);
},
{
closed = 1;
nodes = (
"474 764 OFFCURVE",
"510 783 OFFCURVE",
"541 814 CURVE",
"501 871 LINE",
"480 855 OFFCURVE",
"461 846 OFFCURVE",
"440 846 CURVE SMOOTH",
"397 846 OFFCURVE",
"360 885 OFFCURVE",
"315 885 CURVE SMOOTH",
"282 885 OFFCURVE",
"242 863 OFFCURVE",
"211 835 CURVE",
"251 778 LINE",
"271 792 OFFCURVE",
"289 803 OFFCURVE",
"315 803 CURVE SMOOTH",
"359 803 OFFCURVE",
"394 764 OFFCURVE",
"441 764 CURVE SMOOTH"
);
}
);
width = 795;
}
);
note = Ohorntilde;
unicode = 1EE0;
},
{
glyphname = Ohungarumlaut;
lastChange = "2015-07-16 19:12:08 +0000";
layers = (
{
layerId = "A2C5D99E-4902-4090-BBD9-379E2297F70D";
name = Bold;
paths = (
{
closed = 1;
nodes = (
"566 -14 OFFCURVE",
"713 97 OFFCURVE",
"713 347 CURVE SMOOTH",
"713 596 OFFCURVE",
"566 709 OFFCURVE",
"378 709 CURVE SMOOTH",
"190 709 OFFCURVE",
"43 596 OFFCURVE",
"43 347 CURVE SMOOTH",
"43 97 OFFCURVE",
"190 -14 OFFCURVE",
"378 -14 CURVE SMOOTH"
);
},
{
closed = 1;
nodes = (
"242 66 OFFCURVE",
"170 167 OFFCURVE",
"170 347 CURVE SMOOTH",
"170 527 OFFCURVE",
"242 629 OFFCURVE",
"378 629 CURVE SMOOTH",
"515 629 OFFCURVE",
"586 527 OFFCURVE",
"586 347 CURVE SMOOTH",
"586 167 OFFCURVE",
"515 66 OFFCURVE",
"378 66 CURVE SMOOTH"
);
},
{
closed = 1;
nodes = (
"438 959 LINE",
"362 1005 LINE",
"238 805 LINE",
"288 770 LINE"
);
},
{
closed = 1;
nodes = (
"630 959 LINE",
"554 1005 LINE",
"430 805 LINE",
"480 770 LINE"
);
}
);
width = 756;
}
);
note = Ohungarumlaut;
unicode = 0150;
},
{
glyphname = Omacron;
lastChange = "2015-07-16 19:12:08 +0000";
layers = (
{
layerId = "A2C5D99E-4902-4090-BBD9-379E2297F70D";
name = Bold;
paths = (
{
closed = 1;
nodes = (
"566 -14 OFFCURVE",
"713 97 OFFCURVE",
"713 347 CURVE SMOOTH",
"713 596 OFFCURVE",
"566 709 OFFCURVE",
"378 709 CURVE SMOOTH",
"190 709 OFFCURVE",
"43 596 OFFCURVE",
"43 347 CURVE SMOOTH",
"43 97 OFFCURVE",
"190 -14 OFFCURVE",
"378 -14 CURVE SMOOTH"
);
},
{
closed = 1;
nodes = (
"242 66 OFFCURVE",
"170 167 OFFCURVE",
"170 347 CURVE SMOOTH",
"170 527 OFFCURVE",
"242 629 OFFCURVE",
"378 629 CURVE SMOOTH",
"515 629 OFFCURVE",
"586 527 OFFCURVE",
"586 347 CURVE SMOOTH",
"586 167 OFFCURVE",
"515 66 OFFCURVE",
"378 66 CURVE SMOOTH"
);
},
{
closed = 1;
nodes = (
"525 785 LINE",
"525 864 LINE",
"231 864 LINE",
"231 785 LINE"
);
}
);
width = 756;
}
);
note = Omacron;
unicode = 014C;
},
{
glyphname = Oslash;
lastChange = "2015-07-16 19:12:08 +0000";
layers = (
{
layerId = "A2C5D99E-4902-4090-BBD9-379E2297F70D";
name = Bold;
paths = (
{
closed = 1;
nodes = (
"223 19 LINE",
"270 -3 OFFCURVE",
"325 -14 OFFCURVE",
"383 -14 CURVE SMOOTH",
"571 -14 OFFCURVE",
"718 97 OFFCURVE",
"718 347 CURVE SMOOTH",
"718 476 OFFCURVE",
"679 568 OFFCURVE",
"615 627 CURVE",
"673 717 LINE",
"601 758 LINE",
"547 674 LINE",
"499 698 OFFCURVE",
"443 709 OFFCURVE",
"383 709 CURVE SMOOTH",
"195 709 OFFCURVE",
"48 596 OFFCURVE",
"48 347 CURVE SMOOTH",
"48 215 OFFCURVE",
"89 122 OFFCURVE",
"155 64 CURVE",
"79 -54 LINE",
"150 -95 LINE"
);
},
{
closed = 1;
nodes = (
"189 205 OFFCURVE",
"175 268 OFFCURVE",
"175 347 CURVE SMOOTH",
"175 527 OFFCURVE",
"247 629 OFFCURVE",
"383 629 CURVE SMOOTH",
"428 629 OFFCURVE",
"466 618 OFFCURVE",
"497 596 CURVE",
"215 158 LINE"
);
},
{
closed = 1;
nodes = (
"340 66 OFFCURVE",
"303 76 OFFCURVE",
"273 96 CURVE",
"553 531 LINE",
"578 485 OFFCURVE",
"591 423 OFFCURVE",
"591 347 CURVE SMOOTH",
"591 167 OFFCURVE",
"520 66 OFFCURVE",
"383 66 CURVE SMOOTH"
);
}
);
width = 767;
}
);
note = Oslash;
unicode = 00D8;
},
{
glyphname = Oslashacute;
lastChange = "2015-07-16 19:12:08 +0000";
layers = (
{
layerId = "A2C5D99E-4902-4090-BBD9-379E2297F70D";
name = Bold;
paths = (
{
closed = 1;
nodes = (
"223 19 LINE",
"270 -3 OFFCURVE",
"325 -14 OFFCURVE",
"383 -14 CURVE SMOOTH",
"571 -14 OFFCURVE",
"718 97 OFFCURVE",
"718 347 CURVE SMOOTH",
"718 476 OFFCURVE",
"679 568 OFFCURVE",
"615 627 CURVE",
"673 717 LINE",
"601 758 LINE",
"547 674 LINE",
"499 698 OFFCURVE",
"443 709 OFFCURVE",
"383 709 CURVE SMOOTH",
"195 709 OFFCURVE",
"48 596 OFFCURVE",
"48 347 CURVE SMOOTH",
"48 215 OFFCURVE",
"89 122 OFFCURVE",
"155 64 CURVE",
"79 -54 LINE",
"150 -95 LINE"
);
},
{
closed = 1;
nodes = (
"189 205 OFFCURVE",
"175 268 OFFCURVE",
"175 347 CURVE SMOOTH",
"175 527 OFFCURVE",
"247 629 OFFCURVE",
"383 629 CURVE SMOOTH",
"428 629 OFFCURVE",
"466 618 OFFCURVE",
"497 596 CURVE",
"215 158 LINE"
);
},
{
closed = 1;
nodes = (
"340 66 OFFCURVE",
"303 76 OFFCURVE",
"273 96 CURVE",
"553 531 LINE",
"578 485 OFFCURVE",
"591 423 OFFCURVE",
"591 347 CURVE SMOOTH",
"591 167 OFFCURVE",
"520 66 OFFCURVE",
"383 66 CURVE SMOOTH"
);
},
{
closed = 1;
nodes = (
"493 912 LINE",
"405 970 LINE",
"302 797 LINE",
"370 753 LINE"
);
}
);
width = 767;
}
);
note = Oslashacute;
unicode = 01FE;
},
{
glyphname = Otilde;
lastChange = "2015-07-16 19:12:08 +0000";
layers = (
{
layerId = "A2C5D99E-4902-4090-BBD9-379E2297F70D";
name = Bold;
paths = (
{
closed = 1;
nodes = (
"566 -14 OFFCURVE",
"713 97 OFFCURVE",
"713 347 CURVE SMOOTH",
"713 596 OFFCURVE",
"566 709 OFFCURVE",
"378 709 CURVE SMOOTH",
"190 709 OFFCURVE",
"43 596 OFFCURVE",
"43 347 CURVE SMOOTH",
"43 97 OFFCURVE",
"190 -14 OFFCURVE",
"378 -14 CURVE SMOOTH"
);
},
{
closed = 1;
nodes = (
"242 66 OFFCURVE",
"170 167 OFFCURVE",
"170 347 CURVE SMOOTH",
"170 527 OFFCURVE",
"242 629 OFFCURVE",
"378 629 CURVE SMOOTH",
"515 629 OFFCURVE",
"586 527 OFFCURVE",
"586 347 CURVE SMOOTH",
"586 167 OFFCURVE",
"515 66 OFFCURVE",
"378 66 CURVE SMOOTH"
);
},
{
closed = 1;
nodes = (
"476 764 OFFCURVE",
"512 783 OFFCURVE",
"543 814 CURVE",
"503 871 LINE",
"482 855 OFFCURVE",
"463 846 OFFCURVE",
"442 846 CURVE SMOOTH",
"399 846 OFFCURVE",
"362 885 OFFCURVE",
"317 885 CURVE SMOOTH",
"284 885 OFFCURVE",
"244 863 OFFCURVE",
"213 835 CURVE",
"253 778 LINE",
"273 792 OFFCURVE",
"291 803 OFFCURVE",
"317 803 CURVE SMOOTH",
"361 803 OFFCURVE",
"396 764 OFFCURVE",
"443 764 CURVE SMOOTH"
);
}
);
width = 756;
}
);
note = Otilde;
unicode = 00D5;
},
{
glyphname = OE;
lastChange = "2015-07-16 19:12:08 +0000";
layers = (
{
layerId = "A2C5D99E-4902-4090-BBD9-379E2297F70D";
name = Bold;
paths = (
{
closed = 1;
nodes = (
"468 -14 OFFCURVE",
"518 -8 OFFCURVE",
"566 0 CURVE",
"1054 0 LINE",
"1054 157 LINE SMOOTH",
"1054 169 OFFCURVE",
"1049 177 OFFCURVE",
"1034 177 CURVE SMOOTH",
"1016 177 OFFCURVE",
"1006 158 OFFCURVE",
"993 117 CURVE SMOOTH",
"982 78 LINE",
"665 78 LINE",
"665 317 LINE",
"906 317 LINE",
"921 278 LINE SMOOTH",
"931 254 OFFCURVE",
"939 244 OFFCURVE",
"951 244 CURVE SMOOTH",
"965 244 OFFCURVE",
"969 252 OFFCURVE",
"969 262 CURVE SMOOTH",
"969 449 LINE SMOOTH",
"969 458 OFFCURVE",
"965 467 OFFCURVE",
"951 467 CURVE SMOOTH",
"939 467 OFFCURVE",
"932 456 OFFCURVE",
"922 433 CURVE SMOOTH",
"906 394 LINE",
"665 394 LINE",
"665 617 LINE",
"967 617 LINE",
"978 579 LINE SMOOTH",
"990 538 OFFCURVE",
"1002 519 OFFCURVE",
"1019 519 CURVE SMOOTH",
"1035 519 OFFCURVE",
"1039 527 OFFCURVE",
"1039 539 CURVE SMOOTH",
"1039 695 LINE",
"494 695 LINE",
"462 703 OFFCURVE",
"417 709 OFFCURVE",
"383 709 CURVE SMOOTH",
"205 709 OFFCURVE",
"43 588 OFFCURVE",
"43 349 CURVE SMOOTH",
"43 88 OFFCURVE",
"218 -14 OFFCURVE",
"421 -14 CURVE SMOOTH"
);
},
{
closed = 1;
nodes = (
"276 66 OFFCURVE",
"170 162 OFFCURVE",
"170 349 CURVE SMOOTH",
"170 548 OFFCURVE",
"280 629 OFFCURVE",
"423 629 CURVE SMOOTH",
"461 629 OFFCURVE",
"502 624 OFFCURVE",
"540 614 CURVE",
"540 80 LINE",
"495 69 OFFCURVE",
"462 66 OFFCURVE",
"411 66 CURVE SMOOTH"
);
}
);
width = 1116;
}
);
note = OE;
unicode = 0152;
},
{
glyphname = P;
lastChange = "2015-07-16 19:12:08 +0000";
layers = (
{
layerId = "A2C5D99E-4902-4090-BBD9-379E2297F70D";
name = Bold;
paths = (
{
closed = 1;
nodes = (
"323 0 LINE SMOOTH",
"336 0 OFFCURVE",
"340 7 OFFCURVE",
"340 17 CURVE SMOOTH",
"340 35 OFFCURVE",
"327 45 OFFCURVE",
"296 56 CURVE SMOOTH",
"252 72 LINE",
"252 272 LINE",
"384 272 LINE SMOOTH",
"528 272 OFFCURVE",
"626 352 OFFCURVE",
"626 484 CURVE SMOOTH",
"626 615 OFFCURVE",
"528 695 OFFCURVE",
"384 695 CURVE SMOOTH",
"70 695 LINE SMOOTH",
"59 695 OFFCURVE",
"51 688 OFFCURVE",
"51 670 CURVE SMOOTH",
"51 645 OFFCURVE",
"67 631 OFFCURVE",
"107 621 CURVE SMOOTH",
"127 616 LINE",
"127 72 LINE",
"110 72 LINE SMOOTH",
"76 72 OFFCURVE",
"54 58 OFFCURVE",
"54 30 CURVE SMOOTH",
"54 11 OFFCURVE",
"63 0 OFFCURVE",
"79 0 CURVE SMOOTH"
);
},
{
closed = 1;
nodes = (
"252 615 LINE",
"373 615 LINE SMOOTH",
"453 615 OFFCURVE",
"501 562 OFFCURVE",
"501 484 CURVE SMOOTH",
"501 405 OFFCURVE",
"453 352 OFFCURVE",
"373 352 CURVE SMOOTH",
"252 352 LINE"
);
}
);
width = 648;
}
);
note = P;
unicode = 0050;
},
{
glyphname = Thorn;
lastChange = "2015-07-16 19:12:08 +0000";
layers = (
{
layerId = "A2C5D99E-4902-4090-BBD9-379E2297F70D";
name = Bold;
paths = (
{
closed = 1;
nodes = (
"312 0 LINE SMOOTH",
"326 0 OFFCURVE",
"329 7 OFFCURVE",
"329 17 CURVE SMOOTH",
"329 35 OFFCURVE",
"318 44 OFFCURVE",
"291 55 CURVE SMOOTH",
"249 72 LINE",
"249 142 LINE",
"294 128 OFFCURVE",
"341 122 OFFCURVE",
"385 122 CURVE SMOOTH",
"538 122 OFFCURVE",
"665 190 OFFCURVE",
"665 352 CURVE SMOOTH",
"665 514 OFFCURVE",
"538 582 OFFCURVE",
"385 582 CURVE SMOOTH",
"341 582 OFFCURVE",
"294 576 OFFCURVE",
"249 562 CURVE",
"249 623 LINE",
"291 640 LINE SMOOTH",
"318 651 OFFCURVE",
"329 660 OFFCURVE",
"329 678 CURVE SMOOTH",
"329 688 OFFCURVE",
"326 695 OFFCURVE",
"312 695 CURVE SMOOTH",
"106 695 LINE SMOOTH",
"73 695 OFFCURVE",
"51 681 OFFCURVE",
"51 653 CURVE SMOOTH",
"51 634 OFFCURVE",
"60 623 OFFCURVE",
"76 623 CURVE SMOOTH",
"124 623 LINE",
"124 72 LINE",
"107 72 LINE SMOOTH",
"73 72 OFFCURVE",
"51 58 OFFCURVE",
"51 30 CURVE SMOOTH",
"51 11 OFFCURVE",
"60 0 OFFCURVE",
"76 0 CURVE SMOOTH"
);
},
{
closed = 1;
nodes = (
"344 202 OFFCURVE",
"303 207 OFFCURVE",
"249 224 CURVE",
"249 481 LINE",
"303 498 OFFCURVE",
"344 503 OFFCURVE",
"385 503 CURVE SMOOTH",
"489 503 OFFCURVE",
"540 447 OFFCURVE",
"540 352 CURVE SMOOTH",
"540 257 OFFCURVE",
"489 202 OFFCURVE",
"385 202 CURVE SMOOTH"
);
}
);
width = 712;
}
);
note = Thorn;
unicode = 00DE;
},
{
glyphname = Q;
lastChange = "2015-07-16 19:12:09 +0000";
layers = (
{
layerId = "A2C5D99E-4902-4090-BBD9-379E2297F70D";
name = Bold;
paths = (
{
closed = 1;
nodes = (
"576 -159 OFFCURVE",
"598 -143 OFFCURVE",
"598 -110 CURVE SMOOTH",
"598 -84 OFFCURVE",
"582 -74 OFFCURVE",
"546 -63 CURVE SMOOTH",
"514 -53 OFFCURVE",
"485 -41 OFFCURVE",
"458 -26 CURVE SMOOTH",
"431 -11 LINE",
"593 9 OFFCURVE",
"713 121 OFFCURVE",
"713 347 CURVE SMOOTH",
"713 596 OFFCURVE",
"566 709 OFFCURVE",
"378 709 CURVE SMOOTH",
"190 709 OFFCURVE",
"43 596 OFFCURVE",
"43 347 CURVE SMOOTH",
"43 120 OFFCURVE",
"164 7 OFFCURVE",
"328 -11 CURVE",
"349 -37 OFFCURVE",
"373 -64 OFFCURVE",
"399 -87 CURVE SMOOTH",
"442 -127 OFFCURVE",
"492 -159 OFFCURVE",
"542 -159 CURVE SMOOTH"
);
},
{
closed = 1;
nodes = (
"242 66 OFFCURVE",
"170 167 OFFCURVE",
"170 347 CURVE SMOOTH",
"170 527 OFFCURVE",
"242 629 OFFCURVE",
"378 629 CURVE SMOOTH",
"515 629 OFFCURVE",
"586 527 OFFCURVE",
"586 347 CURVE SMOOTH",
"586 167 OFFCURVE",
"515 66 OFFCURVE",
"378 66 CURVE SMOOTH"
);
}
);
width = 756;
}
);
note = Q;
unicode = 0051;
},
{
glyphname = R;
lastChange = "2015-07-16 19:12:08 +0000";
layers = (
{
layerId = "A2C5D99E-4902-4090-BBD9-379E2297F70D";
name = Bold;
paths = (
{
closed = 1;
nodes = (
"315 0 LINE SMOOTH",
"329 0 OFFCURVE",
"332 7 OFFCURVE",
"332 17 CURVE SMOOTH",
"332 35 OFFCURVE",
"321 46 OFFCURVE",
"294 56 CURVE SMOOTH",
"252 72 LINE",
"252 302 LINE",
"502 0 LINE",
"682 0 LINE SMOOTH",
"695 0 OFFCURVE",
"699 7 OFFCURVE",
"699 18 CURVE SMOOTH",
"699 36 OFFCURVE",
"686 46 OFFCURVE",
"658 55 CURVE SMOOTH",
"610 69 LINE",
"400 304 LINE",
"536 309 OFFCURVE",
"624 372 OFFCURVE",
"624 497 CURVE SMOOTH",
"624 628 OFFCURVE",
"529 695 OFFCURVE",
"384 695 CURVE SMOOTH",
"70 695 LINE SMOOTH",
"59 695 OFFCURVE",
"51 688 OFFCURVE",
"51 670 CURVE SMOOTH",
"51 646 OFFCURVE",
"70 635 OFFCURVE",
"107 626 CURVE SMOOTH",
"127 621 LINE",
"127 72 LINE",
"110 72 LINE SMOOTH",
"76 72 OFFCURVE",
"54 58 OFFCURVE",
"54 30 CURVE SMOOTH",
"54 11 OFFCURVE",
"63 0 OFFCURVE",
"79 0 CURVE SMOOTH"
);
},
{
closed = 1;
nodes = (
"252 620 LINE",
"374 620 LINE SMOOTH",
"453 620 OFFCURVE",
"499 575 OFFCURVE",
"499 497 CURVE SMOOTH",
"499 420 OFFCURVE",
"453 375 OFFCURVE",
"374 375 CURVE SMOOTH",
"252 375 LINE"
);
}
);
width = 712;
}
);
note = R;
unicode = 0052;
},
{
glyphname = Racute;
lastChange = "2015-07-16 19:12:08 +0000";
layers = (
{
components = (
{
name = R;
}
);
layerId = "A2C5D99E-4902-4090-BBD9-379E2297F70D";
name = Bold;
paths = (
{
closed = 1;
nodes = (
"441 913 LINE",
"353 971 LINE",
"250 798 LINE",
"318 754 LINE"
);
}
);
width = 712;
}
);
note = Racute;
unicode = 0154;
},
{
glyphname = Rcaron;
lastChange = "2015-07-16 19:12:08 +0000";
layers = (
{
components = (
{
name = R;
}
);
layerId = "A2C5D99E-4902-4090-BBD9-379E2297F70D";
name = Bold;
paths = (
{
closed = 1;
nodes = (
"350 753 LINE",
"468 906 LINE",
"416 952 LINE",
"321 845 LINE",
"226 952 LINE",
"174 906 LINE",
"293 753 LINE"
);
}
);
width = 712;
}
);
note = Rcaron;
unicode = 0158;
},
{
glyphname = Rcommaaccent;
lastChange = "2015-07-16 19:12:09 +0000";
layers = (
{
components = (
{
name = R;
}
);
layerId = "A2C5D99E-4902-4090-BBD9-379E2297F70D";
name = Bold;
paths = (
{
closed = 1;
nodes = (
"383 -223 OFFCURVE",
"425 -134 OFFCURVE",
"440 -76 CURVE",
"345 -54 LINE SMOOTH",
"315 -48 OFFCURVE",
"295 -60 OFFCURVE",
"295 -85 CURVE SMOOTH",
"295 -97 OFFCURVE",
"302 -103 OFFCURVE",
"312 -107 CURVE",
"339 -115 LINE",
"335 -149 OFFCURVE",
"304 -212 OFFCURVE",
"279 -248 CURVE",
"331 -280 LINE"
);
}
);
width = 712;
}
);
note = Rcommaaccent;
unicode = 0156;
},
{
glyphname = Rdotbelow;
lastChange = "2015-07-16 19:12:08 +0000";
layers = (
{
components = (
{
name = R;
}
);
layerId = "A2C5D99E-4902-4090-BBD9-379E2297F70D";
name = Bold;
paths = (
{
closed = 1;
nodes = (
"396 -192 OFFCURVE",
"425 -166 OFFCURVE",
"425 -129 CURVE SMOOTH",
"425 -93 OFFCURVE",
"396 -66 OFFCURVE",
"362 -66 CURVE SMOOTH",
"327 -66 OFFCURVE",
"299 -93 OFFCURVE",
"299 -129 CURVE SMOOTH",
"299 -166 OFFCURVE",
"327 -192 OFFCURVE",
"362 -192 CURVE SMOOTH"
);
}
);
width = 712;
}
);
note = Rdotbelow;
unicode = 1E5A;
},
{
glyphname = Rdotbelowmacron;
lastChange = "2015-07-16 19:12:08 +0000";
layers = (
{
components = (
{
name = R;
}
);
layerId = "A2C5D99E-4902-4090-BBD9-379E2297F70D";
name = Bold;
paths = (
{
closed = 1;
nodes = (
"396 -192 OFFCURVE",
"425 -166 OFFCURVE",
"425 -129 CURVE SMOOTH",
"425 -93 OFFCURVE",
"396 -66 OFFCURVE",
"362 -66 CURVE SMOOTH",
"327 -66 OFFCURVE",
"299 -93 OFFCURVE",
"299 -129 CURVE SMOOTH",
"299 -166 OFFCURVE",
"327 -192 OFFCURVE",
"362 -192 CURVE SMOOTH"
);
},
{
closed = 1;
nodes = (
"489 785 LINE",
"489 864 LINE",
"195 864 LINE",
"195 785 LINE"
);
}
);
width = 712;
}
);
note = Rdotbelowmacron;
unicode = 1E5C;
},
{
glyphname = Rlinebelow;
lastChange = "2015-07-16 19:12:08 +0000";
layers = (
{
components = (
{
name = R;
}
);
layerId = "A2C5D99E-4902-4090-BBD9-379E2297F70D";
name = Bold;
paths = (
{
closed = 1;
nodes = (
"572 -167 LINE",
"572 -88 LINE",
"171 -88 LINE",
"171 -167 LINE"
);
}
);
width = 712;
}
);
note = Rlinebelow;
unicode = 1E5E;
},
{
glyphname = S;
lastChange = "2015-07-16 19:12:08 +0000";
layers = (
{
layerId = "A2C5D99E-4902-4090-BBD9-379E2297F70D";
name = Bold;
paths = (
{
closed = 1;
nodes = (
"436 -14 OFFCURVE",
"553 41 OFFCURVE",
"553 173 CURVE SMOOTH",
"553 293 OFFCURVE",
"472 345 OFFCURVE",
"364 395 CURVE SMOOTH",
"244 450 OFFCURVE",
"173 477 OFFCURVE",
"173 542 CURVE SMOOTH",
"173 603 OFFCURVE",
"228 629 OFFCURVE",
"296 629 CURVE SMOOTH",
"357 629 OFFCURVE",
"403 615 OFFCURVE",
"433 595 CURVE",
"450 536 LINE SMOOTH",
"465 488 OFFCURVE",
"475 476 OFFCURVE",
"496 476 CURVE SMOOTH",
"511 476 OFFCURVE",
"517 485 OFFCURVE",
"517 497 CURVE SMOOTH",
"517 638 LINE",
"462 681 OFFCURVE",
"373 709 OFFCURVE",
"286 709 CURVE SMOOTH",
"165 709 OFFCURVE",
"48 654 OFFCURVE",
"48 527 CURVE SMOOTH",
"48 414 OFFCURVE",
"147 357 OFFCURVE",
"262 307 CURVE SMOOTH",
"385 253 OFFCURVE",
"428 226 OFFCURVE",
"428 160 CURVE SMOOTH",
"428 89 OFFCURVE",
"351 66 OFFCURVE",
"278 66 CURVE SMOOTH",
"223 66 OFFCURVE",
"160 80 OFFCURVE",
"129 101 CURVE",
"112 160 LINE SMOOTH",
"97 208 OFFCURVE",
"87 221 OFFCURVE",
"66 221 CURVE SMOOTH",
"51 221 OFFCURVE",
"45 211 OFFCURVE",
"45 200 CURVE SMOOTH",
"45 48 LINE",
"102 12 OFFCURVE",
"209 -14 OFFCURVE",
"290 -14 CURVE SMOOTH"
);
}
);
width = 598;
}
);
note = S;
unicode = 0053;
},
{
glyphname = Sacute;
lastChange = "2015-07-16 19:12:08 +0000";
layers = (
{
layerId = "A2C5D99E-4902-4090-BBD9-379E2297F70D";
name = Bold;
paths = (
{
closed = 1;
nodes = (
"436 -14 OFFCURVE",
"553 41 OFFCURVE",
"553 173 CURVE SMOOTH",
"553 293 OFFCURVE",
"472 345 OFFCURVE",
"364 395 CURVE SMOOTH",
"244 450 OFFCURVE",
"173 477 OFFCURVE",
"173 542 CURVE SMOOTH",
"173 603 OFFCURVE",
"228 629 OFFCURVE",
"296 629 CURVE SMOOTH",
"357 629 OFFCURVE",
"403 615 OFFCURVE",
"433 595 CURVE",
"450 536 LINE SMOOTH",
"465 488 OFFCURVE",
"475 476 OFFCURVE",
"496 476 CURVE SMOOTH",
"511 476 OFFCURVE",
"517 485 OFFCURVE",
"517 497 CURVE SMOOTH",
"517 638 LINE",
"462 681 OFFCURVE",
"373 709 OFFCURVE",
"286 709 CURVE SMOOTH",
"165 709 OFFCURVE",
"48 654 OFFCURVE",
"48 527 CURVE SMOOTH",
"48 414 OFFCURVE",
"147 357 OFFCURVE",
"262 307 CURVE SMOOTH",
"385 253 OFFCURVE",
"428 226 OFFCURVE",
"428 160 CURVE SMOOTH",
"428 89 OFFCURVE",
"351 66 OFFCURVE",
"278 66 CURVE SMOOTH",
"223 66 OFFCURVE",
"160 80 OFFCURVE",
"129 101 CURVE",
"112 160 LINE SMOOTH",
"97 208 OFFCURVE",
"87 221 OFFCURVE",
"66 221 CURVE SMOOTH",
"51 221 OFFCURVE",
"45 211 OFFCURVE",
"45 200 CURVE SMOOTH",
"45 48 LINE",
"102 12 OFFCURVE",
"209 -14 OFFCURVE",
"290 -14 CURVE SMOOTH"
);
},
{
closed = 1;
nodes = (
"393 912 LINE",
"305 970 LINE",
"202 797 LINE",
"270 753 LINE"
);
}
);
width = 598;
}
);
note = Sacute;
unicode = 015A;
},
{
glyphname = Scaron;
lastChange = "2015-07-16 19:12:08 +0000";
layers = (
{
layerId = "A2C5D99E-4902-4090-BBD9-379E2297F70D";
name = Bold;
paths = (
{
closed = 1;
nodes = (
"436 -14 OFFCURVE",
"553 41 OFFCURVE",
"553 173 CURVE SMOOTH",
"553 293 OFFCURVE",
"472 345 OFFCURVE",
"364 395 CURVE SMOOTH",
"244 450 OFFCURVE",
"173 477 OFFCURVE",
"173 542 CURVE SMOOTH",
"173 603 OFFCURVE",
"228 629 OFFCURVE",
"296 629 CURVE SMOOTH",
"357 629 OFFCURVE",
"403 615 OFFCURVE",
"433 595 CURVE",
"450 536 LINE SMOOTH",
"465 488 OFFCURVE",
"475 476 OFFCURVE",
"496 476 CURVE SMOOTH",
"511 476 OFFCURVE",
"517 485 OFFCURVE",
"517 497 CURVE SMOOTH",
"517 638 LINE",
"462 681 OFFCURVE",
"373 709 OFFCURVE",
"286 709 CURVE SMOOTH",
"165 709 OFFCURVE",
"48 654 OFFCURVE",
"48 527 CURVE SMOOTH",
"48 414 OFFCURVE",
"147 357 OFFCURVE",
"262 307 CURVE SMOOTH",
"385 253 OFFCURVE",
"428 226 OFFCURVE",
"428 160 CURVE SMOOTH",
"428 89 OFFCURVE",
"351 66 OFFCURVE",
"278 66 CURVE SMOOTH",
"223 66 OFFCURVE",
"160 80 OFFCURVE",
"129 101 CURVE",
"112 160 LINE SMOOTH",
"97 208 OFFCURVE",
"87 221 OFFCURVE",
"66 221 CURVE SMOOTH",
"51 221 OFFCURVE",
"45 211 OFFCURVE",
"45 200 CURVE SMOOTH",
"45 48 LINE",
"102 12 OFFCURVE",
"209 -14 OFFCURVE",
"290 -14 CURVE SMOOTH"
);
},
{
closed = 1;
nodes = (
"316 753 LINE",
"434 906 LINE",
"382 952 LINE",
"287 845 LINE",
"192 952 LINE",
"140 906 LINE",
"259 753 LINE"
);
}
);
width = 598;
}
);
note = Scaron;
unicode = 0160;
},
{
glyphname = Scedilla;
lastChange = "2015-07-16 19:12:08 +0000";
layers = (
{
layerId = "A2C5D99E-4902-4090-BBD9-379E2297F70D";
name = Bold;
paths = (
{
closed = 1;
nodes = (
"296 -211 OFFCURVE",
"359 -170 OFFCURVE",
"359 -121 CURVE SMOOTH",
"359 -87 OFFCURVE",
"338 -67 OFFCURVE",
"310 -56 CURVE",
"329 -13 LINE",
"456 -3 OFFCURVE",
"553 53 OFFCURVE",
"553 173 CURVE SMOOTH",
"553 293 OFFCURVE",
"472 345 OFFCURVE",
"364 395 CURVE SMOOTH",
"244 450 OFFCURVE",
"173 477 OFFCURVE",
"173 542 CURVE SMOOTH",
"173 603 OFFCURVE",
"228 629 OFFCURVE",
"296 629 CURVE SMOOTH",
"357 629 OFFCURVE",
"403 615 OFFCURVE",
"433 595 CURVE",
"450 536 LINE SMOOTH",
"465 488 OFFCURVE",
"475 476 OFFCURVE",
"496 476 CURVE SMOOTH",
"511 476 OFFCURVE",
"517 485 OFFCURVE",
"517 497 CURVE SMOOTH",
"517 638 LINE",
"462 681 OFFCURVE",
"373 709 OFFCURVE",
"286 709 CURVE SMOOTH",
"165 709 OFFCURVE",
"48 654 OFFCURVE",
"48 527 CURVE SMOOTH",
"48 414 OFFCURVE",
"147 357 OFFCURVE",
"262 307 CURVE SMOOTH",
"385 253 OFFCURVE",
"428 226 OFFCURVE",
"428 160 CURVE SMOOTH",
"428 89 OFFCURVE",
"351 66 OFFCURVE",
"278 66 CURVE SMOOTH",
"223 66 OFFCURVE",
"160 80 OFFCURVE",
"129 101 CURVE",
"112 160 LINE SMOOTH",
"97 208 OFFCURVE",
"87 221 OFFCURVE",
"66 221 CURVE SMOOTH",
"51 221 OFFCURVE",
"45 211 OFFCURVE",
"45 200 CURVE SMOOTH",
"45 48 LINE",
"94 17 OFFCURVE",
"179 -6 OFFCURVE",
"253 -12 CURVE",
"233 -68 LINE",
"263 -77 OFFCURVE",
"276 -94 OFFCURVE",
"276 -118 CURVE SMOOTH",
"276 -145 OFFCURVE",
"256 -169 OFFCURVE",
"209 -184 CURVE",
"225 -225 LINE"
);
}
);
width = 598;
}
);
note = Scedilla;
unicode = 015E;
},
{
glyphname = Scircumflex;
lastChange = "2015-07-16 19:12:08 +0000";
layers = (
{
layerId = "A2C5D99E-4902-4090-BBD9-379E2297F70D";
name = Bold;
paths = (
{
closed = 1;
nodes = (
"436 -14 OFFCURVE",
"553 41 OFFCURVE",
"553 173 CURVE SMOOTH",
"553 293 OFFCURVE",
"472 345 OFFCURVE",
"364 395 CURVE SMOOTH",
"244 450 OFFCURVE",
"173 477 OFFCURVE",
"173 542 CURVE SMOOTH",
"173 603 OFFCURVE",
"228 629 OFFCURVE",
"296 629 CURVE SMOOTH",
"357 629 OFFCURVE",
"403 615 OFFCURVE",
"433 595 CURVE",
"450 536 LINE SMOOTH",
"465 488 OFFCURVE",
"475 476 OFFCURVE",
"496 476 CURVE SMOOTH",
"511 476 OFFCURVE",
"517 485 OFFCURVE",
"517 497 CURVE SMOOTH",
"517 638 LINE",
"462 681 OFFCURVE",
"373 709 OFFCURVE",
"286 709 CURVE SMOOTH",
"165 709 OFFCURVE",
"48 654 OFFCURVE",
"48 527 CURVE SMOOTH",
"48 414 OFFCURVE",
"147 357 OFFCURVE",
"262 307 CURVE SMOOTH",
"385 253 OFFCURVE",
"428 226 OFFCURVE",
"428 160 CURVE SMOOTH",
"428 89 OFFCURVE",
"351 66 OFFCURVE",
"278 66 CURVE SMOOTH",
"223 66 OFFCURVE",
"160 80 OFFCURVE",
"129 101 CURVE",
"112 160 LINE SMOOTH",
"97 208 OFFCURVE",
"87 221 OFFCURVE",
"66 221 CURVE SMOOTH",
"51 221 OFFCURVE",
"45 211 OFFCURVE",
"45 200 CURVE SMOOTH",
"45 48 LINE",
"102 12 OFFCURVE",
"209 -14 OFFCURVE",
"290 -14 CURVE SMOOTH"
);
},
{
closed = 1;
nodes = (
"282 860 LINE",
"377 753 LINE",
"429 798 LINE",
"311 952 LINE",
"254 952 LINE",
"135 798 LINE",
"187 753 LINE"
);
}
);
width = 598;
}
);
note = Scircumflex;
unicode = 015C;
},
{
glyphname = Scommaaccent;
lastChange = "2015-07-16 19:12:08 +0000";
layers = (
{
layerId = "A2C5D99E-4902-4090-BBD9-379E2297F70D";
name = Bold;
paths = (
{
closed = 1;
nodes = (
"436 -14 OFFCURVE",
"553 41 OFFCURVE",
"553 173 CURVE SMOOTH",
"553 293 OFFCURVE",
"472 345 OFFCURVE",
"364 395 CURVE SMOOTH",
"244 450 OFFCURVE",
"173 477 OFFCURVE",
"173 542 CURVE SMOOTH",
"173 603 OFFCURVE",
"228 629 OFFCURVE",
"296 629 CURVE SMOOTH",
"357 629 OFFCURVE",
"403 615 OFFCURVE",
"433 595 CURVE",
"450 536 LINE SMOOTH",
"465 488 OFFCURVE",
"475 476 OFFCURVE",
"496 476 CURVE SMOOTH",
"511 476 OFFCURVE",
"517 485 OFFCURVE",
"517 497 CURVE SMOOTH",
"517 638 LINE",
"462 681 OFFCURVE",
"373 709 OFFCURVE",
"286 709 CURVE SMOOTH",
"165 709 OFFCURVE",
"48 654 OFFCURVE",
"48 527 CURVE SMOOTH",
"48 414 OFFCURVE",
"147 357 OFFCURVE",
"262 307 CURVE SMOOTH",
"385 253 OFFCURVE",
"428 226 OFFCURVE",
"428 160 CURVE SMOOTH",
"428 89 OFFCURVE",
"351 66 OFFCURVE",
"278 66 CURVE SMOOTH",
"223 66 OFFCURVE",
"160 80 OFFCURVE",
"129 101 CURVE",
"112 160 LINE SMOOTH",
"97 208 OFFCURVE",
"87 221 OFFCURVE",
"66 221 CURVE SMOOTH",
"51 221 OFFCURVE",
"45 211 OFFCURVE",
"45 200 CURVE SMOOTH",
"45 48 LINE",
"102 12 OFFCURVE",
"209 -14 OFFCURVE",
"290 -14 CURVE SMOOTH"
);
},
{
closed = 1;
nodes = (
"319 -223 OFFCURVE",
"361 -134 OFFCURVE",
"376 -76 CURVE",
"281 -54 LINE SMOOTH",
"251 -48 OFFCURVE",
"231 -60 OFFCURVE",
"231 -85 CURVE SMOOTH",
"231 -97 OFFCURVE",
"238 -103 OFFCURVE",
"248 -107 CURVE",
"275 -115 LINE",
"271 -149 OFFCURVE",
"240 -212 OFFCURVE",
"215 -248 CURVE",
"267 -280 LINE"
);
}
);
width = 598;
}
);
note = Scommaaccent;
unicode = 0218;
},
{
glyphname = Sdotaccent;
lastChange = "2015-07-31 06:15:32 +0000";
layers = (
{
layerId = "A2C5D99E-4902-4090-BBD9-379E2297F70D";
name = Bold;
paths = (
{
closed = 1;
nodes = (
"436 -14 OFFCURVE",
"553 41 OFFCURVE",
"553 173 CURVE SMOOTH",
"553 293 OFFCURVE",
"472 345 OFFCURVE",
"364 395 CURVE SMOOTH",
"244 450 OFFCURVE",
"173 477 OFFCURVE",
"173 542 CURVE SMOOTH",
"173 603 OFFCURVE",
"228 629 OFFCURVE",
"296 629 CURVE SMOOTH",
"357 629 OFFCURVE",
"403 615 OFFCURVE",
"433 595 CURVE",
"450 536 LINE SMOOTH",
"465 488 OFFCURVE",
"475 476 OFFCURVE",
"496 476 CURVE SMOOTH",
"511 476 OFFCURVE",
"517 485 OFFCURVE",
"517 497 CURVE SMOOTH",
"517 638 LINE",
"462 681 OFFCURVE",
"373 709 OFFCURVE",
"286 709 CURVE SMOOTH",
"165 709 OFFCURVE",
"48 654 OFFCURVE",
"48 527 CURVE SMOOTH",
"48 414 OFFCURVE",
"147 357 OFFCURVE",
"262 307 CURVE SMOOTH",
"385 253 OFFCURVE",
"428 226 OFFCURVE",
"428 160 CURVE SMOOTH",
"428 89 OFFCURVE",
"351 66 OFFCURVE",
"278 66 CURVE SMOOTH",
"223 66 OFFCURVE",
"160 80 OFFCURVE",
"129 101 CURVE",
"112 160 LINE SMOOTH",
"97 208 OFFCURVE",
"87 221 OFFCURVE",
"66 221 CURVE SMOOTH",
"51 221 OFFCURVE",
"45 211 OFFCURVE",
"45 200 CURVE SMOOTH",
"45 48 LINE",
"102 12 OFFCURVE",
"209 -14 OFFCURVE",
"290 -14 CURVE SMOOTH"
);
},
{
closed = 1;
nodes = (
"334 770 OFFCURVE",
"363 797 OFFCURVE",
"363 834 CURVE SMOOTH",
"363 870 OFFCURVE",
"334 897 OFFCURVE",
"300 897 CURVE SMOOTH",
"265 897 OFFCURVE",
"237 870 OFFCURVE",
"237 834 CURVE SMOOTH",
"237 797 OFFCURVE",
"265 770 OFFCURVE",
"300 770 CURVE SMOOTH"
);
}
);
width = 598;
}
);
note = Sdotaccent;
unicode = 1E60;
},
{
glyphname = Sdotbelow;
lastChange = "2015-07-16 19:12:08 +0000";
layers = (
{
layerId = "A2C5D99E-4902-4090-BBD9-379E2297F70D";
name = Bold;
paths = (
{
closed = 1;
nodes = (
"436 -14 OFFCURVE",
"553 41 OFFCURVE",
"553 173 CURVE SMOOTH",
"553 293 OFFCURVE",
"472 345 OFFCURVE",
"364 395 CURVE SMOOTH",
"244 450 OFFCURVE",
"173 477 OFFCURVE",
"173 542 CURVE SMOOTH",
"173 603 OFFCURVE",
"228 629 OFFCURVE",
"296 629 CURVE SMOOTH",
"357 629 OFFCURVE",
"403 615 OFFCURVE",
"433 595 CURVE",
"450 536 LINE SMOOTH",
"465 488 OFFCURVE",
"475 476 OFFCURVE",
"496 476 CURVE SMOOTH",
"511 476 OFFCURVE",
"517 485 OFFCURVE",
"517 497 CURVE SMOOTH",
"517 638 LINE",
"462 681 OFFCURVE",
"373 709 OFFCURVE",
"286 709 CURVE SMOOTH",
"165 709 OFFCURVE",
"48 654 OFFCURVE",
"48 527 CURVE SMOOTH",
"48 414 OFFCURVE",
"147 357 OFFCURVE",
"262 307 CURVE SMOOTH",
"385 253 OFFCURVE",
"428 226 OFFCURVE",
"428 160 CURVE SMOOTH",
"428 89 OFFCURVE",
"351 66 OFFCURVE",
"278 66 CURVE SMOOTH",
"223 66 OFFCURVE",
"160 80 OFFCURVE",
"129 101 CURVE",
"112 160 LINE SMOOTH",
"97 208 OFFCURVE",
"87 221 OFFCURVE",
"66 221 CURVE SMOOTH",
"51 221 OFFCURVE",
"45 211 OFFCURVE",
"45 200 CURVE SMOOTH",
"45 48 LINE",
"102 12 OFFCURVE",
"209 -14 OFFCURVE",
"290 -14 CURVE SMOOTH"
);
},
{
closed = 1;
nodes = (
"336 -192 OFFCURVE",
"365 -166 OFFCURVE",
"365 -129 CURVE SMOOTH",
"365 -93 OFFCURVE",
"336 -66 OFFCURVE",
"302 -66 CURVE SMOOTH",
"267 -66 OFFCURVE",
"239 -93 OFFCURVE",
"239 -129 CURVE SMOOTH",
"239 -166 OFFCURVE",
"267 -192 OFFCURVE",
"302 -192 CURVE SMOOTH"
);
}
);
width = 598;
}
);
note = Sdotbelow;
unicode = 1E62;
},
{
glyphname = uni1E9E;
lastChange = "2015-07-16 19:12:08 +0000";
layers = (
{
layerId = "A2C5D99E-4902-4090-BBD9-379E2297F70D";
name = Bold;
paths = (
{
closed = 1;
nodes = (
"585 -14 OFFCURVE",
"661 72 OFFCURVE",
"661 176 CURVE SMOOTH",
"661 282 OFFCURVE",
"596 365 OFFCURVE",
"462 365 CURVE SMOOTH",
"449 365 LINE",
"568 522 LINE",
"545 625 OFFCURVE",
"455 679 OFFCURVE",
"351 679 CURVE SMOOTH",
"228 679 OFFCURVE",
"120 609 OFFCURVE",
"120 470 CURVE SMOOTH",
"120 68 LINE",
"97 68 LINE SMOOTH",
"65 68 OFFCURVE",
"44 56 OFFCURVE",
"44 28 CURVE SMOOTH",
"44 10 OFFCURVE",
"52 0 OFFCURVE",
"67 0 CURVE SMOOTH",
"241 0 LINE",
"241 468 LINE SMOOTH",
"241 548 OFFCURVE",
"272 599 OFFCURVE",
"355 599 CURVE SMOOTH",
"407 599 OFFCURVE",
"462 567 OFFCURVE",
"462 526 CURVE",
"354 383 LINE",
"354 287 LINE",
"430 287 LINE SMOOTH",
"507 287 OFFCURVE",
"540 241 OFFCURVE",
"540 175 CURVE SMOOTH",
"540 107 OFFCURVE",
"493 65 OFFCURVE",
"434 65 CURVE SMOOTH",
"413 65 OFFCURVE",
"394 69 OFFCURVE",
"377 76 CURVE",
"367 120 LINE SMOOTH",
"361 145 OFFCURVE",
"352 159 OFFCURVE",
"331 159 CURVE SMOOTH",
"315 159 OFFCURVE",
"308 149 OFFCURVE",
"308 139 CURVE SMOOTH",
"308 23 LINE",
"344 -1 OFFCURVE",
"404 -14 OFFCURVE",
"460 -14 CURVE SMOOTH"
);
}
);
width = 708;
}
);
note = uni1E9E;
unicode = 1E9E;
},
{
glyphname = uni018F;
lastChange = "2015-07-16 19:12:08 +0000";
layers = (
{
layerId = "A2C5D99E-4902-4090-BBD9-379E2297F70D";
name = Bold;
paths = (
{
closed = 1;
nodes = (
"551 -14 OFFCURVE",
"696 104 OFFCURVE",
"696 348 CURVE SMOOTH",
"696 587 OFFCURVE",
"545 709 OFFCURVE",
"361 709 CURVE SMOOTH",
"288 709 OFFCURVE",
"215 693 OFFCURVE",
"146 656 CURVE SMOOTH",
"110 637 OFFCURVE",
"92 625 OFFCURVE",
"92 601 CURVE SMOOTH",
"92 571 OFFCURVE",
"113 561 OFFCURVE",
"130 561 CURVE SMOOTH",
"141 561 OFFCURVE",
"154 567 OFFCURVE",
"176 579 CURVE SMOOTH",
"237 611 OFFCURVE",
"298 629 OFFCURVE",
"357 629 CURVE SMOOTH",
"474 629 OFFCURVE",
"560 547 OFFCURVE",
"568 375 CURVE",
"69 375 LINE",
"54 347 OFFCURVE",
"43 301 OFFCURVE",
"43 266 CURVE SMOOTH",
"43 95 OFFCURVE",
"172 -14 OFFCURVE",
"361 -14 CURVE SMOOTH"
);
},
{
closed = 1;
nodes = (
"253 66 OFFCURVE",
"168 130 OFFCURVE",
"168 253 CURVE SMOOTH",
"168 267 OFFCURVE",
"171 284 OFFCURVE",
"175 295 CURVE",
"567 295 LINE",
"553 149 OFFCURVE",
"482 66 OFFCURVE",
"361 66 CURVE SMOOTH"
);
}
);
width = 738;
}
);
note = uni018F;
unicode = 018F;
},
{
glyphname = T;
lastChange = "2015-07-16 19:12:08 +0000";
layers = (
{
layerId = "A2C5D99E-4902-4090-BBD9-379E2297F70D";
name = Bold;
paths = (
{
closed = 1;
nodes = (
"442 0 LINE SMOOTH",
"456 0 OFFCURVE",
"459 7 OFFCURVE",
"459 17 CURVE SMOOTH",
"459 35 OFFCURVE",
"448 46 OFFCURVE",
"421 56 CURVE SMOOTH",
"379 72 LINE",
"379 615 LINE",
"530 615 LINE",
"543 566 LINE SMOOTH",
"552 534 OFFCURVE",
"561 514 OFFCURVE",
"583 514 CURVE SMOOTH",
"595 514 OFFCURVE",
"606 520 OFFCURVE",
"606 537 CURVE SMOOTH",
"606 695 LINE",
"26 695 LINE",
"26 537 LINE SMOOTH",
"26 520 OFFCURVE",
"38 514 OFFCURVE",
"50 514 CURVE SMOOTH",
"71 514 OFFCURVE",
"80 534 OFFCURVE",
"89 566 CURVE SMOOTH",
"102 615 LINE",
"254 615 LINE",
"254 72 LINE",
"237 72 LINE SMOOTH",
"203 72 OFFCURVE",
"181 58 OFFCURVE",
"181 30 CURVE SMOOTH",
"181 11 OFFCURVE",
"190 0 OFFCURVE",
"206 0 CURVE SMOOTH"
);
}
);
width = 632;
}
);
note = T;
unicode = 0054;
},
{
glyphname = Tbar;
lastChange = "2015-07-16 19:12:08 +0000";
layers = (
{
layerId = "A2C5D99E-4902-4090-BBD9-379E2297F70D";
name = Bold;
paths = (
{
closed = 1;
nodes = (
"445 0 LINE SMOOTH",
"459 0 OFFCURVE",
"462 7 OFFCURVE",
"462 17 CURVE SMOOTH",
"462 35 OFFCURVE",
"451 44 OFFCURVE",
"424 55 CURVE SMOOTH",
"382 72 LINE",
"382 302 LINE",
"528 302 LINE",
"528 382 LINE",
"382 382 LINE",
"382 615 LINE",
"533 615 LINE",
"546 563 LINE SMOOTH",
"554 530 OFFCURVE",
"564 511 OFFCURVE",
"586 511 CURVE SMOOTH",
"598 511 OFFCURVE",
"609 517 OFFCURVE",
"609 533 CURVE SMOOTH",
"609 695 LINE",
"29 695 LINE",
"29 533 LINE SMOOTH",
"29 517 OFFCURVE",
"41 511 OFFCURVE",
"53 511 CURVE SMOOTH",
"74 511 OFFCURVE",
"84 530 OFFCURVE",
"92 563 CURVE SMOOTH",
"105 615 LINE",
"257 615 LINE",
"257 382 LINE",
"110 382 LINE",
"110 302 LINE",
"257 302 LINE",
"257 72 LINE",
"240 72 LINE SMOOTH",
"206 72 OFFCURVE",
"184 58 OFFCURVE",
"184 30 CURVE SMOOTH",
"184 11 OFFCURVE",
"193 0 OFFCURVE",
"209 0 CURVE SMOOTH"
);
}
);
width = 638;
}
);
note = Tbar;
unicode = 0166;
},
{
glyphname = Tcaron;
lastChange = "2015-07-16 19:12:08 +0000";
layers = (
{
components = (
{
name = T;
}
);
layerId = "A2C5D99E-4902-4090-BBD9-379E2297F70D";
name = Bold;
paths = (
{
closed = 1;
nodes = (
"345 753 LINE",
"463 906 LINE",
"411 952 LINE",
"316 845 LINE",
"221 952 LINE",
"169 906 LINE",
"288 753 LINE"
);
}
);
width = 632;
}
);
note = Tcaron;
unicode = 0164;
},
{
glyphname = Tcedilla;
lastChange = "2015-07-16 19:12:09 +0000";
layers = (
{
layerId = "A2C5D99E-4902-4090-BBD9-379E2297F70D";
name = Bold;
paths = (
{
closed = 1;
nodes = (
"343 -202 OFFCURVE",
"406 -161 OFFCURVE",
"406 -112 CURVE SMOOTH",
"406 -78 OFFCURVE",
"385 -59 OFFCURVE",
"357 -47 CURVE",
"378 0 LINE",
"442 0 LINE SMOOTH",
"456 0 OFFCURVE",
"459 7 OFFCURVE",
"459 17 CURVE SMOOTH",
"459 35 OFFCURVE",
"448 44 OFFCURVE",
"421 55 CURVE SMOOTH",
"379 72 LINE",
"379 615 LINE",
"530 615 LINE",
"543 563 LINE SMOOTH",
"551 530 OFFCURVE",
"561 511 OFFCURVE",
"583 511 CURVE SMOOTH",
"595 511 OFFCURVE",
"606 517 OFFCURVE",
"606 533 CURVE SMOOTH",
"606 695 LINE",
"26 695 LINE",
"26 533 LINE SMOOTH",
"26 517 OFFCURVE",
"38 511 OFFCURVE",
"50 511 CURVE SMOOTH",
"71 511 OFFCURVE",
"81 530 OFFCURVE",
"89 563 CURVE SMOOTH",
"102 615 LINE",
"254 615 LINE",
"254 72 LINE",
"237 72 LINE SMOOTH",
"203 72 OFFCURVE",
"181 58 OFFCURVE",
"181 30 CURVE SMOOTH",
"181 11 OFFCURVE",
"190 0 OFFCURVE",
"206 0 CURVE SMOOTH",
"301 0 LINE",
"280 -59 LINE",
"310 -69 OFFCURVE",
"323 -85 OFFCURVE",
"323 -109 CURVE SMOOTH",
"323 -136 OFFCURVE",
"303 -161 OFFCURVE",
"256 -176 CURVE",
"272 -216 LINE"
);
}
);
width = 632;
}
);
note = Tcedilla;
unicode = 0162;
},
{
glyphname = Tcommaaccent;
lastChange = "2015-07-16 19:12:08 +0000";
layers = (
{
components = (
{
name = T;
}
);
layerId = "A2C5D99E-4902-4090-BBD9-379E2297F70D";
name = Bold;
paths = (
{
closed = 1;
nodes = (
"329 -223 OFFCURVE",
"371 -134 OFFCURVE",
"386 -76 CURVE",
"291 -54 LINE SMOOTH",
"261 -48 OFFCURVE",
"241 -60 OFFCURVE",
"241 -85 CURVE SMOOTH",
"241 -97 OFFCURVE",
"248 -103 OFFCURVE",
"258 -107 CURVE",
"285 -115 LINE",
"281 -149 OFFCURVE",
"250 -212 OFFCURVE",
"225 -248 CURVE",
"277 -280 LINE"
);
}
);
width = 632;
}
);
note = Tcommaaccent;
unicode = 021A;
},
{
glyphname = Tdotbelow;
lastChange = "2015-07-16 19:12:08 +0000";
layers = (
{
components = (
{
name = T;
}
);
layerId = "A2C5D99E-4902-4090-BBD9-379E2297F70D";
name = Bold;
paths = (
{
closed = 1;
nodes = (
"350 -192 OFFCURVE",
"379 -166 OFFCURVE",
"379 -129 CURVE SMOOTH",
"379 -93 OFFCURVE",
"350 -66 OFFCURVE",
"316 -66 CURVE SMOOTH",
"281 -66 OFFCURVE",
"253 -93 OFFCURVE",
"253 -129 CURVE SMOOTH",
"253 -166 OFFCURVE",
"281 -192 OFFCURVE",
"316 -192 CURVE SMOOTH"
);
}
);
width = 632;
}
);
note = Tdotbelow;
unicode = 1E6C;
},
{
glyphname = Tlinebelow;
lastChange = "2015-07-16 19:12:08 +0000";
layers = (
{
components = (
{
name = T;
}
);
layerId = "A2C5D99E-4902-4090-BBD9-379E2297F70D";
name = Bold;
paths = (
{
closed = 1;
nodes = (
"520 -167 LINE",
"520 -88 LINE",
"119 -88 LINE",
"119 -167 LINE"
);
}
);
width = 632;
}
);
note = Tlinebelow;
unicode = 1E6E;
},
{
glyphname = U;
lastChange = "2015-07-16 19:12:08 +0000";
layers = (
{
layerId = "A2C5D99E-4902-4090-BBD9-379E2297F70D";
name = Bold;
paths = (
{
closed = 1;
nodes = (
"576 -14 OFFCURVE",
"697 80 OFFCURVE",
"697 268 CURVE SMOOTH",
"697 624 LINE",
"736 643 LINE SMOOTH",
"759 654 OFFCURVE",
"771 666 OFFCURVE",
"771 679 CURVE SMOOTH",
"771 690 OFFCURVE",
"768 695 OFFCURVE",
"755 695 CURVE SMOOTH",
"573 695 LINE SMOOTH",
"540 695 OFFCURVE",
"518 681 OFFCURVE",
"518 653 CURVE SMOOTH",
"518 634 OFFCURVE",
"527 623 OFFCURVE",
"543 623 CURVE SMOOTH",
"599 623 LINE",
"599 255 LINE SMOOTH",
"599 131 OFFCURVE",
"527 66 OFFCURVE",
"415 66 CURVE SMOOTH",
"304 66 OFFCURVE",
"234 130 OFFCURVE",
"234 255 CURVE SMOOTH",
"234 623 LINE",
"276 639 LINE SMOOTH",
"303 649 OFFCURVE",
"314 660 OFFCURVE",
"314 678 CURVE SMOOTH",
"314 688 OFFCURVE",
"311 695 OFFCURVE",
"297 695 CURVE SMOOTH",
"91 695 LINE SMOOTH",
"58 695 OFFCURVE",
"36 681 OFFCURVE",
"36 653 CURVE SMOOTH",
"36 634 OFFCURVE",
"45 623 OFFCURVE",
"61 623 CURVE SMOOTH",
"109 623 LINE",
"109 268 LINE SMOOTH",
"109 84 OFFCURVE",
"238 -14 OFFCURVE",
"409 -14 CURVE SMOOTH"
);
}
);
width = 807;
}
);
note = U;
unicode = 0055;
},
{
glyphname = Uacute;
lastChange = "2015-07-16 19:12:08 +0000";
layers = (
{
components = (
{
name = U;
}
);
layerId = "A2C5D99E-4902-4090-BBD9-379E2297F70D";
name = Bold;
paths = (
{
closed = 1;
nodes = (
"518 912 LINE",
"430 970 LINE",
"327 797 LINE",
"395 753 LINE"
);
}
);
width = 807;
}
);
note = Uacute;
unicode = 00DA;
},
{
glyphname = Ubreve;
lastChange = "2015-07-16 19:12:08 +0000";
layers = (
{
components = (
{
name = U;
}
);
layerId = "A2C5D99E-4902-4090-BBD9-379E2297F70D";
name = Bold;
paths = (
{
closed = 1;
nodes = (
"484 747 OFFCURVE",
"551 785 OFFCURVE",
"578 882 CURVE",
"514 905 LINE",
"497 856 OFFCURVE",
"461 827 OFFCURVE",
"414 827 CURVE SMOOTH",
"367 827 OFFCURVE",
"330 856 OFFCURVE",
"314 905 CURVE",
"249 882 LINE",
"276 785 OFFCURVE",
"343 747 OFFCURVE",
"414 747 CURVE SMOOTH"
);
}
);
width = 807;
}
);
note = Ubreve;
unicode = 016C;
},
{
glyphname = Ucaron;
lastChange = "2015-07-16 19:12:09 +0000";
layers = (
{
components = (
{
name = U;
}
);
layerId = "A2C5D99E-4902-4090-BBD9-379E2297F70D";
name = Bold;
paths = (
{
closed = 1;
nodes = (
"438 753 LINE",
"556 906 LINE",
"504 952 LINE",
"409 845 LINE",
"314 952 LINE",
"262 906 LINE",
"381 753 LINE"
);
}
);
width = 807;
}
);
note = Ucaron;
unicode = 01D3;
},
{
glyphname = Ucircumflex;
lastChange = "2015-07-16 19:12:08 +0000";
layers = (
{
components = (
{
name = U;
}
);
layerId = "A2C5D99E-4902-4090-BBD9-379E2297F70D";
name = Bold;
paths = (
{
closed = 1;
nodes = (
"411 860 LINE",
"506 753 LINE",
"558 798 LINE",
"440 952 LINE",
"383 952 LINE",
"264 798 LINE",
"316 753 LINE"
);
}
);
width = 807;
}
);
note = Ucircumflex;
unicode = 00DB;
},
{
glyphname = Udieresis;
lastChange = "2015-07-16 19:12:08 +0000";
layers = (
{
components = (
{
name = U;
}
);
layerId = "A2C5D99E-4902-4090-BBD9-379E2297F70D";
name = Bold;
paths = (
{
closed = 1;
nodes = (
"342 764 OFFCURVE",
"370 790 OFFCURVE",
"370 827 CURVE SMOOTH",
"370 863 OFFCURVE",
"342 890 OFFCURVE",
"308 890 CURVE SMOOTH",
"274 890 OFFCURVE",
"245 863 OFFCURVE",
"245 827 CURVE SMOOTH",
"245 790 OFFCURVE",
"274 764 OFFCURVE",
"308 764 CURVE SMOOTH"
);
},
{
closed = 1;
nodes = (
"546 764 OFFCURVE",
"574 790 OFFCURVE",
"574 827 CURVE SMOOTH",
"574 863 OFFCURVE",
"546 890 OFFCURVE",
"512 890 CURVE SMOOTH",
"478 890 OFFCURVE",
"449 863 OFFCURVE",
"449 827 CURVE SMOOTH",
"449 790 OFFCURVE",
"478 764 OFFCURVE",
"512 764 CURVE SMOOTH"
);
}
);
width = 807;
}
);
note = Udieresis;
unicode = 00DC;
},
{
glyphname = Udieresisacute;
lastChange = "2015-07-16 19:12:08 +0000";
layers = (
{
components = (
{
name = U;
}
);
layerId = "A2C5D99E-4902-4090-BBD9-379E2297F70D";
name = Bold;
paths = (
{
closed = 1;
nodes = (
"338 764 OFFCURVE",
"366 790 OFFCURVE",
"366 827 CURVE SMOOTH",
"366 863 OFFCURVE",
"338 890 OFFCURVE",
"304 890 CURVE SMOOTH",
"270 890 OFFCURVE",
"241 863 OFFCURVE",
"241 827 CURVE SMOOTH",
"241 790 OFFCURVE",
"270 764 OFFCURVE",
"304 764 CURVE SMOOTH"
);
},
{
closed = 1;
nodes = (
"543 764 OFFCURVE",
"571 790 OFFCURVE",
"571 827 CURVE SMOOTH",
"571 863 OFFCURVE",
"543 890 OFFCURVE",
"509 890 CURVE SMOOTH",
"475 890 OFFCURVE",
"446 863 OFFCURVE",
"446 827 CURVE SMOOTH",
"446 790 OFFCURVE",
"475 764 OFFCURVE",
"509 764 CURVE SMOOTH"
);
},
{
closed = 1;
nodes = (
"531 1036 LINE",
"448 1088 LINE",
"359 934 LINE",
"419 895 LINE"
);
}
);
width = 807;
}
);
note = Udieresisacute;
unicode = 01D7;
},
{
glyphname = Udieresiscaron;
lastChange = "2015-07-16 19:12:08 +0000";
layers = (
{
components = (
{
name = U;
}
);
layerId = "A2C5D99E-4902-4090-BBD9-379E2297F70D";
name = Bold;
paths = (
{
closed = 1;
nodes = (
"343 764 OFFCURVE",
"371 790 OFFCURVE",
"371 827 CURVE SMOOTH",
"371 863 OFFCURVE",
"343 890 OFFCURVE",
"309 890 CURVE SMOOTH",
"275 890 OFFCURVE",
"246 863 OFFCURVE",
"246 827 CURVE SMOOTH",
"246 790 OFFCURVE",
"275 764 OFFCURVE",
"309 764 CURVE SMOOTH"
);
},
{
closed = 1;
nodes = (
"548 764 OFFCURVE",
"576 790 OFFCURVE",
"576 827 CURVE SMOOTH",
"576 863 OFFCURVE",
"548 890 OFFCURVE",
"514 890 CURVE SMOOTH",
"480 890 OFFCURVE",
"451 863 OFFCURVE",
"451 827 CURVE SMOOTH",
"451 790 OFFCURVE",
"480 764 OFFCURVE",
"514 764 CURVE SMOOTH"
);
},
{
closed = 1;
nodes = (
"440 909 LINE",
"558 1062 LINE",
"506 1107 LINE",
"411 1001 LINE",
"316 1107 LINE",
"264 1062 LINE",
"383 909 LINE"
);
}
);
width = 807;
}
);
note = Udieresiscaron;
unicode = 01D9;
},
{
glyphname = Udieresisgrave;
lastChange = "2015-07-16 19:12:08 +0000";
layers = (
{
components = (
{
name = U;
}
);
layerId = "A2C5D99E-4902-4090-BBD9-379E2297F70D";
name = Bold;
paths = (
{
closed = 1;
nodes = (
"346 764 OFFCURVE",
"374 790 OFFCURVE",
"374 827 CURVE SMOOTH",
"374 863 OFFCURVE",
"346 890 OFFCURVE",
"311 890 CURVE SMOOTH",
"278 890 OFFCURVE",
"249 863 OFFCURVE",
"249 827 CURVE SMOOTH",
"249 790 OFFCURVE",
"278 764 OFFCURVE",
"311 764 CURVE SMOOTH"
);
},
{
closed = 1;
nodes = (
"550 764 OFFCURVE",
"578 790 OFFCURVE",
"578 827 CURVE SMOOTH",
"578 863 OFFCURVE",
"550 890 OFFCURVE",
"515 890 CURVE SMOOTH",
"482 890 OFFCURVE",
"453 863 OFFCURVE",
"453 827 CURVE SMOOTH",
"453 790 OFFCURVE",
"482 764 OFFCURVE",
"515 764 CURVE SMOOTH"
);
},
{
closed = 1;
nodes = (
"461 934 LINE",
"372 1088 LINE",
"289 1036 LINE",
"400 895 LINE"
);
}
);
width = 807;
}
);
note = Udieresisgrave;
unicode = 01DB;
},
{
glyphname = Udieresismacron;
lastChange = "2015-07-16 19:12:08 +0000";
layers = (
{
components = (
{
name = U;
}
);
layerId = "A2C5D99E-4902-4090-BBD9-379E2297F70D";
name = Bold;
paths = (
{
closed = 1;
nodes = (
"346 764 OFFCURVE",
"374 790 OFFCURVE",
"374 827 CURVE SMOOTH",
"374 863 OFFCURVE",
"346 890 OFFCURVE",
"312 890 CURVE SMOOTH",
"278 890 OFFCURVE",
"249 863 OFFCURVE",
"249 827 CURVE SMOOTH",
"249 790 OFFCURVE",
"278 764 OFFCURVE",
"312 764 CURVE SMOOTH"
);
},
{
closed = 1;
nodes = (
"551 764 OFFCURVE",
"579 790 OFFCURVE",
"579 827 CURVE SMOOTH",
"579 863 OFFCURVE",
"551 890 OFFCURVE",
"517 890 CURVE SMOOTH",
"483 890 OFFCURVE",
"454 863 OFFCURVE",
"454 827 CURVE SMOOTH",
"454 790 OFFCURVE",
"483 764 OFFCURVE",
"517 764 CURVE SMOOTH"
);
},
{
closed = 1;
nodes = (
"563 944 LINE",
"563 1024 LINE",
"269 1024 LINE",
"269 944 LINE"
);
}
);
width = 807;
}
);
note = Udieresismacron;
unicode = 01D5;
},
{
glyphname = Udotbelow;
lastChange = "2015-07-16 19:12:08 +0000";
layers = (
{
components = (
{
name = U;
}
);
layerId = "A2C5D99E-4902-4090-BBD9-379E2297F70D";
name = Bold;
paths = (
{
closed = 1;
nodes = (
"443 -192 OFFCURVE",
"472 -166 OFFCURVE",
"472 -129 CURVE SMOOTH",
"472 -93 OFFCURVE",
"443 -66 OFFCURVE",
"409 -66 CURVE SMOOTH",
"374 -66 OFFCURVE",
"346 -93 OFFCURVE",
"346 -129 CURVE SMOOTH",
"346 -166 OFFCURVE",
"374 -192 OFFCURVE",
"409 -192 CURVE SMOOTH"
);
}
);
width = 807;
}
);
note = Udotbelow;
unicode = 1EE4;
},
{
glyphname = Ugrave;
lastChange = "2015-07-16 19:12:08 +0000";
layers = (
{
components = (
{
name = U;
}
);
layerId = "A2C5D99E-4902-4090-BBD9-379E2297F70D";
name = Bold;
paths = (
{
closed = 1;
nodes = (
"485 798 LINE",
"383 971 LINE",
"294 913 LINE",
"418 754 LINE"
);
}
);
width = 807;
}
);
note = Ugrave;
unicode = 00D9;
},
{
glyphname = Uhookabove;
lastChange = "2015-07-16 19:12:08 +0000";
layers = (
{
components = (
{
name = U;
}
);
layerId = "A2C5D99E-4902-4090-BBD9-379E2297F70D";
name = Bold;
paths = (
{
closed = 1;
nodes = (
"434 750 LINE",
"441 798 LINE",
"485 814 OFFCURVE",
"511 843 OFFCURVE",
"511 881 CURVE SMOOTH",
"511 924 OFFCURVE",
"474 960 OFFCURVE",
"412 960 CURVE SMOOTH",
"386 960 OFFCURVE",
"356 951 OFFCURVE",
"338 944 CURVE",
"346 900 LINE",
"366 905 OFFCURVE",
"382 909 OFFCURVE",
"401 909 CURVE SMOOTH",
"424 909 OFFCURVE",
"433 899 OFFCURVE",
"433 880 CURVE SMOOTH",
"433 855 OFFCURVE",
"410 839 OFFCURVE",
"372 825 CURVE",
"380 750 LINE"
);
}
);
width = 807;
}
);
note = Uhookabove;
unicode = 1EE6;
},
{
glyphname = Uhorn;
lastChange = "2015-07-16 19:12:08 +0000";
layers = (
{
layerId = "A2C5D99E-4902-4090-BBD9-379E2297F70D";
name = Bold;
paths = (
{
closed = 1;
nodes = (
"576 -14 OFFCURVE",
"697 80 OFFCURVE",
"697 268 CURVE SMOOTH",
"697 411 LINE",
"826 471 OFFCURVE",
"942 578 OFFCURVE",
"942 763 CURVE",
"845 763 LINE",
"845 624 OFFCURVE",
"792 541 OFFCURVE",
"697 496 CURVE",
"697 625 LINE",
"729 639 LINE SMOOTH",
"753 649 OFFCURVE",
"771 662 OFFCURVE",
"771 678 CURVE SMOOTH",
"771 688 OFFCURVE",
"768 695 OFFCURVE",
"755 695 CURVE SMOOTH",
"573 695 LINE SMOOTH",
"540 695 OFFCURVE",
"518 681 OFFCURVE",
"518 653 CURVE SMOOTH",
"518 634 OFFCURVE",
"527 623 OFFCURVE",
"543 623 CURVE SMOOTH",
"599 623 LINE",
"599 255 LINE SMOOTH",
"599 131 OFFCURVE",
"527 66 OFFCURVE",
"415 66 CURVE SMOOTH",
"304 66 OFFCURVE",
"234 130 OFFCURVE",
"234 255 CURVE SMOOTH",
"234 623 LINE",
"276 639 LINE SMOOTH",
"303 649 OFFCURVE",
"314 660 OFFCURVE",
"314 678 CURVE SMOOTH",
"314 688 OFFCURVE",
"311 695 OFFCURVE",
"297 695 CURVE SMOOTH",
"91 695 LINE SMOOTH",
"58 695 OFFCURVE",
"36 681 OFFCURVE",
"36 653 CURVE SMOOTH",
"36 634 OFFCURVE",
"45 623 OFFCURVE",
"61 623 CURVE SMOOTH",
"109 623 LINE",
"109 268 LINE SMOOTH",
"109 84 OFFCURVE",
"238 -14 OFFCURVE",
"409 -14 CURVE SMOOTH"
);
}
);
width = 950;
}
);
note = Uhorn;
unicode = 01AF;
},
{
glyphname = Uhornacute;
lastChange = "2015-07-16 19:12:08 +0000";
layers = (
{
components = (
{
name = Uhorn;
}
);
layerId = "A2C5D99E-4902-4090-BBD9-379E2297F70D";
name = Bold;
paths = (
{
closed = 1;
nodes = (
"524 912 LINE",
"436 970 LINE",
"333 797 LINE",
"401 753 LINE"
);
}
);
width = 950;
}
);
note = Uhornacute;
unicode = 1EE8;
},
{
glyphname = Uhorndotbelow;
lastChange = "2015-07-16 19:12:08 +0000";
layers = (
{
components = (
{
name = Uhorn;
}
);
layerId = "A2C5D99E-4902-4090-BBD9-379E2297F70D";
name = Bold;
paths = (
{
closed = 1;
nodes = (
"452 -192 OFFCURVE",
"481 -166 OFFCURVE",
"481 -129 CURVE SMOOTH",
"481 -93 OFFCURVE",
"452 -66 OFFCURVE",
"418 -66 CURVE SMOOTH",
"383 -66 OFFCURVE",
"355 -93 OFFCURVE",
"355 -129 CURVE SMOOTH",
"355 -166 OFFCURVE",
"383 -192 OFFCURVE",
"418 -192 CURVE SMOOTH"
);
}
);
width = 950;
}
);
note = Uhorndotbelow;
unicode = 1EF0;
},
{
glyphname = Uhorngrave;
lastChange = "2015-07-16 19:12:09 +0000";
layers = (
{
components = (
{
name = Uhorn;
}
);
layerId = "A2C5D99E-4902-4090-BBD9-379E2297F70D";
name = Bold;
paths = (
{
closed = 1;
nodes = (
"462 798 LINE",
"360 971 LINE",
"271 913 LINE",
"395 754 LINE"
);
}
);
width = 950;
}
);
note = Uhorngrave;
unicode = 1EEA;
},
{
glyphname = Uhornhookabove;
lastChange = "2015-07-16 19:12:08 +0000";
layers = (
{
components = (
{
name = Uhorn;
}
);
layerId = "A2C5D99E-4902-4090-BBD9-379E2297F70D";
name = Bold;
paths = (
{
closed = 1;
nodes = (
"442 750 LINE",
"449 798 LINE",
"493 814 OFFCURVE",
"519 843 OFFCURVE",
"519 881 CURVE SMOOTH",
"519 924 OFFCURVE",
"482 960 OFFCURVE",
"420 960 CURVE SMOOTH",
"394 960 OFFCURVE",
"364 951 OFFCURVE",
"346 944 CURVE",
"354 900 LINE",
"374 905 OFFCURVE",
"390 909 OFFCURVE",
"409 909 CURVE SMOOTH",
"432 909 OFFCURVE",
"441 899 OFFCURVE",
"441 880 CURVE SMOOTH",
"441 855 OFFCURVE",
"418 839 OFFCURVE",
"380 825 CURVE",
"388 750 LINE"
);
}
);
width = 950;
}
);
note = Uhornhookabove;
unicode = 1EEC;
},
{
glyphname = Uhorntilde;
lastChange = "2015-07-16 19:12:08 +0000";
layers = (
{
components = (
{
name = Uhorn;
}
);
layerId = "A2C5D99E-4902-4090-BBD9-379E2297F70D";
name = Bold;
paths = (
{
closed = 1;
nodes = (
"507 764 OFFCURVE",
"543 783 OFFCURVE",
"574 814 CURVE",
"534 871 LINE",
"513 855 OFFCURVE",
"494 846 OFFCURVE",
"473 846 CURVE SMOOTH",
"430 846 OFFCURVE",
"393 885 OFFCURVE",
"348 885 CURVE SMOOTH",
"315 885 OFFCURVE",
"275 863 OFFCURVE",
"244 835 CURVE",
"284 778 LINE",
"304 792 OFFCURVE",
"322 803 OFFCURVE",
"348 803 CURVE SMOOTH",
"392 803 OFFCURVE",
"427 764 OFFCURVE",
"474 764 CURVE SMOOTH"
);
}
);
width = 950;
}
);
note = Uhorntilde;
unicode = 1EEE;
},
{
glyphname = Uhungarumlaut;
lastChange = "2015-07-16 19:12:09 +0000";
layers = (
{
components = (
{
name = U;
}
);
layerId = "A2C5D99E-4902-4090-BBD9-379E2297F70D";
name = Bold;
paths = (
{
closed = 1;
nodes = (
"444 959 LINE",
"368 1005 LINE",
"244 805 LINE",
"294 770 LINE"
);
},
{
closed = 1;
nodes = (
"635 959 LINE",
"559 1005 LINE",
"435 805 LINE",
"485 770 LINE"
);
}
);
width = 807;
}
);
note = Uhungarumlaut;
unicode = 0170;
},
{
glyphname = Umacron;
lastChange = "2015-07-16 19:12:08 +0000";
layers = (
{
components = (
{
name = U;
}
);
layerId = "A2C5D99E-4902-4090-BBD9-379E2297F70D";
name = Bold;
paths = (
{
closed = 1;
nodes = (
"562 785 LINE",
"562 864 LINE",
"268 864 LINE",
"268 785 LINE"
);
}
);
width = 807;
}
);
note = Umacron;
unicode = 016A;
},
{
glyphname = Uogonek;
lastChange = "2015-07-16 19:12:08 +0000";
layers = (
{
layerId = "A2C5D99E-4902-4090-BBD9-379E2297F70D";
name = Bold;
paths = (
{
closed = 1;
nodes = (
"459 -221 OFFCURVE",
"485 -215 OFFCURVE",
"505 -205 CURVE",
"496 -155 LINE",
"482 -159 OFFCURVE",
"469 -163 OFFCURVE",
"451 -163 CURVE SMOOTH",
"414 -163 OFFCURVE",
"394 -141 OFFCURVE",
"394 -110 CURVE SMOOTH",
"394 -72 OFFCURVE",
"426 -29 OFFCURVE",
"463 -11 CURVE",
"601 8 OFFCURVE",
"697 101 OFFCURVE",
"697 268 CURVE SMOOTH",
"697 624 LINE",
"736 644 LINE SMOOTH",
"760 656 OFFCURVE",
"771 666 OFFCURVE",
"771 679 CURVE SMOOTH",
"771 690 OFFCURVE",
"768 695 OFFCURVE",
"755 695 CURVE SMOOTH",
"573 695 LINE SMOOTH",
"540 695 OFFCURVE",
"518 681 OFFCURVE",
"518 653 CURVE SMOOTH",
"518 634 OFFCURVE",
"527 623 OFFCURVE",
"543 623 CURVE SMOOTH",
"599 623 LINE",
"599 255 LINE SMOOTH",
"599 131 OFFCURVE",
"527 66 OFFCURVE",
"415 66 CURVE SMOOTH",
"304 66 OFFCURVE",
"234 130 OFFCURVE",
"234 255 CURVE SMOOTH",
"234 623 LINE",
"276 640 LINE SMOOTH",
"303 651 OFFCURVE",
"314 660 OFFCURVE",
"314 678 CURVE SMOOTH",
"314 688 OFFCURVE",
"311 695 OFFCURVE",
"297 695 CURVE SMOOTH",
"91 695 LINE SMOOTH",
"58 695 OFFCURVE",
"36 681 OFFCURVE",
"36 653 CURVE SMOOTH",
"36 634 OFFCURVE",
"45 623 OFFCURVE",
"61 623 CURVE SMOOTH",
"109 623 LINE",
"109 268 LINE SMOOTH",
"109 95 OFFCURVE",
"223 -2 OFFCURVE",
"378 -13 CURVE",
"337 -39 OFFCURVE",
"313 -77 OFFCURVE",
"313 -115 CURVE SMOOTH",
"313 -181 OFFCURVE",
"363 -221 OFFCURVE",
"437 -221 CURVE SMOOTH"
);
}
);
width = 807;
}
);
note = Uogonek;
unicode = 0172;
},
{
glyphname = Uring;
lastChange = "2015-07-16 19:12:08 +0000";
layers = (
{
components = (
{
name = U;
}
);
layerId = "A2C5D99E-4902-4090-BBD9-379E2297F70D";
name = Bold;
paths = (
{
closed = 1;
nodes = (
"473 749 OFFCURVE",
"515 795 OFFCURVE",
"515 851 CURVE SMOOTH",
"515 906 OFFCURVE",
"473 952 OFFCURVE",
"407 952 CURVE SMOOTH",
"340 952 OFFCURVE",
"298 906 OFFCURVE",
"298 851 CURVE SMOOTH",
"298 795 OFFCURVE",
"340 749 OFFCURVE",
"407 749 CURVE SMOOTH"
);
},
{
closed = 1;
nodes = (
"383 806 OFFCURVE",
"364 822 OFFCURVE",
"364 851 CURVE SMOOTH",
"364 880 OFFCURVE",
"383 895 OFFCURVE",
"407 895 CURVE SMOOTH",
"431 895 OFFCURVE",
"451 880 OFFCURVE",
"451 851 CURVE SMOOTH",
"451 822 OFFCURVE",
"431 806 OFFCURVE",
"407 806 CURVE SMOOTH"
);
}
);
width = 807;
}
);
note = Uring;
unicode = 016E;
},
{
glyphname = Utilde;
lastChange = "2015-07-16 19:12:08 +0000";
layers = (
{
components = (
{
name = U;
}
);
layerId = "A2C5D99E-4902-4090-BBD9-379E2297F70D";
name = Bold;
paths = (
{
closed = 1;
nodes = (
"505 764 OFFCURVE",
"541 783 OFFCURVE",
"572 814 CURVE",
"532 871 LINE",
"511 855 OFFCURVE",
"492 846 OFFCURVE",
"471 846 CURVE SMOOTH",
"428 846 OFFCURVE",
"391 885 OFFCURVE",
"346 885 CURVE SMOOTH",
"313 885 OFFCURVE",
"273 863 OFFCURVE",
"242 835 CURVE",
"282 778 LINE",
"302 792 OFFCURVE",
"320 803 OFFCURVE",
"346 803 CURVE SMOOTH",
"390 803 OFFCURVE",
"425 764 OFFCURVE",
"472 764 CURVE SMOOTH"
);
}
);
width = 807;
}
);
note = Utilde;
unicode = 0168;
},
{
glyphname = V;
lastChange = "2015-07-16 19:12:08 +0000";
layers = (
{
layerId = "A2C5D99E-4902-4090-BBD9-379E2297F70D";
name = Bold;
paths = (
{
closed = 1;
nodes = (
"451 0 LINE",
"681 623 LINE",
"731 642 LINE SMOOTH",
"752 650 OFFCURVE",
"765 662 OFFCURVE",
"765 678 CURVE SMOOTH",
"765 688 OFFCURVE",
"760 695 OFFCURVE",
"748 695 CURVE SMOOTH",
"556 695 LINE SMOOTH",
"523 695 OFFCURVE",
"501 681 OFFCURVE",
"501 653 CURVE SMOOTH",
"501 634 OFFCURVE",
"509 623 OFFCURVE",
"525 623 CURVE SMOOTH",
"585 623 LINE",
"409 137 LINE SMOOTH",
"398 108 OFFCURVE",
"395 76 OFFCURVE",
"395 76 CURVE SMOOTH",
"390 76 LINE SMOOTH",
"390 76 OFFCURVE",
"386 108 OFFCURVE",
"376 137 CURVE SMOOTH",
"210 623 LINE",
"257 637 LINE SMOOTH",
"286 645 OFFCURVE",
"302 657 OFFCURVE",
"302 678 CURVE SMOOTH",
"302 688 OFFCURVE",
"297 695 OFFCURVE",
"286 695 CURVE SMOOTH",
"59 695 LINE SMOOTH",
"26 695 OFFCURVE",
"4 681 OFFCURVE",
"4 653 CURVE SMOOTH",
"4 634 OFFCURVE",
"13 623 OFFCURVE",
"29 623 CURVE SMOOTH",
"77 623 LINE",
"304 0 LINE"
);
}
);
width = 768;
}
);
note = V;
unicode = 0056;
},
{
glyphname = W;
lastChange = "2015-07-16 19:12:08 +0000";
layers = (
{
layerId = "A2C5D99E-4902-4090-BBD9-379E2297F70D";
name = Bold;
paths = (
{
closed = 1;
nodes = (
"420 0 LINE",
"549 482 LINE SMOOTH",
"559 524 OFFCURVE",
"564 585 OFFCURVE",
"564 585 CURVE",
"569 585 LINE",
"569 585 OFFCURVE",
"572 524 OFFCURVE",
"584 482 CURVE SMOOTH",
"724 0 LINE",
"874 0 LINE",
"1052 623 LINE",
"1103 642 LINE SMOOTH",
"1124 650 OFFCURVE",
"1136 662 OFFCURVE",
"1136 678 CURVE SMOOTH",
"1136 688 OFFCURVE",
"1132 695 OFFCURVE",
"1119 695 CURVE SMOOTH",
"925 695 LINE SMOOTH",
"892 695 OFFCURVE",
"869 681 OFFCURVE",
"869 653 CURVE SMOOTH",
"869 634 OFFCURVE",
"878 623 OFFCURVE",
"894 623 CURVE SMOOTH",
"959 623 LINE",
"831 162 LINE SMOOTH",
"822 127 OFFCURVE",
"818 83 OFFCURVE",
"818 83 CURVE SMOOTH",
"814 83 LINE SMOOTH",
"814 83 OFFCURVE",
"810 127 OFFCURVE",
"800 162 CURVE SMOOTH",
"644 695 LINE",
"514 695 LINE",
"372 162 LINE SMOOTH",
"363 127 OFFCURVE",
"359 83 OFFCURVE",
"359 83 CURVE SMOOTH",
"355 83 LINE SMOOTH",
"355 83 OFFCURVE",
"351 127 OFFCURVE",
"341 162 CURVE SMOOTH",
"203 623 LINE",
"250 637 LINE SMOOTH",
"279 645 OFFCURVE",
"295 657 OFFCURVE",
"295 678 CURVE SMOOTH",
"295 688 OFFCURVE",
"291 695 OFFCURVE",
"279 695 CURVE SMOOTH",
"60 695 LINE SMOOTH",
"27 695 OFFCURVE",
"5 681 OFFCURVE",
"5 653 CURVE SMOOTH",
"5 634 OFFCURVE",
"14 623 OFFCURVE",
"30 623 CURVE SMOOTH",
"78 623 LINE",
"270 0 LINE"
);
}
);
width = 1141;
}
);
note = W;
unicode = 0057;
},
{
glyphname = Wacute;
lastChange = "2015-07-16 19:12:08 +0000";
layers = (
{
components = (
{
name = W;
}
);
layerId = "A2C5D99E-4902-4090-BBD9-379E2297F70D";
name = Bold;
paths = (
{
closed = 1;
nodes = (
"707 912 LINE",
"619 970 LINE",
"516 797 LINE",
"584 753 LINE"
);
}
);
width = 1141;
}
);
note = Wacute;
unicode = 1E82;
},
{
glyphname = Wcircumflex;
lastChange = "2015-07-16 19:12:09 +0000";
layers = (
{
components = (
{
name = W;
}
);
layerId = "A2C5D99E-4902-4090-BBD9-379E2297F70D";
name = Bold;
paths = (
{
closed = 1;
nodes = (
"566 860 LINE",
"661 753 LINE",
"713 798 LINE",
"595 952 LINE",
"538 952 LINE",
"419 798 LINE",
"471 753 LINE"
);
}
);
width = 1141;
}
);
note = Wcircumflex;
unicode = 0174;
},
{
glyphname = Wdieresis;
lastChange = "2015-07-16 19:12:08 +0000";
layers = (
{
components = (
{
name = W;
}
);
layerId = "A2C5D99E-4902-4090-BBD9-379E2297F70D";
name = Bold;
paths = (
{
closed = 1;
nodes = (
"514 764 OFFCURVE",
"542 790 OFFCURVE",
"542 827 CURVE SMOOTH",
"542 863 OFFCURVE",
"514 890 OFFCURVE",
"480 890 CURVE SMOOTH",
"446 890 OFFCURVE",
"417 863 OFFCURVE",
"417 827 CURVE SMOOTH",
"417 790 OFFCURVE",
"446 764 OFFCURVE",
"480 764 CURVE SMOOTH"
);
},
{
closed = 1;
nodes = (
"718 764 OFFCURVE",
"746 790 OFFCURVE",
"746 827 CURVE SMOOTH",
"746 863 OFFCURVE",
"718 890 OFFCURVE",
"684 890 CURVE SMOOTH",
"650 890 OFFCURVE",
"621 863 OFFCURVE",
"621 827 CURVE SMOOTH",
"621 790 OFFCURVE",
"650 764 OFFCURVE",
"684 764 CURVE SMOOTH"
);
}
);
width = 1141;
}
);
note = Wdieresis;
unicode = 1E84;
},
{
glyphname = Wgrave;
lastChange = "2015-07-16 19:12:08 +0000";
layers = (
{
components = (
{
name = W;
}
);
layerId = "A2C5D99E-4902-4090-BBD9-379E2297F70D";
name = Bold;
paths = (
{
closed = 1;
nodes = (
"631 798 LINE",
"529 971 LINE",
"440 913 LINE",
"564 754 LINE"
);
}
);
width = 1141;
}
);
note = Wgrave;
unicode = 1E80;
},
{
glyphname = X;
lastChange = "2015-07-16 19:12:08 +0000";
layers = (
{
layerId = "A2C5D99E-4902-4090-BBD9-379E2297F70D";
name = Bold;
paths = (
{
closed = 1;
nodes = (
"260 0 LINE SMOOTH",
"272 0 OFFCURVE",
"277 7 OFFCURVE",
"277 17 CURVE SMOOTH",
"277 33 OFFCURVE",
"264 45 OFFCURVE",
"243 53 CURVE SMOOTH",
"190 73 LINE",
"344 293 LINE",
"496 72 LINE",
"462 72 LINE SMOOTH",
"429 72 OFFCURVE",
"407 58 OFFCURVE",
"407 30 CURVE SMOOTH",
"407 11 OFFCURVE",
"416 0 OFFCURVE",
"432 0 CURVE SMOOTH",
"713 0 LINE SMOOTH",
"725 0 OFFCURVE",
"730 7 OFFCURVE",
"730 17 CURVE SMOOTH",
"730 38 OFFCURVE",
"714 50 OFFCURVE",
"685 58 CURVE SMOOTH",
"652 67 LINE",
"443 370 LINE",
"623 623 LINE",
"672 642 LINE SMOOTH",
"692 650 OFFCURVE",
"705 662 OFFCURVE",
"705 678 CURVE SMOOTH",
"705 688 OFFCURVE",
"701 695 OFFCURVE",
"689 695 CURVE SMOOTH",
"506 695 LINE SMOOTH",
"473 695 OFFCURVE",
"451 681 OFFCURVE",
"451 653 CURVE SMOOTH",
"451 634 OFFCURVE",
"460 623 OFFCURVE",
"476 623 CURVE SMOOTH",
"524 623 LINE",
"386 429 LINE",
"251 628 LINE",
"287 637 LINE SMOOTH",
"316 644 OFFCURVE",
"332 657 OFFCURVE",
"332 678 CURVE SMOOTH",
"332 688 OFFCURVE",
"327 695 OFFCURVE",
"316 695 CURVE SMOOTH",
"87 695 LINE SMOOTH",
"54 695 OFFCURVE",
"32 681 OFFCURVE",
"32 653 CURVE SMOOTH",
"32 634 OFFCURVE",
"41 623 OFFCURVE",
"57 623 CURVE SMOOTH",
"104 623 LINE",
"286 351 LINE",
"93 72 LINE",
"63 72 LINE SMOOTH",
"30 72 OFFCURVE",
"8 58 OFFCURVE",
"8 30 CURVE SMOOTH",
"8 11 OFFCURVE",
"17 0 OFFCURVE",
"33 0 CURVE SMOOTH"
);
}
);
width = 738;
}
);
note = X;
unicode = 0058;
},
{
glyphname = Y;
lastChange = "2015-07-16 19:12:08 +0000";
layers = (
{
layerId = "A2C5D99E-4902-4090-BBD9-379E2297F70D";
name = Bold;
paths = (
{
closed = 1;
nodes = (
"481 0 LINE SMOOTH",
"495 0 OFFCURVE",
"498 7 OFFCURVE",
"498 17 CURVE SMOOTH",
"498 35 OFFCURVE",
"487 46 OFFCURVE",
"460 56 CURVE SMOOTH",
"417 72 LINE",
"417 302 LINE",
"631 623 LINE",
"681 642 LINE SMOOTH",
"702 650 OFFCURVE",
"714 662 OFFCURVE",
"714 678 CURVE SMOOTH",
"714 688 OFFCURVE",
"710 695 OFFCURVE",
"698 695 CURVE SMOOTH",
"515 695 LINE SMOOTH",
"482 695 OFFCURVE",
"460 681 OFFCURVE",
"460 653 CURVE SMOOTH",
"460 634 OFFCURVE",
"468 623 OFFCURVE",
"484 623 CURVE SMOOTH",
"534 623 LINE",
"377 386 LINE",
"227 623 LINE",
"274 636 LINE SMOOTH",
"299 643 OFFCURVE",
"315 654 OFFCURVE",
"315 676 CURVE SMOOTH",
"315 687 OFFCURVE",
"310 695 OFFCURVE",
"298 695 CURVE SMOOTH",
"60 695 LINE SMOOTH",
"27 695 OFFCURVE",
"5 681 OFFCURVE",
"5 653 CURVE SMOOTH",
"5 634 OFFCURVE",
"14 623 OFFCURVE",
"30 623 CURVE SMOOTH",
"77 623 LINE",
"292 286 LINE",
"292 72 LINE",
"276 72 LINE SMOOTH",
"242 72 OFFCURVE",
"220 58 OFFCURVE",
"220 30 CURVE SMOOTH",
"220 11 OFFCURVE",
"229 0 OFFCURVE",
"245 0 CURVE SMOOTH"
);
}
);
width = 719;
}
);
note = Y;
unicode = 0059;
},
{
glyphname = Yacute;
lastChange = "2015-07-16 19:12:08 +0000";
layers = (
{
components = (
{
name = Y;
}
);
layerId = "A2C5D99E-4902-4090-BBD9-379E2297F70D";
name = Bold;
paths = (
{
closed = 1;
nodes = (
"474 913 LINE",
"386 971 LINE",
"283 798 LINE",
"351 754 LINE"
);
}
);
width = 719;
}
);
note = Yacute;
unicode = 00DD;
},
{
glyphname = Ycircumflex;
lastChange = "2015-07-16 19:12:08 +0000";
layers = (
{
components = (
{
name = Y;
}
);
layerId = "A2C5D99E-4902-4090-BBD9-379E2297F70D";
name = Bold;
paths = (
{
closed = 1;
nodes = (
"360 860 LINE",
"455 753 LINE",
"507 798 LINE",
"389 952 LINE",
"332 952 LINE",
"213 798 LINE",
"265 753 LINE"
);
}
);
width = 719;
}
);
note = Ycircumflex;
unicode = 0176;
},
{
glyphname = Ydieresis;
lastChange = "2015-07-16 19:12:08 +0000";
layers = (
{
components = (
{
name = Y;
}
);
layerId = "A2C5D99E-4902-4090-BBD9-379E2297F70D";
name = Bold;
paths = (
{
closed = 1;
nodes = (
"284 764 OFFCURVE",
"312 790 OFFCURVE",
"312 827 CURVE SMOOTH",
"312 863 OFFCURVE",
"284 890 OFFCURVE",
"250 890 CURVE SMOOTH",
"216 890 OFFCURVE",
"187 863 OFFCURVE",
"187 827 CURVE SMOOTH",
"187 790 OFFCURVE",
"216 764 OFFCURVE",
"250 764 CURVE SMOOTH"
);
},
{
closed = 1;
nodes = (
"489 764 OFFCURVE",
"517 790 OFFCURVE",
"517 827 CURVE SMOOTH",
"517 863 OFFCURVE",
"489 890 OFFCURVE",
"455 890 CURVE SMOOTH",
"421 890 OFFCURVE",
"392 863 OFFCURVE",
"392 827 CURVE SMOOTH",
"392 790 OFFCURVE",
"421 764 OFFCURVE",
"455 764 CURVE SMOOTH"
);
}
);
width = 719;
}
);
note = Ydieresis;
unicode = 0178;
},
{
glyphname = Ydotaccent;
lastChange = "2015-07-16 19:12:08 +0000";
layers = (
{
components = (
{
name = Y;
}
);
layerId = "A2C5D99E-4902-4090-BBD9-379E2297F70D";
name = Bold;
paths = (
{
closed = 1;
nodes = (
"411 770 OFFCURVE",
"440 797 OFFCURVE",
"440 834 CURVE SMOOTH",
"440 870 OFFCURVE",
"411 897 OFFCURVE",
"377 897 CURVE SMOOTH",
"342 897 OFFCURVE",
"314 870 OFFCURVE",
"314 834 CURVE SMOOTH",
"314 797 OFFCURVE",
"342 770 OFFCURVE",
"377 770 CURVE SMOOTH"
);
}
);
width = 719;
}
);
note = Ydotaccent;
unicode = 1E8E;
},
{
glyphname = Ydotbelow;
lastChange = "2015-07-16 19:12:08 +0000";
layers = (
{
components = (
{
name = Y;
}
);
layerId = "A2C5D99E-4902-4090-BBD9-379E2297F70D";
name = Bold;
paths = (
{
closed = 1;
nodes = (
"388 -192 OFFCURVE",
"417 -166 OFFCURVE",
"417 -129 CURVE SMOOTH",
"417 -93 OFFCURVE",
"388 -66 OFFCURVE",
"354 -66 CURVE SMOOTH",
"319 -66 OFFCURVE",
"291 -93 OFFCURVE",
"291 -129 CURVE SMOOTH",
"291 -166 OFFCURVE",
"319 -192 OFFCURVE",
"354 -192 CURVE SMOOTH"
);
}
);
width = 719;
}
);
note = Ydotbelow;
unicode = 1EF4;
},
{
glyphname = Ygrave;
lastChange = "2015-07-16 19:12:09 +0000";
layers = (
{
components = (
{
name = Y;
}
);
layerId = "A2C5D99E-4902-4090-BBD9-379E2297F70D";
name = Bold;
paths = (
{
closed = 1;
nodes = (
"408 798 LINE",
"306 971 LINE",
"217 913 LINE",
"341 754 LINE"
);
}
);
width = 719;
}
);
note = Ygrave;
unicode = 1EF2;
},
{
glyphname = Yhookabove;
lastChange = "2015-07-16 19:12:08 +0000";
layers = (
{
components = (
{
name = Y;
}
);
layerId = "A2C5D99E-4902-4090-BBD9-379E2297F70D";
name = Bold;
paths = (
{
closed = 1;
nodes = (
"395 750 LINE",
"402 798 LINE",
"446 814 OFFCURVE",
"472 843 OFFCURVE",
"472 881 CURVE SMOOTH",
"472 924 OFFCURVE",
"435 960 OFFCURVE",
"373 960 CURVE SMOOTH",
"347 960 OFFCURVE",
"317 951 OFFCURVE",
"299 944 CURVE",
"307 900 LINE",
"327 905 OFFCURVE",
"343 909 OFFCURVE",
"362 909 CURVE SMOOTH",
"385 909 OFFCURVE",
"394 899 OFFCURVE",
"394 880 CURVE SMOOTH",
"394 855 OFFCURVE",
"371 839 OFFCURVE",
"333 825 CURVE",
"341 750 LINE"
);
}
);
width = 719;
}
);
note = Yhookabove;
unicode = 1EF6;
},
{
glyphname = Ytilde;
lastChange = "2015-07-16 19:12:08 +0000";
layers = (
{
components = (
{
name = Y;
}
);
layerId = "A2C5D99E-4902-4090-BBD9-379E2297F70D";
name = Bold;
paths = (
{
closed = 1;
nodes = (
"459 764 OFFCURVE",
"495 783 OFFCURVE",
"526 814 CURVE",
"486 871 LINE",
"465 855 OFFCURVE",
"446 846 OFFCURVE",
"425 846 CURVE SMOOTH",
"382 846 OFFCURVE",
"345 885 OFFCURVE",
"300 885 CURVE SMOOTH",
"267 885 OFFCURVE",
"227 863 OFFCURVE",
"196 835 CURVE",
"236 778 LINE",
"256 792 OFFCURVE",
"274 803 OFFCURVE",
"300 803 CURVE SMOOTH",
"344 803 OFFCURVE",
"379 764 OFFCURVE",
"426 764 CURVE SMOOTH"
);
}
);
width = 719;
}
);
note = Ytilde;
unicode = 1EF8;
},
{
glyphname = Z;
lastChange = "2015-07-16 19:12:08 +0000";
layers = (
{
layerId = "A2C5D99E-4902-4090-BBD9-379E2297F70D";
name = Bold;
paths = (
{
closed = 1;
nodes = (
"593 0 LINE",
"593 162 LINE SMOOTH",
"593 179 OFFCURVE",
"581 185 OFFCURVE",
"569 185 CURVE SMOOTH",
"548 185 OFFCURVE",
"538 166 OFFCURVE",
"530 133 CURVE SMOOTH",
"517 80 LINE",
"195 80 LINE",
"582 612 LINE",
"582 695 LINE",
"58 695 LINE",
"58 533 LINE SMOOTH",
"58 516 OFFCURVE",
"69 510 OFFCURVE",
"82 510 CURVE SMOOTH",
"103 510 OFFCURVE",
"113 529 OFFCURVE",
"121 563 CURVE SMOOTH",
"134 615 LINE",
"430 615 LINE",
"42 83 LINE",
"42 0 LINE"
);
}
);
width = 637;
}
);
note = Z;
unicode = 005A;
},
{
glyphname = Zacute;
lastChange = "2015-07-16 19:12:08 +0000";
layers = (
{
layerId = "A2C5D99E-4902-4090-BBD9-379E2297F70D";
name = Bold;
paths = (
{
closed = 1;
nodes = (
"593 0 LINE",
"593 162 LINE SMOOTH",
"593 179 OFFCURVE",
"581 185 OFFCURVE",
"569 185 CURVE SMOOTH",
"548 185 OFFCURVE",
"538 166 OFFCURVE",
"530 133 CURVE SMOOTH",
"517 80 LINE",
"195 80 LINE",
"582 612 LINE",
"582 695 LINE",
"58 695 LINE",
"58 533 LINE SMOOTH",
"58 516 OFFCURVE",
"69 510 OFFCURVE",
"82 510 CURVE SMOOTH",
"103 510 OFFCURVE",
"113 529 OFFCURVE",
"121 563 CURVE SMOOTH",
"134 615 LINE",
"430 615 LINE",
"42 83 LINE",
"42 0 LINE"
);
},
{
closed = 1;
nodes = (
"431 912 LINE",
"343 970 LINE",
"240 797 LINE",
"308 753 LINE"
);
}
);
width = 637;
}
);
note = Zacute;
unicode = 0179;
},
{
glyphname = Zcaron;
lastChange = "2015-07-16 19:12:08 +0000";
layers = (
{
layerId = "A2C5D99E-4902-4090-BBD9-379E2297F70D";
name = Bold;
paths = (
{
closed = 1;
nodes = (
"593 0 LINE",
"593 162 LINE SMOOTH",
"593 179 OFFCURVE",
"581 185 OFFCURVE",
"569 185 CURVE SMOOTH",
"548 185 OFFCURVE",
"538 166 OFFCURVE",
"530 133 CURVE SMOOTH",
"517 80 LINE",
"195 80 LINE",
"582 612 LINE",
"582 695 LINE",
"58 695 LINE",
"58 533 LINE SMOOTH",
"58 516 OFFCURVE",
"69 510 OFFCURVE",
"82 510 CURVE SMOOTH",
"103 510 OFFCURVE",
"113 529 OFFCURVE",
"121 563 CURVE SMOOTH",
"134 615 LINE",
"430 615 LINE",
"42 83 LINE",
"42 0 LINE"
);
},
{
closed = 1;
nodes = (
"356 753 LINE",
"474 906 LINE",
"422 952 LINE",
"327 845 LINE",
"232 952 LINE",
"180 906 LINE",
"299 753 LINE"
);
}
);
width = 637;
}
);
note = Zcaron;
unicode = 017D;
},
{
glyphname = Zdotaccent;
lastChange = "2015-07-16 19:12:08 +0000";
layers = (
{
layerId = "A2C5D99E-4902-4090-BBD9-379E2297F70D";
name = Bold;
paths = (
{
closed = 1;
nodes = (
"593 0 LINE",
"593 162 LINE SMOOTH",
"593 179 OFFCURVE",
"581 185 OFFCURVE",
"569 185 CURVE SMOOTH",
"548 185 OFFCURVE",
"538 166 OFFCURVE",
"530 133 CURVE SMOOTH",
"517 80 LINE",
"195 80 LINE",
"582 612 LINE",
"582 695 LINE",
"58 695 LINE",
"58 533 LINE SMOOTH",
"58 516 OFFCURVE",
"69 510 OFFCURVE",
"82 510 CURVE SMOOTH",
"103 510 OFFCURVE",
"113 529 OFFCURVE",
"121 563 CURVE SMOOTH",
"134 615 LINE",
"430 615 LINE",
"42 83 LINE",
"42 0 LINE"
);
},
{
closed = 1;
nodes = (
"360 770 OFFCURVE",
"389 797 OFFCURVE",
"389 834 CURVE SMOOTH",
"389 870 OFFCURVE",
"360 897 OFFCURVE",
"326 897 CURVE SMOOTH",
"291 897 OFFCURVE",
"263 870 OFFCURVE",
"263 834 CURVE SMOOTH",
"263 797 OFFCURVE",
"291 770 OFFCURVE",
"326 770 CURVE SMOOTH"
);
}
);
width = 637;
}
);
note = Zdotaccent;
unicode = 017B;
},
{
glyphname = Zdotbelow;
lastChange = "2015-07-16 19:12:09 +0000";
layers = (
{
layerId = "A2C5D99E-4902-4090-BBD9-379E2297F70D";
name = Bold;
paths = (
{
closed = 1;
nodes = (
"593 0 LINE",
"593 162 LINE SMOOTH",
"593 179 OFFCURVE",
"581 185 OFFCURVE",
"569 185 CURVE SMOOTH",
"548 185 OFFCURVE",
"538 166 OFFCURVE",
"530 133 CURVE SMOOTH",
"517 80 LINE",
"195 80 LINE",
"582 612 LINE",
"582 695 LINE",
"58 695 LINE",
"58 533 LINE SMOOTH",
"58 516 OFFCURVE",
"69 510 OFFCURVE",
"82 510 CURVE SMOOTH",
"103 510 OFFCURVE",
"113 529 OFFCURVE",
"121 563 CURVE SMOOTH",
"134 615 LINE",
"430 615 LINE",
"42 83 LINE",
"42 0 LINE"
);
},
{
closed = 1;
nodes = (
"358 -192 OFFCURVE",
"387 -166 OFFCURVE",
"387 -129 CURVE SMOOTH",
"387 -93 OFFCURVE",
"358 -66 OFFCURVE",
"324 -66 CURVE SMOOTH",
"289 -66 OFFCURVE",
"261 -93 OFFCURVE",
"261 -129 CURVE SMOOTH",
"261 -166 OFFCURVE",
"289 -192 OFFCURVE",
"324 -192 CURVE SMOOTH"
);
}
);
width = 637;
}
);
note = Zdotbelow;
unicode = 1E92;
},
{
glyphname = a;
lastChange = "2015-07-16 19:12:08 +0000";
layers = (
{
layerId = "A2C5D99E-4902-4090-BBD9-379E2297F70D";
name = Bold;
paths = (
{
closed = 1;
nodes = (
"255 -14 OFFCURVE",
"313 14 OFFCURVE",
"347 55 CURVE",
"351 55 LINE",
"351 0 LINE",
"519 0 LINE SMOOTH",
"531 0 OFFCURVE",
"534 7 OFFCURVE",
"534 17 CURVE SMOOTH",
"534 33 OFFCURVE",
"523 41 OFFCURVE",
"498 52 CURVE SMOOTH",
"466 65 LINE",
"466 336 LINE SMOOTH",
"466 447 OFFCURVE",
"382 501 OFFCURVE",
"271 501 CURVE SMOOTH",
"198 501 OFFCURVE",
"120 476 OFFCURVE",
"66 445 CURVE",
"66 338 LINE SMOOTH",
"66 328 OFFCURVE",
"73 319 OFFCURVE",
"88 319 CURVE SMOOTH",
"109 319 OFFCURVE",
"120 333 OFFCURVE",
"127 358 CURVE SMOOTH",
"137 399 LINE",
"161 414 OFFCURVE",
"212 429 OFFCURVE",
"251 429 CURVE SMOOTH",
"313 429 OFFCURVE",
"349 394 OFFCURVE",
"349 339 CURVE SMOOTH",
"349 303 LINE",
"231 285 LINE SMOOTH",
"138 271 OFFCURVE",
"37 238 OFFCURVE",
"37 126 CURVE SMOOTH",
"37 31 OFFCURVE",
"113 -14 OFFCURVE",
"192 -14 CURVE SMOOTH"
);
},
{
closed = 1;
nodes = (
"183 62 OFFCURVE",
"154 88 OFFCURVE",
"154 131 CURVE SMOOTH",
"154 184 OFFCURVE",
"194 209 OFFCURVE",
"253 219 CURVE SMOOTH",
"349 234 LINE",
"349 169 LINE SMOOTH",
"349 112 OFFCURVE",
"292 62 OFFCURVE",
"229 62 CURVE SMOOTH"
);
}
);
width = 549;
}
);
note = a;
unicode = 0061;
},
{
glyphname = aacute;
lastChange = "2015-07-16 19:12:08 +0000";
layers = (
{
layerId = "A2C5D99E-4902-4090-BBD9-379E2297F70D";
name = Bold;
paths = (
{
closed = 1;
nodes = (
"255 -14 OFFCURVE",
"313 14 OFFCURVE",
"347 55 CURVE",
"351 55 LINE",
"351 0 LINE",
"519 0 LINE SMOOTH",
"531 0 OFFCURVE",
"534 7 OFFCURVE",
"534 17 CURVE SMOOTH",
"534 33 OFFCURVE",
"523 41 OFFCURVE",
"498 52 CURVE SMOOTH",
"466 65 LINE",
"466 336 LINE SMOOTH",
"466 447 OFFCURVE",
"382 501 OFFCURVE",
"271 501 CURVE SMOOTH",
"198 501 OFFCURVE",
"120 476 OFFCURVE",
"66 445 CURVE",
"66 338 LINE SMOOTH",
"66 328 OFFCURVE",
"73 319 OFFCURVE",
"88 319 CURVE SMOOTH",
"109 319 OFFCURVE",
"120 333 OFFCURVE",
"127 358 CURVE SMOOTH",
"137 399 LINE",
"161 414 OFFCURVE",
"212 429 OFFCURVE",
"251 429 CURVE SMOOTH",
"313 429 OFFCURVE",
"349 394 OFFCURVE",
"349 339 CURVE SMOOTH",
"349 303 LINE",
"231 285 LINE SMOOTH",
"138 271 OFFCURVE",
"37 238 OFFCURVE",
"37 126 CURVE SMOOTH",
"37 31 OFFCURVE",
"113 -14 OFFCURVE",
"192 -14 CURVE SMOOTH"
);
},
{
closed = 1;
nodes = (
"183 62 OFFCURVE",
"154 88 OFFCURVE",
"154 131 CURVE SMOOTH",
"154 184 OFFCURVE",
"194 209 OFFCURVE",
"253 219 CURVE SMOOTH",
"349 234 LINE",
"349 169 LINE SMOOTH",
"349 112 OFFCURVE",
"292 62 OFFCURVE",
"229 62 CURVE SMOOTH"
);
},
{
closed = 1;
nodes = (
"378 720 LINE",
"290 778 LINE",
"187 605 LINE",
"255 561 LINE"
);
}
);
width = 549;
}
);
note = aacute;
unicode = 00E1;
},
{
glyphname = abreve;
lastChange = "2015-07-16 19:12:08 +0000";
layers = (
{
layerId = "A2C5D99E-4902-4090-BBD9-379E2297F70D";
name = Bold;
paths = (
{
closed = 1;
nodes = (
"255 -14 OFFCURVE",
"313 14 OFFCURVE",
"347 55 CURVE",
"351 55 LINE",
"351 0 LINE",
"519 0 LINE SMOOTH",
"531 0 OFFCURVE",
"534 7 OFFCURVE",
"534 17 CURVE SMOOTH",
"534 33 OFFCURVE",
"523 41 OFFCURVE",
"498 52 CURVE SMOOTH",
"466 65 LINE",
"466 336 LINE SMOOTH",
"466 447 OFFCURVE",
"382 501 OFFCURVE",
"271 501 CURVE SMOOTH",
"198 501 OFFCURVE",
"120 476 OFFCURVE",
"66 445 CURVE",
"66 338 LINE SMOOTH",
"66 328 OFFCURVE",
"73 319 OFFCURVE",
"88 319 CURVE SMOOTH",
"109 319 OFFCURVE",
"120 333 OFFCURVE",
"127 358 CURVE SMOOTH",
"137 399 LINE",
"161 414 OFFCURVE",
"212 429 OFFCURVE",
"251 429 CURVE SMOOTH",
"313 429 OFFCURVE",
"349 394 OFFCURVE",
"349 339 CURVE SMOOTH",
"349 303 LINE",
"231 285 LINE SMOOTH",
"138 271 OFFCURVE",
"37 238 OFFCURVE",
"37 126 CURVE SMOOTH",
"37 31 OFFCURVE",
"113 -14 OFFCURVE",
"192 -14 CURVE SMOOTH"
);
},
{
closed = 1;
nodes = (
"183 62 OFFCURVE",
"154 88 OFFCURVE",
"154 131 CURVE SMOOTH",
"154 184 OFFCURVE",
"194 209 OFFCURVE",
"253 219 CURVE SMOOTH",
"349 234 LINE",
"349 169 LINE SMOOTH",
"349 112 OFFCURVE",
"292 62 OFFCURVE",
"229 62 CURVE SMOOTH"
);
},
{
closed = 1;
nodes = (
"340 550 OFFCURVE",
"407 588 OFFCURVE",
"434 685 CURVE",
"370 708 LINE",
"353 659 OFFCURVE",
"317 630 OFFCURVE",
"270 630 CURVE SMOOTH",
"223 630 OFFCURVE",
"186 659 OFFCURVE",
"170 708 CURVE",
"105 685 LINE",
"132 588 OFFCURVE",
"199 550 OFFCURVE",
"270 550 CURVE SMOOTH"
);
}
);
width = 549;
}
);
note = abreve;
unicode = 0103;
},
{
glyphname = abreveacute;
lastChange = "2015-07-16 19:12:08 +0000";
layers = (
{
layerId = "A2C5D99E-4902-4090-BBD9-379E2297F70D";
name = Bold;
paths = (
{
closed = 1;
nodes = (
"255 -14 OFFCURVE",
"313 14 OFFCURVE",
"347 55 CURVE",
"351 55 LINE",
"351 0 LINE",
"519 0 LINE SMOOTH",
"531 0 OFFCURVE",
"534 7 OFFCURVE",
"534 17 CURVE SMOOTH",
"534 33 OFFCURVE",
"523 41 OFFCURVE",
"498 52 CURVE SMOOTH",
"466 65 LINE",
"466 336 LINE SMOOTH",
"466 447 OFFCURVE",
"382 501 OFFCURVE",
"271 501 CURVE SMOOTH",
"198 501 OFFCURVE",
"120 476 OFFCURVE",
"66 445 CURVE",
"66 338 LINE SMOOTH",
"66 328 OFFCURVE",
"73 319 OFFCURVE",
"88 319 CURVE SMOOTH",
"109 319 OFFCURVE",
"120 333 OFFCURVE",
"127 358 CURVE SMOOTH",
"137 399 LINE",
"161 414 OFFCURVE",
"212 429 OFFCURVE",
"251 429 CURVE SMOOTH",
"313 429 OFFCURVE",
"349 394 OFFCURVE",
"349 339 CURVE SMOOTH",
"349 303 LINE",
"231 285 LINE SMOOTH",
"138 271 OFFCURVE",
"37 238 OFFCURVE",
"37 126 CURVE SMOOTH",
"37 31 OFFCURVE",
"113 -14 OFFCURVE",
"192 -14 CURVE SMOOTH"
);
},
{
closed = 1;
nodes = (
"183 62 OFFCURVE",
"154 88 OFFCURVE",
"154 131 CURVE SMOOTH",
"154 184 OFFCURVE",
"194 209 OFFCURVE",
"253 219 CURVE SMOOTH",
"349 234 LINE",
"349 169 LINE SMOOTH",
"349 112 OFFCURVE",
"292 62 OFFCURVE",
"229 62 CURVE SMOOTH"
);
},
{
closed = 1;
nodes = (
"337 550 OFFCURVE",
"404 588 OFFCURVE",
"431 685 CURVE",
"367 708 LINE",
"350 659 OFFCURVE",
"314 630 OFFCURVE",
"267 630 CURVE SMOOTH",
"219 630 OFFCURVE",
"183 659 OFFCURVE",
"167 708 CURVE",
"102 685 LINE",
"129 588 OFFCURVE",
"196 550 OFFCURVE",
"267 550 CURVE SMOOTH"
);
},
{
closed = 1;
nodes = (
"392 831 LINE",
"309 883 LINE",
"223 733 LINE",
"283 694 LINE"
);
}
);
width = 549;
}
);
note = abreveacute;
unicode = 1EAF;
},
{
glyphname = abrevedotbelow;
lastChange = "2015-07-16 19:12:08 +0000";
layers = (
{
layerId = "A2C5D99E-4902-4090-BBD9-379E2297F70D";
name = Bold;
paths = (
{
closed = 1;
nodes = (
"255 -14 OFFCURVE",
"313 14 OFFCURVE",
"347 55 CURVE",
"351 55 LINE",
"351 0 LINE",
"519 0 LINE SMOOTH",
"531 0 OFFCURVE",
"534 7 OFFCURVE",
"534 17 CURVE SMOOTH",
"534 33 OFFCURVE",
"523 41 OFFCURVE",
"498 52 CURVE SMOOTH",
"466 65 LINE",
"466 336 LINE SMOOTH",
"466 447 OFFCURVE",
"382 501 OFFCURVE",
"271 501 CURVE SMOOTH",
"198 501 OFFCURVE",
"120 476 OFFCURVE",
"66 445 CURVE",
"66 338 LINE SMOOTH",
"66 328 OFFCURVE",
"73 319 OFFCURVE",
"88 319 CURVE SMOOTH",
"109 319 OFFCURVE",
"120 333 OFFCURVE",
"127 358 CURVE SMOOTH",
"137 399 LINE",
"161 414 OFFCURVE",
"212 429 OFFCURVE",
"251 429 CURVE SMOOTH",
"313 429 OFFCURVE",
"349 394 OFFCURVE",
"349 339 CURVE SMOOTH",
"349 303 LINE",
"231 285 LINE SMOOTH",
"138 271 OFFCURVE",
"37 238 OFFCURVE",
"37 126 CURVE SMOOTH",
"37 31 OFFCURVE",
"113 -14 OFFCURVE",
"192 -14 CURVE SMOOTH"
);
},
{
closed = 1;
nodes = (
"311 -192 OFFCURVE",
"340 -166 OFFCURVE",
"340 -129 CURVE SMOOTH",
"340 -93 OFFCURVE",
"311 -66 OFFCURVE",
"277 -66 CURVE SMOOTH",
"242 -66 OFFCURVE",
"214 -93 OFFCURVE",
"214 -129 CURVE SMOOTH",
"214 -166 OFFCURVE",
"242 -192 OFFCURVE",
"277 -192 CURVE SMOOTH"
);
},
{
closed = 1;
nodes = (
"183 62 OFFCURVE",
"154 88 OFFCURVE",
"154 131 CURVE SMOOTH",
"154 184 OFFCURVE",
"194 209 OFFCURVE",
"253 219 CURVE SMOOTH",
"349 234 LINE",
"349 169 LINE SMOOTH",
"349 112 OFFCURVE",
"292 62 OFFCURVE",
"229 62 CURVE SMOOTH"
);
},
{
closed = 1;
nodes = (
"334 550 OFFCURVE",
"401 588 OFFCURVE",
"428 685 CURVE",
"364 708 LINE",
"347 659 OFFCURVE",
"311 630 OFFCURVE",
"264 630 CURVE SMOOTH",
"217 630 OFFCURVE",
"180 659 OFFCURVE",
"164 708 CURVE",
"99 685 LINE",
"126 588 OFFCURVE",
"193 550 OFFCURVE",
"264 550 CURVE SMOOTH"
);
}
);
width = 549;
}
);
note = abrevedotbelow;
unicode = 1EB7;
},
{
glyphname = abrevegrave;
lastChange = "2015-07-16 19:12:08 +0000";
layers = (
{
layerId = "A2C5D99E-4902-4090-BBD9-379E2297F70D";
name = Bold;
paths = (
{
closed = 1;
nodes = (
"255 -14 OFFCURVE",
"313 14 OFFCURVE",
"347 55 CURVE",
"351 55 LINE",
"351 0 LINE",
"519 0 LINE SMOOTH",
"531 0 OFFCURVE",
"534 7 OFFCURVE",
"534 17 CURVE SMOOTH",
"534 33 OFFCURVE",
"523 41 OFFCURVE",
"498 52 CURVE SMOOTH",
"466 65 LINE",
"466 336 LINE SMOOTH",
"466 447 OFFCURVE",
"382 501 OFFCURVE",
"271 501 CURVE SMOOTH",
"198 501 OFFCURVE",
"120 476 OFFCURVE",
"66 445 CURVE",
"66 338 LINE SMOOTH",
"66 328 OFFCURVE",
"73 319 OFFCURVE",
"88 319 CURVE SMOOTH",
"109 319 OFFCURVE",
"120 333 OFFCURVE",
"127 358 CURVE SMOOTH",
"137 399 LINE",
"161 414 OFFCURVE",
"212 429 OFFCURVE",
"251 429 CURVE SMOOTH",
"313 429 OFFCURVE",
"349 394 OFFCURVE",
"349 339 CURVE SMOOTH",
"349 303 LINE",
"231 285 LINE SMOOTH",
"138 271 OFFCURVE",
"37 238 OFFCURVE",
"37 126 CURVE SMOOTH",
"37 31 OFFCURVE",
"113 -14 OFFCURVE",
"192 -14 CURVE SMOOTH"
);
},
{
closed = 1;
nodes = (
"183 62 OFFCURVE",
"154 88 OFFCURVE",
"154 131 CURVE SMOOTH",
"154 184 OFFCURVE",
"194 209 OFFCURVE",
"253 219 CURVE SMOOTH",
"349 234 LINE",
"349 169 LINE SMOOTH",
"349 112 OFFCURVE",
"292 62 OFFCURVE",
"229 62 CURVE SMOOTH"
);
},
{
closed = 1;
nodes = (
"337 550 OFFCURVE",
"404 588 OFFCURVE",
"431 685 CURVE",
"367 708 LINE",
"350 659 OFFCURVE",
"314 630 OFFCURVE",
"267 630 CURVE SMOOTH",
"219 630 OFFCURVE",
"183 659 OFFCURVE",
"167 708 CURVE",
"102 685 LINE",
"129 588 OFFCURVE",
"196 550 OFFCURVE",
"267 550 CURVE SMOOTH"
);
},
{
closed = 1;
nodes = (
"311 733 LINE",
"225 883 LINE",
"142 831 LINE",
"250 694 LINE"
);
}
);
width = 549;
}
);
note = abrevegrave;
unicode = 1EB1;
},
{
glyphname = abrevehookabove;
lastChange = "2015-07-16 19:12:08 +0000";
layers = (
{
layerId = "A2C5D99E-4902-4090-BBD9-379E2297F70D";
name = Bold;
paths = (
{
closed = 1;
nodes = (
"255 -14 OFFCURVE",
"313 14 OFFCURVE",
"347 55 CURVE",
"351 55 LINE",
"351 0 LINE",
"519 0 LINE SMOOTH",
"531 0 OFFCURVE",
"534 7 OFFCURVE",
"534 17 CURVE SMOOTH",
"534 33 OFFCURVE",
"523 41 OFFCURVE",
"498 52 CURVE SMOOTH",
"466 65 LINE",
"466 336 LINE SMOOTH",
"466 447 OFFCURVE",
"382 501 OFFCURVE",
"271 501 CURVE SMOOTH",
"198 501 OFFCURVE",
"120 476 OFFCURVE",
"66 445 CURVE",
"66 338 LINE SMOOTH",
"66 328 OFFCURVE",
"73 319 OFFCURVE",
"88 319 CURVE SMOOTH",
"109 319 OFFCURVE",
"120 333 OFFCURVE",
"127 358 CURVE SMOOTH",
"137 399 LINE",
"161 414 OFFCURVE",
"212 429 OFFCURVE",
"251 429 CURVE SMOOTH",
"313 429 OFFCURVE",
"349 394 OFFCURVE",
"349 339 CURVE SMOOTH",
"349 303 LINE",
"231 285 LINE SMOOTH",
"138 271 OFFCURVE",
"37 238 OFFCURVE",
"37 126 CURVE SMOOTH",
"37 31 OFFCURVE",
"113 -14 OFFCURVE",
"192 -14 CURVE SMOOTH"
);
},
{
closed = 1;
nodes = (
"183 62 OFFCURVE",
"154 88 OFFCURVE",
"154 131 CURVE SMOOTH",
"154 184 OFFCURVE",
"194 209 OFFCURVE",
"253 219 CURVE SMOOTH",
"349 234 LINE",
"349 169 LINE SMOOTH",
"349 112 OFFCURVE",
"292 62 OFFCURVE",
"229 62 CURVE SMOOTH"
);
},
{
closed = 1;
nodes = (
"337 550 OFFCURVE",
"404 588 OFFCURVE",
"431 685 CURVE",
"367 708 LINE",
"350 659 OFFCURVE",
"314 630 OFFCURVE",
"267 630 CURVE SMOOTH",
"219 630 OFFCURVE",
"183 659 OFFCURVE",
"167 708 CURVE",
"102 685 LINE",
"129 588 OFFCURVE",
"196 550 OFFCURVE",
"267 550 CURVE SMOOTH"
);
},
{
closed = 1;
nodes = (
"292 694 LINE",
"298 741 LINE",
"342 756 OFFCURVE",
"368 785 OFFCURVE",
"368 823 CURVE SMOOTH",
"368 865 OFFCURVE",
"331 901 OFFCURVE",
"270 901 CURVE SMOOTH",
"245 901 OFFCURVE",
"214 892 OFFCURVE",
"197 885 CURVE",
"205 841 LINE",
"224 847 OFFCURVE",
"241 850 OFFCURVE",
"259 850 CURVE SMOOTH",
"281 850 OFFCURVE",
"291 840 OFFCURVE",
"291 822 CURVE SMOOTH",
"291 798 OFFCURVE",
"268 782 OFFCURVE",
"231 768 CURVE",
"238 694 LINE"
);
}
);
width = 549;
}
);
note = abrevehookabove;
unicode = 1EB3;
},
{
glyphname = abrevetilde;
lastChange = "2015-07-16 19:12:08 +0000";
layers = (
{
layerId = "A2C5D99E-4902-4090-BBD9-379E2297F70D";
name = Bold;
paths = (
{
closed = 1;
nodes = (
"255 -14 OFFCURVE",
"313 14 OFFCURVE",
"347 55 CURVE",
"351 55 LINE",
"351 0 LINE",
"519 0 LINE SMOOTH",
"531 0 OFFCURVE",
"534 7 OFFCURVE",
"534 17 CURVE SMOOTH",
"534 33 OFFCURVE",
"523 41 OFFCURVE",
"498 52 CURVE SMOOTH",
"466 65 LINE",
"466 336 LINE SMOOTH",
"466 447 OFFCURVE",
"382 501 OFFCURVE",
"271 501 CURVE SMOOTH",
"198 501 OFFCURVE",
"120 476 OFFCURVE",
"66 445 CURVE",
"66 338 LINE SMOOTH",
"66 328 OFFCURVE",
"73 319 OFFCURVE",
"88 319 CURVE SMOOTH",
"109 319 OFFCURVE",
"120 333 OFFCURVE",
"127 358 CURVE SMOOTH",
"137 399 LINE",
"161 414 OFFCURVE",
"212 429 OFFCURVE",
"251 429 CURVE SMOOTH",
"313 429 OFFCURVE",
"349 394 OFFCURVE",
"349 339 CURVE SMOOTH",
"349 303 LINE",
"231 285 LINE SMOOTH",
"138 271 OFFCURVE",
"37 238 OFFCURVE",
"37 126 CURVE SMOOTH",
"37 31 OFFCURVE",
"113 -14 OFFCURVE",
"192 -14 CURVE SMOOTH"
);
},
{
closed = 1;
nodes = (
"183 62 OFFCURVE",
"154 88 OFFCURVE",
"154 131 CURVE SMOOTH",
"154 184 OFFCURVE",
"194 209 OFFCURVE",
"253 219 CURVE SMOOTH",
"349 234 LINE",
"349 169 LINE SMOOTH",
"349 112 OFFCURVE",
"292 62 OFFCURVE",
"229 62 CURVE SMOOTH"
);
},
{
closed = 1;
nodes = (
"339 550 OFFCURVE",
"406 588 OFFCURVE",
"433 685 CURVE",
"369 708 LINE",
"352 659 OFFCURVE",
"316 630 OFFCURVE",
"269 630 CURVE SMOOTH",
"222 630 OFFCURVE",
"185 659 OFFCURVE",
"169 708 CURVE",
"104 685 LINE",
"131 588 OFFCURVE",
"198 550 OFFCURVE",
"269 550 CURVE SMOOTH"
);
},
{
closed = 1;
nodes = (
"347 741 OFFCURVE",
"376 757 OFFCURVE",
"401 782 CURVE",
"368 829 LINE",
"352 817 OFFCURVE",
"337 810 OFFCURVE",
"319 810 CURVE SMOOTH",
"285 810 OFFCURVE",
"256 841 OFFCURVE",
"219 841 CURVE SMOOTH",
"193 841 OFFCURVE",
"161 824 OFFCURVE",
"136 801 CURVE",
"169 753 LINE",
"184 764 OFFCURVE",
"198 773 OFFCURVE",
"219 773 CURVE SMOOTH",
"254 773 OFFCURVE",
"282 741 OFFCURVE",
"320 741 CURVE SMOOTH"
);
}
);
width = 549;
}
);
note = abrevetilde;
unicode = 1EB5;
},
{
glyphname = acaron;
lastChange = "2015-07-16 19:12:08 +0000";
layers = (
{
layerId = "A2C5D99E-4902-4090-BBD9-379E2297F70D";
name = Bold;
paths = (
{
closed = 1;
nodes = (
"255 -14 OFFCURVE",
"313 14 OFFCURVE",
"347 55 CURVE",
"351 55 LINE",
"351 0 LINE",
"519 0 LINE SMOOTH",
"531 0 OFFCURVE",
"534 7 OFFCURVE",
"534 17 CURVE SMOOTH",
"534 33 OFFCURVE",
"523 41 OFFCURVE",
"498 52 CURVE SMOOTH",
"466 65 LINE",
"466 336 LINE SMOOTH",
"466 447 OFFCURVE",
"382 501 OFFCURVE",
"271 501 CURVE SMOOTH",
"198 501 OFFCURVE",
"120 476 OFFCURVE",
"66 445 CURVE",
"66 338 LINE SMOOTH",
"66 328 OFFCURVE",
"73 319 OFFCURVE",
"88 319 CURVE SMOOTH",
"109 319 OFFCURVE",
"120 333 OFFCURVE",
"127 358 CURVE SMOOTH",
"137 399 LINE",
"161 414 OFFCURVE",
"212 429 OFFCURVE",
"251 429 CURVE SMOOTH",
"313 429 OFFCURVE",
"349 394 OFFCURVE",
"349 339 CURVE SMOOTH",
"349 303 LINE",
"231 285 LINE SMOOTH",
"138 271 OFFCURVE",
"37 238 OFFCURVE",
"37 126 CURVE SMOOTH",
"37 31 OFFCURVE",
"113 -14 OFFCURVE",
"192 -14 CURVE SMOOTH"
);
},
{
closed = 1;
nodes = (
"183 62 OFFCURVE",
"154 88 OFFCURVE",
"154 131 CURVE SMOOTH",
"154 184 OFFCURVE",
"194 209 OFFCURVE",
"253 219 CURVE SMOOTH",
"349 234 LINE",
"349 169 LINE SMOOTH",
"349 112 OFFCURVE",
"292 62 OFFCURVE",
"229 62 CURVE SMOOTH"
);
},
{
closed = 1;
nodes = (
"298 561 LINE",
"416 714 LINE",
"364 760 LINE",
"269 653 LINE",
"174 760 LINE",
"122 714 LINE",
"241 561 LINE"
);
}
);
width = 549;
}
);
note = acaron;
unicode = 01CE;
},
{
glyphname = acircumflex;
lastChange = "2015-07-31 06:18:23 +0000";
layers = (
{
layerId = "A2C5D99E-4902-4090-BBD9-379E2297F70D";
name = Bold;
paths = (
{
closed = 1;
nodes = (
"255 -14 OFFCURVE",
"313 14 OFFCURVE",
"347 55 CURVE",
"351 55 LINE",
"351 0 LINE",
"519 0 LINE SMOOTH",
"531 0 OFFCURVE",
"534 7 OFFCURVE",
"534 17 CURVE SMOOTH",
"534 33 OFFCURVE",
"523 41 OFFCURVE",
"498 52 CURVE SMOOTH",
"466 65 LINE",
"466 336 LINE SMOOTH",
"466 447 OFFCURVE",
"382 501 OFFCURVE",
"271 501 CURVE SMOOTH",
"198 501 OFFCURVE",
"120 476 OFFCURVE",
"66 445 CURVE",
"66 338 LINE SMOOTH",
"66 328 OFFCURVE",
"73 319 OFFCURVE",
"88 319 CURVE SMOOTH",
"109 319 OFFCURVE",
"120 333 OFFCURVE",
"127 358 CURVE SMOOTH",
"137 399 LINE",
"161 414 OFFCURVE",
"212 429 OFFCURVE",
"251 429 CURVE SMOOTH",
"313 429 OFFCURVE",
"349 394 OFFCURVE",
"349 339 CURVE SMOOTH",
"349 303 LINE",
"231 285 LINE SMOOTH",
"138 271 OFFCURVE",
"37 238 OFFCURVE",
"37 126 CURVE SMOOTH",
"37 31 OFFCURVE",
"113 -14 OFFCURVE",
"192 -14 CURVE SMOOTH"
);
},
{
closed = 1;
nodes = (
"183 62 OFFCURVE",
"154 88 OFFCURVE",
"154 131 CURVE SMOOTH",
"154 184 OFFCURVE",
"194 209 OFFCURVE",
"253 219 CURVE SMOOTH",
"349 234 LINE",
"349 169 LINE SMOOTH",
"349 112 OFFCURVE",
"292 62 OFFCURVE",
"229 62 CURVE SMOOTH"
);
},
{
closed = 1;
nodes = (
"264 658 LINE",
"359 551 LINE",
"411 596 LINE",
"293 750 LINE",
"236 750 LINE",
"117 596 LINE",
"169 551 LINE"
);
}
);
width = 549;
}
);
note = acircumflex;
unicode = 00E2;
},
{
glyphname = acircumflexacute;
lastChange = "2015-07-31 06:18:27 +0000";
layers = (
{
layerId = "A2C5D99E-4902-4090-BBD9-379E2297F70D";
name = Bold;
paths = (
{
closed = 1;
nodes = (
"255 -14 OFFCURVE",
"313 14 OFFCURVE",
"347 55 CURVE",
"351 55 LINE",
"351 0 LINE",
"519 0 LINE SMOOTH",
"531 0 OFFCURVE",
"534 7 OFFCURVE",
"534 17 CURVE SMOOTH",
"534 33 OFFCURVE",
"523 41 OFFCURVE",
"498 52 CURVE SMOOTH",
"466 65 LINE",
"466 336 LINE SMOOTH",
"466 447 OFFCURVE",
"382 501 OFFCURVE",
"271 501 CURVE SMOOTH",
"198 501 OFFCURVE",
"120 476 OFFCURVE",
"66 445 CURVE",
"66 338 LINE SMOOTH",
"66 328 OFFCURVE",
"73 319 OFFCURVE",
"88 319 CURVE SMOOTH",
"109 319 OFFCURVE",
"120 333 OFFCURVE",
"127 358 CURVE SMOOTH",
"137 399 LINE",
"161 414 OFFCURVE",
"212 429 OFFCURVE",
"251 429 CURVE SMOOTH",
"313 429 OFFCURVE",
"349 394 OFFCURVE",
"349 339 CURVE SMOOTH",
"349 303 LINE",
"231 285 LINE SMOOTH",
"138 271 OFFCURVE",
"37 238 OFFCURVE",
"37 126 CURVE SMOOTH",
"37 31 OFFCURVE",
"113 -14 OFFCURVE",
"192 -14 CURVE SMOOTH"
);
},
{
closed = 1;
nodes = (
"183 62 OFFCURVE",
"154 88 OFFCURVE",
"154 131 CURVE SMOOTH",
"154 184 OFFCURVE",
"194 209 OFFCURVE",
"253 219 CURVE SMOOTH",
"349 234 LINE",
"349 169 LINE SMOOTH",
"349 112 OFFCURVE",
"292 62 OFFCURVE",
"229 62 CURVE SMOOTH"
);
},
{
closed = 1;
nodes = (
"263 658 LINE",
"358 551 LINE",
"410 596 LINE",
"292 750 LINE",
"235 750 LINE",
"116 596 LINE",
"168 551 LINE"
);
},
{
closed = 1;
nodes = (
"515 777 LINE",
"436 829 LINE",
"369 707 LINE",
"421 671 LINE"
);
}
);
width = 549;
}
);
note = acircumflexacute;
unicode = 1EA5;
},
{
glyphname = acircumflexdotbelow;
lastChange = "2015-07-31 06:18:30 +0000";
layers = (
{
layerId = "A2C5D99E-4902-4090-BBD9-379E2297F70D";
name = Bold;
paths = (
{
closed = 1;
nodes = (
"255 -14 OFFCURVE",
"313 14 OFFCURVE",
"347 55 CURVE",
"351 55 LINE",
"351 0 LINE",
"519 0 LINE SMOOTH",
"531 0 OFFCURVE",
"534 7 OFFCURVE",
"534 17 CURVE SMOOTH",
"534 33 OFFCURVE",
"523 41 OFFCURVE",
"498 52 CURVE SMOOTH",
"466 65 LINE",
"466 336 LINE SMOOTH",
"466 447 OFFCURVE",
"382 501 OFFCURVE",
"271 501 CURVE SMOOTH",
"198 501 OFFCURVE",
"120 476 OFFCURVE",
"66 445 CURVE",
"66 338 LINE SMOOTH",
"66 328 OFFCURVE",
"73 319 OFFCURVE",
"88 319 CURVE SMOOTH",
"109 319 OFFCURVE",
"120 333 OFFCURVE",
"127 358 CURVE SMOOTH",
"137 399 LINE",
"161 414 OFFCURVE",
"212 429 OFFCURVE",
"251 429 CURVE SMOOTH",
"313 429 OFFCURVE",
"349 394 OFFCURVE",
"349 339 CURVE SMOOTH",
"349 303 LINE",
"231 285 LINE SMOOTH",
"138 271 OFFCURVE",
"37 238 OFFCURVE",
"37 126 CURVE SMOOTH",
"37 31 OFFCURVE",
"113 -14 OFFCURVE",
"192 -14 CURVE SMOOTH"
);
},
{
closed = 1;
nodes = (
"309 -192 OFFCURVE",
"338 -166 OFFCURVE",
"338 -129 CURVE SMOOTH",
"338 -93 OFFCURVE",
"309 -66 OFFCURVE",
"275 -66 CURVE SMOOTH",
"240 -66 OFFCURVE",
"212 -93 OFFCURVE",
"212 -129 CURVE SMOOTH",
"212 -166 OFFCURVE",
"240 -192 OFFCURVE",
"275 -192 CURVE SMOOTH"
);
},
{
closed = 1;
nodes = (
"183 62 OFFCURVE",
"154 88 OFFCURVE",
"154 131 CURVE SMOOTH",
"154 184 OFFCURVE",
"194 209 OFFCURVE",
"253 219 CURVE SMOOTH",
"349 234 LINE",
"349 169 LINE SMOOTH",
"349 112 OFFCURVE",
"292 62 OFFCURVE",
"229 62 CURVE SMOOTH"
);
},
{
closed = 1;
nodes = (
"264 658 LINE",
"359 551 LINE",
"411 596 LINE",
"293 750 LINE",
"236 750 LINE",
"117 596 LINE",
"169 551 LINE"
);
}
);
width = 549;
}
);
note = acircumflexdotbelow;
unicode = 1EAD;
},
{
glyphname = acircumflexgrave;
lastChange = "2015-07-31 06:18:33 +0000";
layers = (
{
layerId = "A2C5D99E-4902-4090-BBD9-379E2297F70D";
name = Bold;
paths = (
{
closed = 1;
nodes = (
"282 -14 OFFCURVE",
"340 14 OFFCURVE",
"374 55 CURVE",
"378 55 LINE",
"378 0 LINE",
"546 0 LINE SMOOTH",
"558 0 OFFCURVE",
"561 7 OFFCURVE",
"561 17 CURVE SMOOTH",
"561 33 OFFCURVE",
"550 41 OFFCURVE",
"525 52 CURVE SMOOTH",
"493 65 LINE",
"493 336 LINE SMOOTH",
"493 447 OFFCURVE",
"409 501 OFFCURVE",
"298 501 CURVE SMOOTH",
"225 501 OFFCURVE",
"147 476 OFFCURVE",
"93 445 CURVE",
"93 338 LINE SMOOTH",
"93 328 OFFCURVE",
"100 319 OFFCURVE",
"115 319 CURVE SMOOTH",
"136 319 OFFCURVE",
"147 333 OFFCURVE",
"154 358 CURVE SMOOTH",
"164 399 LINE",
"188 414 OFFCURVE",
"239 429 OFFCURVE",
"278 429 CURVE SMOOTH",
"340 429 OFFCURVE",
"376 394 OFFCURVE",
"376 339 CURVE SMOOTH",
"376 303 LINE",
"258 285 LINE SMOOTH",
"165 271 OFFCURVE",
"64 238 OFFCURVE",
"64 126 CURVE SMOOTH",
"64 31 OFFCURVE",
"140 -14 OFFCURVE",
"219 -14 CURVE SMOOTH"
);
},
{
closed = 1;
nodes = (
"210 62 OFFCURVE",
"181 88 OFFCURVE",
"181 131 CURVE SMOOTH",
"181 184 OFFCURVE",
"221 209 OFFCURVE",
"280 219 CURVE SMOOTH",
"376 234 LINE",
"376 169 LINE SMOOTH",
"376 112 OFFCURVE",
"319 62 OFFCURVE",
"256 62 CURVE SMOOTH"
);
},
{
closed = 1;
nodes = (
"190 707 LINE",
"123 829 LINE",
"44 777 LINE",
"138 671 LINE"
);
},
{
closed = 1;
nodes = (
"295 658 LINE",
"390 551 LINE",
"442 596 LINE",
"324 750 LINE",
"267 750 LINE",
"148 596 LINE",
"200 551 LINE"
);
}
);
width = 577;
}
);
note = acircumflexgrave;
unicode = 1EA7;
},
{
glyphname = acircumflexhookabove;
lastChange = "2015-07-31 06:18:36 +0000";
layers = (
{
layerId = "A2C5D99E-4902-4090-BBD9-379E2297F70D";
name = Bold;
paths = (
{
closed = 1;
nodes = (
"255 -14 OFFCURVE",
"313 14 OFFCURVE",
"347 55 CURVE",
"351 55 LINE",
"351 0 LINE",
"519 0 LINE SMOOTH",
"531 0 OFFCURVE",
"534 7 OFFCURVE",
"534 17 CURVE SMOOTH",
"534 33 OFFCURVE",
"523 41 OFFCURVE",
"498 52 CURVE SMOOTH",
"466 65 LINE",
"466 336 LINE SMOOTH",
"466 447 OFFCURVE",
"382 501 OFFCURVE",
"271 501 CURVE SMOOTH",
"198 501 OFFCURVE",
"120 476 OFFCURVE",
"66 445 CURVE",
"66 338 LINE SMOOTH",
"66 328 OFFCURVE",
"73 319 OFFCURVE",
"88 319 CURVE SMOOTH",
"109 319 OFFCURVE",
"120 333 OFFCURVE",
"127 358 CURVE SMOOTH",
"137 399 LINE",
"161 414 OFFCURVE",
"212 429 OFFCURVE",
"251 429 CURVE SMOOTH",
"313 429 OFFCURVE",
"349 394 OFFCURVE",
"349 339 CURVE SMOOTH",
"349 303 LINE",
"231 285 LINE SMOOTH",
"138 271 OFFCURVE",
"37 238 OFFCURVE",
"37 126 CURVE SMOOTH",
"37 31 OFFCURVE",
"113 -14 OFFCURVE",
"192 -14 CURVE SMOOTH"
);
},
{
closed = 1;
nodes = (
"183 62 OFFCURVE",
"154 88 OFFCURVE",
"154 131 CURVE SMOOTH",
"154 184 OFFCURVE",
"194 209 OFFCURVE",
"253 219 CURVE SMOOTH",
"349 234 LINE",
"349 169 LINE SMOOTH",
"349 112 OFFCURVE",
"292 62 OFFCURVE",
"229 62 CURVE SMOOTH"
);
},
{
closed = 1;
nodes = (
"271 658 LINE",
"366 551 LINE",
"418 596 LINE",
"300 750 LINE",
"243 750 LINE",
"124 596 LINE",
"176 551 LINE"
);
},
{
closed = 1;
nodes = (
"466 670 LINE",
"472 717 LINE",
"516 732 OFFCURVE",
"542 761 OFFCURVE",
"542 799 CURVE SMOOTH",
"542 841 OFFCURVE",
"505 877 OFFCURVE",
"444 877 CURVE SMOOTH",
"419 877 OFFCURVE",
"388 868 OFFCURVE",
"371 861 CURVE",
"379 817 LINE",
"398 822 OFFCURVE",
"415 826 OFFCURVE",
"433 826 CURVE SMOOTH",
"455 826 OFFCURVE",
"465 816 OFFCURVE",
"465 798 CURVE SMOOTH",
"465 774 OFFCURVE",
"442 758 OFFCURVE",
"405 744 CURVE",
"412 670 LINE"
);
}
);
width = 567;
}
);
note = acircumflexhookabove;
unicode = 1EA9;
},
{
glyphname = acircumflextilde;
lastChange = "2015-07-31 06:18:39 +0000";
layers = (
{
layerId = "A2C5D99E-4902-4090-BBD9-379E2297F70D";
name = Bold;
paths = (
{
closed = 1;
nodes = (
"255 -14 OFFCURVE",
"313 14 OFFCURVE",
"347 55 CURVE",
"351 55 LINE",
"351 0 LINE",
"519 0 LINE SMOOTH",
"531 0 OFFCURVE",
"534 7 OFFCURVE",
"534 17 CURVE SMOOTH",
"534 33 OFFCURVE",
"523 41 OFFCURVE",
"498 52 CURVE SMOOTH",
"466 65 LINE",
"466 336 LINE SMOOTH",
"466 447 OFFCURVE",
"382 501 OFFCURVE",
"271 501 CURVE SMOOTH",
"198 501 OFFCURVE",
"120 476 OFFCURVE",
"66 445 CURVE",
"66 338 LINE SMOOTH",
"66 328 OFFCURVE",
"73 319 OFFCURVE",
"88 319 CURVE SMOOTH",
"109 319 OFFCURVE",
"120 333 OFFCURVE",
"127 358 CURVE SMOOTH",
"137 399 LINE",
"161 414 OFFCURVE",
"212 429 OFFCURVE",
"251 429 CURVE SMOOTH",
"313 429 OFFCURVE",
"349 394 OFFCURVE",
"349 339 CURVE SMOOTH",
"349 303 LINE",
"231 285 LINE SMOOTH",
"138 271 OFFCURVE",
"37 238 OFFCURVE",
"37 126 CURVE SMOOTH",
"37 31 OFFCURVE",
"113 -14 OFFCURVE",
"192 -14 CURVE SMOOTH"
);
},
{
closed = 1;
nodes = (
"183 62 OFFCURVE",
"154 88 OFFCURVE",
"154 131 CURVE SMOOTH",
"154 184 OFFCURVE",
"194 209 OFFCURVE",
"253 219 CURVE SMOOTH",
"349 234 LINE",
"349 169 LINE SMOOTH",
"349 112 OFFCURVE",
"292 62 OFFCURVE",
"229 62 CURVE SMOOTH"
);
},
{
closed = 1;
nodes = (
"271 658 LINE",
"366 551 LINE",
"418 596 LINE",
"300 750 LINE",
"243 750 LINE",
"124 596 LINE",
"176 551 LINE"
);
},
{
closed = 1;
nodes = (
"352 779 OFFCURVE",
"381 795 OFFCURVE",
"406 820 CURVE",
"373 867 LINE",
"357 855 OFFCURVE",
"342 848 OFFCURVE",
"324 848 CURVE SMOOTH",
"290 848 OFFCURVE",
"261 879 OFFCURVE",
"224 879 CURVE SMOOTH",
"198 879 OFFCURVE",
"166 861 OFFCURVE",
"141 839 CURVE",
"174 790 LINE",
"189 802 OFFCURVE",
"203 811 OFFCURVE",
"224 811 CURVE SMOOTH",
"259 811 OFFCURVE",
"287 779 OFFCURVE",
"325 779 CURVE SMOOTH"
);
}
);
width = 549;
}
);
note = acircumflextilde;
unicode = 1EAB;
},
{
glyphname = adieresis;
lastChange = "2015-07-16 19:12:08 +0000";
layers = (
{
layerId = "A2C5D99E-4902-4090-BBD9-379E2297F70D";
name = Bold;
paths = (
{
closed = 1;
nodes = (
"255 -14 OFFCURVE",
"313 14 OFFCURVE",
"347 55 CURVE",
"351 55 LINE",
"351 0 LINE",
"519 0 LINE SMOOTH",
"531 0 OFFCURVE",
"534 7 OFFCURVE",
"534 17 CURVE SMOOTH",
"534 33 OFFCURVE",
"523 41 OFFCURVE",
"498 52 CURVE SMOOTH",
"466 65 LINE",
"466 336 LINE SMOOTH",
"466 447 OFFCURVE",
"382 501 OFFCURVE",
"271 501 CURVE SMOOTH",
"198 501 OFFCURVE",
"120 476 OFFCURVE",
"66 445 CURVE",
"66 338 LINE SMOOTH",
"66 328 OFFCURVE",
"73 319 OFFCURVE",
"88 319 CURVE SMOOTH",
"109 319 OFFCURVE",
"120 333 OFFCURVE",
"127 358 CURVE SMOOTH",
"137 399 LINE",
"161 414 OFFCURVE",
"212 429 OFFCURVE",
"251 429 CURVE SMOOTH",
"313 429 OFFCURVE",
"349 394 OFFCURVE",
"349 339 CURVE SMOOTH",
"349 303 LINE",
"231 285 LINE SMOOTH",
"138 271 OFFCURVE",
"37 238 OFFCURVE",
"37 126 CURVE SMOOTH",
"37 31 OFFCURVE",
"113 -14 OFFCURVE",
"192 -14 CURVE SMOOTH"
);
},
{
closed = 1;
nodes = (
"183 62 OFFCURVE",
"154 88 OFFCURVE",
"154 131 CURVE SMOOTH",
"154 184 OFFCURVE",
"194 209 OFFCURVE",
"253 219 CURVE SMOOTH",
"349 234 LINE",
"349 169 LINE SMOOTH",
"349 112 OFFCURVE",
"292 62 OFFCURVE",
"229 62 CURVE SMOOTH"
);
},
{
closed = 1;
nodes = (
"204 564 OFFCURVE",
"232 591 OFFCURVE",
"232 627 CURVE SMOOTH",
"232 664 OFFCURVE",
"204 690 OFFCURVE",
"170 690 CURVE SMOOTH",
"136 690 OFFCURVE",
"107 664 OFFCURVE",
"107 627 CURVE SMOOTH",
"107 591 OFFCURVE",
"136 564 OFFCURVE",
"170 564 CURVE SMOOTH"
);
},
{
closed = 1;
nodes = (
"409 564 OFFCURVE",
"437 591 OFFCURVE",
"437 627 CURVE SMOOTH",
"437 664 OFFCURVE",
"409 690 OFFCURVE",
"375 690 CURVE SMOOTH",
"341 690 OFFCURVE",
"312 664 OFFCURVE",
"312 627 CURVE SMOOTH",
"312 591 OFFCURVE",
"341 564 OFFCURVE",
"375 564 CURVE SMOOTH"
);
}
);
width = 549;
}
);
note = adieresis;
unicode = 00E4;
},
{
glyphname = adotbelow;
lastChange = "2015-07-16 19:12:08 +0000";
layers = (
{
layerId = "A2C5D99E-4902-4090-BBD9-379E2297F70D";
name = Bold;
paths = (
{
closed = 1;
nodes = (
"255 -14 OFFCURVE",
"313 14 OFFCURVE",
"347 55 CURVE",
"351 55 LINE",
"351 0 LINE",
"519 0 LINE SMOOTH",
"531 0 OFFCURVE",
"534 7 OFFCURVE",
"534 17 CURVE SMOOTH",
"534 33 OFFCURVE",
"523 41 OFFCURVE",
"498 52 CURVE SMOOTH",
"466 65 LINE",
"466 336 LINE SMOOTH",
"466 447 OFFCURVE",
"382 501 OFFCURVE",
"271 501 CURVE SMOOTH",
"198 501 OFFCURVE",
"120 476 OFFCURVE",
"66 445 CURVE",
"66 338 LINE SMOOTH",
"66 328 OFFCURVE",
"73 319 OFFCURVE",
"88 319 CURVE SMOOTH",
"109 319 OFFCURVE",
"120 333 OFFCURVE",
"127 358 CURVE SMOOTH",
"137 399 LINE",
"161 414 OFFCURVE",
"212 429 OFFCURVE",
"251 429 CURVE SMOOTH",
"313 429 OFFCURVE",
"349 394 OFFCURVE",
"349 339 CURVE SMOOTH",
"349 303 LINE",
"231 285 LINE SMOOTH",
"138 271 OFFCURVE",
"37 238 OFFCURVE",
"37 126 CURVE SMOOTH",
"37 31 OFFCURVE",
"113 -14 OFFCURVE",
"192 -14 CURVE SMOOTH"
);
},
{
closed = 1;
nodes = (
"309 -192 OFFCURVE",
"338 -166 OFFCURVE",
"338 -129 CURVE SMOOTH",
"338 -93 OFFCURVE",
"309 -66 OFFCURVE",
"275 -66 CURVE SMOOTH",
"240 -66 OFFCURVE",
"212 -93 OFFCURVE",
"212 -129 CURVE SMOOTH",
"212 -166 OFFCURVE",
"240 -192 OFFCURVE",
"275 -192 CURVE SMOOTH"
);
},
{
closed = 1;
nodes = (
"183 62 OFFCURVE",
"154 88 OFFCURVE",
"154 131 CURVE SMOOTH",
"154 184 OFFCURVE",
"194 209 OFFCURVE",
"253 219 CURVE SMOOTH",
"349 234 LINE",
"349 169 LINE SMOOTH",
"349 112 OFFCURVE",
"292 62 OFFCURVE",
"229 62 CURVE SMOOTH"
);
}
);
width = 549;
}
);
note = adotbelow;
unicode = 1EA1;
},
{
glyphname = agrave;
lastChange = "2015-07-16 19:12:08 +0000";
layers = (
{
layerId = "A2C5D99E-4902-4090-BBD9-379E2297F70D";
name = Bold;
paths = (
{
closed = 1;
nodes = (
"255 -14 OFFCURVE",
"313 14 OFFCURVE",
"347 55 CURVE",
"351 55 LINE",
"351 0 LINE",
"519 0 LINE SMOOTH",
"531 0 OFFCURVE",
"534 7 OFFCURVE",
"534 17 CURVE SMOOTH",
"534 33 OFFCURVE",
"523 41 OFFCURVE",
"498 52 CURVE SMOOTH",
"466 65 LINE",
"466 336 LINE SMOOTH",
"466 447 OFFCURVE",
"382 501 OFFCURVE",
"271 501 CURVE SMOOTH",
"198 501 OFFCURVE",
"120 476 OFFCURVE",
"66 445 CURVE",
"66 338 LINE SMOOTH",
"66 328 OFFCURVE",
"73 319 OFFCURVE",
"88 319 CURVE SMOOTH",
"109 319 OFFCURVE",
"120 333 OFFCURVE",
"127 358 CURVE SMOOTH",
"137 399 LINE",
"161 414 OFFCURVE",
"212 429 OFFCURVE",
"251 429 CURVE SMOOTH",
"313 429 OFFCURVE",
"349 394 OFFCURVE",
"349 339 CURVE SMOOTH",
"349 303 LINE",
"231 285 LINE SMOOTH",
"138 271 OFFCURVE",
"37 238 OFFCURVE",
"37 126 CURVE SMOOTH",
"37 31 OFFCURVE",
"113 -14 OFFCURVE",
"192 -14 CURVE SMOOTH"
);
},
{
closed = 1;
nodes = (
"183 62 OFFCURVE",
"154 88 OFFCURVE",
"154 131 CURVE SMOOTH",
"154 184 OFFCURVE",
"194 209 OFFCURVE",
"253 219 CURVE SMOOTH",
"349 234 LINE",
"349 169 LINE SMOOTH",
"349 112 OFFCURVE",
"292 62 OFFCURVE",
"229 62 CURVE SMOOTH"
);
},
{
closed = 1;
nodes = (
"347 605 LINE",
"245 778 LINE",
"156 720 LINE",
"280 561 LINE"
);
}
);
width = 549;
}
);
note = agrave;
unicode = 00E0;
},
